<svg width="20" height="20" viewBox="0 0 20 20" fill="none" xmlns="http://www.w3.org/2000/svg">
<path d="M10.0185 7.0853C10.2133 7.08492 10.402 7.15273 10.5519 7.27697L15.5519 11.4436C15.9063 11.7382 15.9548 12.2642 15.6602 12.6186C15.3657 12.973 14.8396 13.0215 14.4852 12.727L10.0185 8.99363L5.55188 12.5936C5.37972 12.7334 5.15893 12.7989 4.93839 12.7754C4.71786 12.7519 4.51577 12.6415 4.37688 12.4686C4.2226 12.2954 4.1475 12.0657 4.16964 11.8348C4.19178 11.6039 4.30916 11.3927 4.49354 11.252L9.49355 7.22697C9.64778 7.12237 9.83263 7.07249 10.0185 7.0853Z" fill="#363839"/>
</svg>
