<svg width="26" height="26" viewBox="0 0 26 26" fill="none" xmlns="http://www.w3.org/2000/svg">
<path d="M8.18745 8.27416H7.13725C6.8398 8.27416 6.55452 8.39232 6.34419 8.60266C6.13385 8.81299 6.01569 9.09827 6.01569 9.39572V10.4561C6.01569 10.7536 6.13385 11.0389 6.34419 11.2492C6.55452 11.4595 6.8398 11.5777 7.13725 11.5777H8.19255C8.49001 11.5777 8.77528 11.4595 8.98562 11.2492C9.19595 11.0389 9.31412 10.7536 9.31412 10.4561V9.39572C9.31412 9.24801 9.28494 9.10175 9.22826 8.96534C9.17158 8.82893 9.0885 8.70506 8.98382 8.60085C8.87913 8.49663 8.75489 8.41413 8.61822 8.35806C8.48156 8.302 8.33517 8.27348 8.18745 8.27416ZM8.55961 10.4561C8.55961 10.5548 8.5204 10.6495 8.4506 10.7193C8.38081 10.7891 8.28615 10.8283 8.18745 10.8283H7.13725C7.03808 10.8283 6.94289 10.7892 6.87228 10.7196C6.80168 10.6499 6.76134 10.5553 6.76 10.4561V9.39572C6.76134 9.29656 6.80168 9.2019 6.87228 9.13225C6.94289 9.0626 7.03808 9.02356 7.13725 9.02357H8.19255C8.29125 9.02357 8.38591 9.06278 8.4557 9.13257C8.5255 9.20236 8.5647 9.29702 8.5647 9.39572L8.55961 10.4561ZM8.18745 13.3824H7.13725C6.8398 13.3824 6.55452 13.5006 6.34419 13.7109C6.13385 13.9212 6.01569 14.2065 6.01569 14.504V15.5644C6.01569 15.7116 6.0447 15.8575 6.10106 15.9936C6.15742 16.1296 6.24004 16.2533 6.34419 16.3574C6.44833 16.4616 6.57197 16.5442 6.70805 16.6005C6.84412 16.6569 6.98997 16.6859 7.13725 16.6859H8.19255C8.49001 16.6859 8.77528 16.5678 8.98562 16.3574C9.19595 16.1471 9.31412 15.8618 9.31412 15.5644V14.504C9.31412 14.3562 9.28494 14.21 9.22826 14.0736C9.17158 13.9372 9.0885 13.8133 8.98382 13.7091C8.87913 13.6049 8.75489 13.5224 8.61822 13.4663C8.48156 13.4102 8.33517 13.3817 8.18745 13.3824ZM8.55961 15.5644C8.55961 15.6631 8.5204 15.7577 8.4506 15.8275C8.38081 15.8973 8.28615 15.9365 8.18745 15.9365H7.13725C7.03808 15.9365 6.94289 15.8975 6.87228 15.8278C6.80168 15.7582 6.76134 15.6635 6.76 15.5644V14.504C6.76134 14.4048 6.80168 14.3101 6.87228 14.2405C6.94289 14.1708 7.03808 14.1318 7.13725 14.1318H8.19255C8.29125 14.1318 8.38591 14.171 8.4557 14.2408C8.5255 14.3106 8.5647 14.4053 8.5647 14.504L8.55961 15.5644ZM8.18745 18.4906H7.13725C6.8398 18.4906 6.55452 18.6088 6.34419 18.8191C6.13385 19.0295 6.01569 19.3147 6.01569 19.6122V20.6726C6.01569 20.97 6.13385 21.2553 6.34419 21.4657C6.55452 21.676 6.8398 21.7942 7.13725 21.7942H8.19255C8.49001 21.7942 8.77528 21.676 8.98562 21.4657C9.19595 21.2553 9.31412 20.97 9.31412 20.6726V19.6122C9.31412 19.4645 9.28494 19.3182 9.22826 19.1818C9.17158 19.0454 9.0885 18.9215 8.98382 18.8173C8.87913 18.7131 8.75489 18.6306 8.61822 18.5745C8.48156 18.5185 8.33517 18.49 8.18745 18.4906ZM8.55961 20.6726C8.55961 20.7713 8.5204 20.8659 8.4506 20.9357C8.38081 21.0055 8.28615 21.0447 8.18745 21.0447H7.13725C7.03808 21.0448 6.94289 21.0057 6.87228 20.9361C6.80168 20.8664 6.76134 20.7718 6.76 20.6726V19.6122C6.76134 19.513 6.80168 19.4184 6.87228 19.3487C6.94289 19.2791 7.03808 19.24 7.13725 19.24H8.19255C8.29125 19.24 8.38591 19.2792 8.4557 19.349C8.5255 19.4188 8.5647 19.5135 8.5647 19.6122L8.55961 20.6726ZM10.8741 9.02357H18.4243C18.4772 9.02975 18.5308 9.02466 18.5815 9.00865C18.6323 8.99264 18.6791 8.96607 18.7189 8.93067C18.7587 8.89528 18.7905 8.85187 18.8123 8.8033C18.8341 8.75473 18.8453 8.7021 18.8453 8.64886C18.8453 8.59562 18.8341 8.54299 18.8123 8.49442C18.7905 8.44585 18.7587 8.40244 18.7189 8.36705C18.6791 8.33166 18.6323 8.30508 18.5815 8.28907C18.5308 8.27306 18.4772 8.26798 18.4243 8.27416H10.8741C10.7823 8.28489 10.6976 8.32898 10.6361 8.39806C10.5746 8.46714 10.5406 8.55639 10.5406 8.64886C10.5406 8.74133 10.5746 8.83059 10.6361 8.89966C10.6976 8.96874 10.7823 9.01284 10.8741 9.02357ZM10.8741 14.1318H18.4243C18.4772 14.138 18.5308 14.1329 18.5815 14.1169C18.6323 14.1009 18.6791 14.0743 18.7189 14.0389C18.7587 14.0035 18.7905 13.9601 18.8123 13.9115C18.8341 13.863 18.8453 13.8103 18.8453 13.7571C18.8453 13.7039 18.8341 13.6512 18.8123 13.6027C18.7905 13.5541 18.7587 13.5107 18.7189 13.4753C18.6791 13.4399 18.6323 13.4133 18.5815 13.3973C18.5308 13.3813 18.4772 13.3762 18.4243 13.3824H10.8741C10.7823 13.3931 10.6976 13.4372 10.6361 13.5063C10.5746 13.5754 10.5406 13.6646 10.5406 13.7571C10.5406 13.8496 10.5746 13.9388 10.6361 14.0079C10.6976 14.077 10.7823 14.1211 10.8741 14.1318ZM10.8741 16.6859H15.8294C15.8823 16.6921 15.9359 16.687 15.9866 16.671C16.0374 16.655 16.0842 16.6284 16.124 16.593C16.1638 16.5576 16.1956 16.5142 16.2174 16.4657C16.2392 16.4171 16.2504 16.3645 16.2504 16.3112C16.2504 16.258 16.2392 16.2053 16.2174 16.1568C16.1956 16.1082 16.1638 16.0648 16.124 16.0294C16.0842 15.994 16.0374 15.9674 15.9866 15.9514C15.9359 15.9354 15.8823 15.9303 15.8294 15.9365H10.8741C10.7823 15.9472 10.6976 15.9913 10.6361 16.0604C10.5746 16.1295 10.5406 16.2187 10.5406 16.3112C10.5406 16.4037 10.5746 16.4929 10.6361 16.562C10.6976 16.6311 10.7823 16.6752 10.8741 16.6859ZM10.8741 11.5777H16.742C16.8338 11.567 16.9185 11.5229 16.98 11.4538C17.0415 11.3847 17.0754 11.2955 17.0754 11.203C17.0754 11.1105 17.0415 11.0213 16.98 10.9522C16.9185 10.8831 16.8338 10.839 16.742 10.8283H10.8741C10.7823 10.839 10.6976 10.8831 10.6361 10.9522C10.5746 11.0213 10.5406 11.1105 10.5406 11.203C10.5406 11.2955 10.5746 11.3847 10.6361 11.4538C10.6976 11.5229 10.7823 11.567 10.8741 11.5777ZM10.8741 19.24H15.8294C15.8823 19.2462 15.9359 19.2411 15.9866 19.2251C16.0374 19.2091 16.0842 19.1825 16.124 19.1471C16.1638 19.1118 16.1956 19.0683 16.2174 19.0198C16.2392 18.9712 16.2504 18.9186 16.2504 18.8653C16.2504 18.8121 16.2392 18.7595 16.2174 18.7109C16.1956 18.6623 16.1638 18.6189 16.124 18.5835C16.0842 18.5481 16.0374 18.5216 15.9866 18.5055C15.9359 18.4895 15.8823 18.4844 15.8294 18.4906H10.8741C10.7823 18.5014 10.6976 18.5454 10.6361 18.6145C10.5746 18.6836 10.5406 18.7729 10.5406 18.8653C10.5406 18.9578 10.5746 19.0471 10.6361 19.1161C10.6976 19.1852 10.7823 19.2293 10.8741 19.24ZM16.742 21.0447H10.8741C10.7823 21.0555 10.6976 21.0996 10.6361 21.1686C10.5746 21.2377 10.5406 21.327 10.5406 21.4194C10.5406 21.5119 10.5746 21.6012 10.6361 21.6703C10.6976 21.7393 10.7823 21.7834 10.8741 21.7942H16.742C16.8338 21.7834 16.9185 21.7393 16.98 21.6703C17.0415 21.6012 17.0754 21.5119 17.0754 21.4194C17.0754 21.327 17.0415 21.2377 16.98 21.1686C16.9185 21.0996 16.8338 21.0555 16.742 21.0447Z" fill="#363839"/>
<path d="M24.5369 18.0521C24.5354 17.1242 24.1901 16.2297 23.5678 15.5415C22.9454 14.8532 22.0901 14.42 21.167 14.3254V3.5023C21.1657 2.77576 20.8761 2.07944 20.3619 1.56618C19.8477 1.05292 19.1508 0.764651 18.4243 0.764652H4.20587C3.51174 0.763494 2.84309 1.02605 2.3352 1.4992C1.82732 1.97235 1.51813 2.62076 1.47019 3.31324C1.42226 4.00571 1.63916 4.69054 2.077 5.22916C2.51485 5.76778 3.14095 6.11996 3.82862 6.21446V24.8631C3.83124 24.9618 3.87199 25.0557 3.94232 25.1251C4.01264 25.1945 4.10709 25.234 4.20587 25.2352H20.7898C20.889 25.2353 20.9842 25.1962 21.0548 25.1266C21.1254 25.0569 21.1657 24.9623 21.167 24.8631V21.7737C22.0897 21.6803 22.9449 21.2481 23.5674 20.5607C24.1898 19.8733 24.5353 18.9795 24.5369 18.0521ZM2.21254 3.5023C2.21791 2.97718 2.43029 2.47539 2.80353 2.10596C3.17678 1.73654 3.68072 1.52933 4.20587 1.52936H16.5482C16.2765 1.78487 16.0599 2.09331 15.9119 2.43569C15.7638 2.77807 15.6875 3.14713 15.6875 3.52014C15.6875 3.89315 15.7638 4.26221 15.9119 4.60459C16.0599 4.94697 16.2765 5.25542 16.5482 5.51093H4.20587C3.94281 5.51093 3.68235 5.45887 3.43951 5.35774C3.19666 5.25661 2.97624 5.10842 2.79094 4.9217C2.60564 4.73498 2.45913 4.51342 2.35986 4.26981C2.26059 4.0262 2.21052 3.76535 2.21254 3.5023ZM4.58823 24.4705V6.24504H18.4243C18.4772 6.25122 18.5308 6.24614 18.5815 6.23013C18.6323 6.21412 18.6791 6.18754 18.7189 6.15215C18.7587 6.11676 18.7905 6.07335 18.8123 6.02478C18.8341 5.97621 18.8453 5.92358 18.8453 5.87034C18.8453 5.8171 18.8341 5.76447 18.8123 5.7159C18.7905 5.66733 18.7587 5.62392 18.7189 5.58853C18.6791 5.55313 18.6323 5.52656 18.5815 5.51055C18.5308 5.49454 18.4772 5.48945 18.4243 5.49563C18.0301 5.49563 17.6447 5.37873 17.3169 5.1597C16.9891 4.94067 16.7336 4.62935 16.5827 4.26512C16.4318 3.90088 16.3924 3.50009 16.4693 3.11342C16.5462 2.72675 16.736 2.37157 17.0148 2.0928C17.2936 1.81403 17.6488 1.62418 18.0354 1.54727C18.4221 1.47035 18.8229 1.50983 19.1871 1.6607C19.5514 1.81157 19.8627 2.06706 20.0817 2.39486C20.3007 2.72266 20.4176 3.10806 20.4176 3.5023V14.3254C19.4928 14.4161 18.6348 14.8476 18.0106 15.5359C17.3864 16.2243 17.0407 17.1203 17.0407 18.0496C17.0407 18.9788 17.3864 19.8748 18.0106 20.5632C18.6348 21.2515 19.4928 21.683 20.4176 21.7737V24.4705H4.58823ZM20.8 21.0294C20.2069 21.0294 19.6271 20.8534 19.1341 20.5238C18.641 20.1942 18.2568 19.7257 18.03 19.1777C17.8033 18.6296 17.7442 18.0266 17.8603 17.445C17.9764 16.8634 18.2624 16.3293 18.6821 15.9103C19.1019 15.4912 19.6365 15.2061 20.2183 15.091C20.8001 14.976 21.403 15.036 21.9507 15.2637C22.4983 15.4914 22.9661 15.8764 23.2949 16.37C23.6237 16.8637 23.7986 17.4437 23.7976 18.0368C23.799 18.4322 23.7221 18.8239 23.5714 19.1895C23.4207 19.555 23.1992 19.8871 22.9197 20.1667C22.6401 20.4463 22.308 20.6678 21.9424 20.8184C21.5769 20.9691 21.1852 21.046 20.7898 21.0447L20.8 21.0294Z" fill="#363839"/>
<path d="M22.2886 17.6749H21.167V16.5534C21.1732 16.5005 21.1681 16.4469 21.1521 16.3961C21.1361 16.3454 21.1095 16.2985 21.0742 16.2588C21.0388 16.219 20.9954 16.1872 20.9468 16.1654C20.8982 16.1436 20.8456 16.1323 20.7923 16.1323C20.7391 16.1323 20.6865 16.1436 20.6379 16.1654C20.5893 16.1872 20.5459 16.219 20.5105 16.2588C20.4751 16.2985 20.4486 16.3454 20.4326 16.3961C20.4165 16.4469 20.4115 16.5005 20.4176 16.5534V17.6749H19.2961C19.2432 17.6687 19.1896 17.6738 19.1388 17.6898C19.0881 17.7059 19.0413 17.7324 19.0015 17.7678C18.9617 17.8032 18.9299 17.8466 18.9081 17.8952C18.8863 17.9438 18.875 17.9964 18.875 18.0496C18.875 18.1029 18.8863 18.1555 18.9081 18.2041C18.9299 18.2526 18.9617 18.2961 19.0015 18.3314C19.0413 18.3668 19.0881 18.3934 19.1388 18.4094C19.1896 18.4254 19.2432 18.4305 19.2961 18.4243H20.4176V19.5459C20.4115 19.5988 20.4165 19.6524 20.4326 19.7031C20.4486 19.7539 20.4751 19.8007 20.5105 19.8405C20.5459 19.8803 20.5893 19.9121 20.6379 19.9339C20.6865 19.9557 20.7391 19.9669 20.7923 19.9669C20.8456 19.9669 20.8982 19.9557 20.9468 19.9339C20.9954 19.9121 21.0388 19.8803 21.0742 19.8405C21.1095 19.8007 21.1361 19.7539 21.1521 19.7031C21.1681 19.6524 21.1732 19.5988 21.167 19.5459V18.4243H22.2886C22.3415 18.4305 22.3951 18.4254 22.4459 18.4094C22.4966 18.3934 22.5434 18.3668 22.5832 18.3314C22.623 18.2961 22.6548 18.2526 22.6766 18.2041C22.6984 18.1555 22.7097 18.1029 22.7097 18.0496C22.7097 17.9964 22.6984 17.9438 22.6766 17.8952C22.6548 17.8466 22.623 17.8032 22.5832 17.7678C22.5434 17.7324 22.4966 17.7059 22.4459 17.6898C22.3951 17.6738 22.3415 17.6687 22.2886 17.6749Z" fill="#363839"/>
</svg>
