<svg width="26" height="26" viewBox="0 0 26 26" fill="none" xmlns="http://www.w3.org/2000/svg">
<path d="M24.5368 18.0521C24.5353 17.1242 24.1901 16.2297 23.5677 15.5415C22.9454 14.8532 22.0901 14.42 21.167 14.3254V3.5023C21.1657 2.77576 20.8761 2.07944 20.3619 1.56618C19.8477 1.05292 19.1508 0.764651 18.4243 0.764652H4.20584C3.51171 0.763494 2.84306 1.02605 2.33517 1.4992C1.82729 1.97235 1.5181 2.62076 1.47016 3.31324C1.42223 4.00571 1.63913 4.69054 2.07697 5.22916C2.51482 5.76778 3.14092 6.11996 3.82859 6.21446V24.8631C3.83121 24.9618 3.87196 25.0557 3.94229 25.1251C4.01261 25.1945 4.10706 25.234 4.20584 25.2352H20.7898C20.8889 25.2353 20.9841 25.1962 21.0547 25.1266C21.1253 25.0569 21.1657 24.9623 21.167 24.8631V21.7737C22.0897 21.6803 22.9449 21.2481 23.5674 20.5607C24.1898 19.8733 24.5352 18.9795 24.5368 18.0521ZM2.21251 3.5023C2.21788 2.97718 2.43026 2.47539 2.8035 2.10596C3.17675 1.73654 3.68069 1.52933 4.20584 1.52936H16.5482C16.2764 1.78487 16.0599 2.09331 15.9118 2.43569C15.7638 2.77807 15.6874 3.14713 15.6874 3.52014C15.6874 3.89315 15.7638 4.26221 15.9118 4.60459C16.0599 4.94697 16.2764 5.25542 16.5482 5.51093H4.20584C3.94278 5.51093 3.68232 5.45887 3.43948 5.35774C3.19663 5.25661 2.97621 5.10842 2.79091 4.9217C2.60561 4.73498 2.4591 4.51342 2.35983 4.26981C2.26056 4.0262 2.21049 3.76535 2.21251 3.5023ZM4.58819 24.4705V6.24504H18.4243C18.4771 6.25122 18.5307 6.24614 18.5815 6.23013C18.6323 6.21412 18.6791 6.18754 18.7189 6.15215C18.7586 6.11676 18.7905 6.07335 18.8122 6.02478C18.834 5.97621 18.8453 5.92358 18.8453 5.87034C18.8453 5.8171 18.834 5.76447 18.8122 5.7159C18.7905 5.66733 18.7586 5.62392 18.7189 5.58852C18.6791 5.55313 18.6323 5.52656 18.5815 5.51055C18.5307 5.49454 18.4771 5.48945 18.4243 5.49563C18.03 5.49563 17.6446 5.37873 17.3168 5.1597C16.989 4.94067 16.7335 4.62935 16.5827 4.26512C16.4318 3.90088 16.3923 3.50009 16.4692 3.11342C16.5462 2.72675 16.736 2.37157 17.0148 2.0928C17.2935 1.81403 17.6487 1.62418 18.0354 1.54727C18.4221 1.47035 18.8229 1.50983 19.1871 1.6607C19.5513 1.81157 19.8626 2.06706 20.0817 2.39486C20.3007 2.72266 20.4176 3.10806 20.4176 3.5023V14.3254C19.4928 14.4161 18.6348 14.8476 18.0106 15.5359C17.3864 16.2243 17.0406 17.1203 17.0406 18.0496C17.0406 18.9788 17.3864 19.8748 18.0106 20.5632C18.6348 21.2515 19.4928 21.683 20.4176 21.7737V24.4705H4.58819ZM20.8 21.0294C20.2069 21.0294 19.6271 20.8534 19.134 20.5238C18.641 20.1942 18.2567 19.7257 18.03 19.1777C17.8033 18.6296 17.7442 18.0266 17.8603 17.445C17.9764 16.8634 18.2624 16.3293 18.6821 15.9103C19.1018 15.4912 19.6365 15.2061 20.2183 15.091C20.8001 14.976 21.403 15.036 21.9506 15.2637C22.4983 15.4914 22.9661 15.8764 23.2949 16.37C23.6237 16.8637 23.7986 17.4437 23.7976 18.0368C23.799 18.4322 23.7221 18.8239 23.5714 19.1895C23.4207 19.555 23.1992 19.8871 22.9196 20.1667C22.6401 20.4463 22.3079 20.6678 21.9424 20.8184C21.5769 20.9691 21.1851 21.046 20.7898 21.0447L20.8 21.0294Z" fill="white"/>
<path d="M4.58819 24.4705V6.24504H18.4243C18.4771 6.25122 18.5307 6.24614 18.5815 6.23013C18.6323 6.21412 18.6791 6.18754 18.7189 6.15215C18.7586 6.11676 18.7905 6.07335 18.8122 6.02478C18.834 5.97621 18.8453 5.92358 18.8453 5.87034C18.8453 5.8171 18.834 5.76447 18.8122 5.7159C18.7905 5.66733 18.7586 5.62392 18.7189 5.58852C18.6791 5.55313 18.6323 5.52656 18.5815 5.51055C18.5307 5.49454 18.4771 5.48945 18.4243 5.49563C18.03 5.49563 17.6446 5.37873 17.3168 5.1597C16.989 4.94067 16.7335 4.62935 16.5827 4.26512C16.4318 3.90088 16.3923 3.50009 16.4692 3.11342C16.5462 2.72675 16.736 2.37157 17.0148 2.0928C17.2935 1.81403 17.6487 1.62418 18.0354 1.54727C18.4221 1.47035 18.8229 1.50983 19.1871 1.6607C19.5513 1.81157 19.8626 2.06706 20.0817 2.39486C20.3007 2.72266 20.4176 3.10806 20.4176 3.5023V14.3254C19.4928 14.4161 18.6348 14.8476 18.0106 15.5359C17.3864 16.2243 17.0406 17.1203 17.0406 18.0496C17.0406 18.9788 17.3864 19.8748 18.0106 20.5632C18.6348 21.2515 19.4928 21.683 20.4176 21.7737V24.4705H4.58819Z" fill="#363839"/>
<path d="M2.21251 3.5023C2.21788 2.97718 2.43026 2.47539 2.8035 2.10596C3.17675 1.73654 3.68069 1.52933 4.20584 1.52936H16.5482C16.2764 1.78487 16.0599 2.09331 15.9118 2.43569C15.7638 2.77807 15.6874 3.14713 15.6874 3.52014C15.6874 3.89315 15.7638 4.26221 15.9118 4.60459C16.0599 4.94697 16.2764 5.25542 16.5482 5.51093H4.20584C3.94278 5.51093 3.68232 5.45887 3.43948 5.35774C3.19663 5.25661 2.97621 5.10842 2.79091 4.9217C2.60561 4.73498 2.4591 4.51342 2.35983 4.26981C2.26056 4.0262 2.21049 3.76535 2.21251 3.5023Z" fill="#363839"/>
<path d="M20.8 21.0294C20.2069 21.0294 19.6271 20.8534 19.134 20.5238C18.641 20.1942 18.2567 19.7257 18.03 19.1777C17.8033 18.6296 17.7442 18.0266 17.8603 17.445C17.9764 16.8634 18.2624 16.3293 18.6821 15.9103C19.1018 15.4912 19.6365 15.2061 20.2183 15.091C20.8001 14.976 21.403 15.036 21.9506 15.2637C22.4983 15.4914 22.9661 15.8764 23.2949 16.37C23.6237 16.8637 23.7986 17.4437 23.7976 18.0368C23.799 18.4322 23.7221 18.8239 23.5714 19.1895C23.4207 19.555 23.1992 19.8871 22.9196 20.1667C22.6401 20.4463 22.3079 20.6678 21.9424 20.8184C21.5769 20.9691 21.1851 21.046 20.7898 21.0447L20.8 21.0294Z" fill="#363839"/>
<path d="M8.18739 8.27403H7.13719C6.83973 8.27403 6.55446 8.3922 6.34412 8.60253C6.13379 8.81287 6.01562 9.09814 6.01562 9.3956V10.456C6.01562 10.7535 6.13379 11.0387 6.34412 11.2491C6.55446 11.4594 6.83973 11.5776 7.13719 11.5776H8.19249C8.48995 11.5776 8.77522 11.4594 8.98556 11.2491C9.19589 11.0387 9.31406 10.7535 9.31406 10.456V9.3956C9.31406 9.24789 9.28488 9.10162 9.2282 8.96522C9.17151 8.82881 9.08844 8.70494 8.98376 8.60073C8.87907 8.49651 8.75482 8.414 8.61816 8.35794C8.4815 8.30188 8.3351 8.27336 8.18739 8.27403ZM8.55955 10.456C8.55955 10.5547 8.52034 10.6494 8.45054 10.7191C8.38075 10.7889 8.28609 10.8282 8.18739 10.8282H7.13719C7.03802 10.8282 6.94282 10.7891 6.87222 10.7195C6.80162 10.6498 6.76128 10.5552 6.75994 10.456V9.3956C6.76128 9.29643 6.80162 9.20178 6.87222 9.13213C6.94282 9.06248 7.03802 9.02344 7.13719 9.02345H8.19249C8.29119 9.02345 8.38585 9.06265 8.45564 9.13245C8.52543 9.20224 8.56464 9.2969 8.56464 9.3956L8.55955 10.456ZM8.18739 13.3823H7.13719C6.83973 13.3823 6.55446 13.5004 6.34412 13.7108C6.13379 13.9211 6.01562 14.2064 6.01562 14.5038V15.5642C6.01562 15.7115 6.04464 15.8574 6.101 15.9934C6.15736 16.1295 6.23998 16.2532 6.34412 16.3573C6.44827 16.4614 6.57191 16.5441 6.70799 16.6004C6.84406 16.6568 6.98991 16.6858 7.13719 16.6858H8.19249C8.48995 16.6858 8.77522 16.5676 8.98556 16.3573C9.19589 16.147 9.31406 15.8617 9.31406 15.5642V14.5038C9.31406 14.3561 9.28488 14.2099 9.2282 14.0735C9.17151 13.937 9.08844 13.8132 8.98376 13.709C8.87907 13.6047 8.75482 13.5222 8.61816 13.4662C8.4815 13.4101 8.3351 13.3816 8.18739 13.3823ZM8.55955 15.5642C8.55955 15.6629 8.52034 15.7576 8.45054 15.8274C8.38075 15.8972 8.28609 15.9364 8.18739 15.9364H7.13719C7.03802 15.9364 6.94282 15.8973 6.87222 15.8277C6.80162 15.758 6.76128 15.6634 6.75994 15.5642V14.5038C6.76128 14.4047 6.80162 14.31 6.87222 14.2404C6.94282 14.1707 7.03802 14.1317 7.13719 14.1317H8.19249C8.29119 14.1317 8.38585 14.1709 8.45564 14.2407C8.52543 14.3105 8.56464 14.4051 8.56464 14.5038L8.55955 15.5642ZM8.18739 18.4905H7.13719C6.83973 18.4905 6.55446 18.6087 6.34412 18.819C6.13379 19.0293 6.01562 19.3146 6.01562 19.6121V20.6725C6.01562 20.9699 6.13379 21.2552 6.34412 21.4655C6.55446 21.6759 6.83973 21.794 7.13719 21.794H8.19249C8.48995 21.794 8.77522 21.6759 8.98556 21.4655C9.19589 21.2552 9.31406 20.9699 9.31406 20.6725V19.6121C9.31406 19.4644 9.28488 19.3181 9.2282 19.1817C9.17151 19.0453 9.08844 18.9214 8.98376 18.8172C8.87907 18.713 8.75482 18.6305 8.61816 18.5744C8.4815 18.5183 8.3351 18.4898 8.18739 18.4905ZM8.55955 20.6725C8.55955 20.7712 8.52034 20.8658 8.45054 20.9356C8.38075 21.0054 8.28609 21.0446 8.18739 21.0446H7.13719C7.03802 21.0446 6.94282 21.0056 6.87222 20.9359C6.80162 20.8663 6.76128 20.7716 6.75994 20.6725V19.6121C6.76128 19.5129 6.80162 19.4183 6.87222 19.3486C6.94282 19.279 7.03802 19.2399 7.13719 19.2399H8.19249C8.29119 19.2399 8.38585 19.2791 8.45564 19.3489C8.52543 19.4187 8.56464 19.5134 8.56464 19.6121L8.55955 20.6725ZM10.8741 9.02345H18.4243C18.4771 9.02962 18.5307 9.02454 18.5815 9.00853C18.6323 8.99252 18.6791 8.96595 18.7188 8.93055C18.7586 8.89516 18.7904 8.85175 18.8122 8.80318C18.834 8.75461 18.8453 8.70198 18.8453 8.64874C18.8453 8.5955 18.834 8.54287 18.8122 8.4943C18.7904 8.44573 18.7586 8.40232 18.7188 8.36693C18.6791 8.33153 18.6323 8.30496 18.5815 8.28895C18.5307 8.27294 18.4771 8.26786 18.4243 8.27403H10.8741C10.7822 8.28476 10.6975 8.32886 10.636 8.39794C10.5745 8.46701 10.5406 8.55627 10.5406 8.64874C10.5406 8.74121 10.5745 8.83046 10.636 8.89954C10.6975 8.96862 10.7822 9.01271 10.8741 9.02345ZM10.8741 14.1317H18.4243C18.4771 14.1379 18.5307 14.1328 18.5815 14.1168C18.6323 14.1008 18.6791 14.0742 18.7188 14.0388C18.7586 14.0034 18.7904 13.96 18.8122 13.9114C18.834 13.8628 18.8453 13.8102 18.8453 13.757C18.8453 13.7037 18.834 13.6511 18.8122 13.6025C18.7904 13.554 18.7586 13.5106 18.7188 13.4752C18.6791 13.4398 18.6323 13.4132 18.5815 13.3972C18.5307 13.3812 18.4771 13.3761 18.4243 13.3823H10.8741C10.7822 13.393 10.6975 13.4371 10.636 13.5062C10.5745 13.5752 10.5406 13.6645 10.5406 13.757C10.5406 13.8494 10.5745 13.9387 10.636 14.0078C10.6975 14.0769 10.7822 14.1209 10.8741 14.1317ZM10.8741 16.6858H15.8293C15.8822 16.692 15.9358 16.6869 15.9866 16.6709C16.0374 16.6549 16.0842 16.6283 16.1239 16.5929C16.1637 16.5575 16.1955 16.5141 16.2173 16.4655C16.2391 16.417 16.2504 16.3643 16.2504 16.3111C16.2504 16.2579 16.2391 16.2052 16.2173 16.1567C16.1955 16.1081 16.1637 16.0647 16.1239 16.0293C16.0842 15.9939 16.0374 15.9673 15.9866 15.9513C15.9358 15.9353 15.8822 15.9302 15.8293 15.9364H10.8741C10.7822 15.9471 10.6975 15.9912 10.636 16.0603C10.5745 16.1294 10.5406 16.2186 10.5406 16.3111C10.5406 16.4036 10.5745 16.4928 10.636 16.5619C10.6975 16.631 10.7822 16.6751 10.8741 16.6858ZM10.8741 11.5776H16.7419C16.8337 11.5668 16.9185 11.5227 16.9799 11.4537C17.0414 11.3846 17.0754 11.2953 17.0754 11.2029C17.0754 11.1104 17.0414 11.0211 16.9799 10.9521C16.9185 10.883 16.8337 10.8389 16.7419 10.8282H10.8741C10.7822 10.8389 10.6975 10.883 10.636 10.9521C10.5745 11.0211 10.5406 11.1104 10.5406 11.2029C10.5406 11.2953 10.5745 11.3846 10.636 11.4537C10.6975 11.5227 10.7822 11.5668 10.8741 11.5776ZM10.8741 19.2399H15.8293C15.8822 19.2461 15.9358 19.241 15.9866 19.225C16.0374 19.209 16.0842 19.1824 16.1239 19.147C16.1637 19.1116 16.1955 19.0682 16.2173 19.0196C16.2391 18.9711 16.2504 18.9184 16.2504 18.8652C16.2504 18.812 16.2391 18.7593 16.2173 18.7108C16.1955 18.6622 16.1637 18.6188 16.1239 18.5834C16.0842 18.548 16.0374 18.5214 15.9866 18.5054C15.9358 18.4894 15.8822 18.4843 15.8293 18.4905H10.8741C10.7822 18.5012 10.6975 18.5453 10.636 18.6144C10.5745 18.6835 10.5406 18.7727 10.5406 18.8652C10.5406 18.9577 10.5745 19.0469 10.636 19.116C10.6975 19.1851 10.7822 19.2292 10.8741 19.2399ZM16.7419 21.0446H10.8741C10.7822 21.0554 10.6975 21.0994 10.636 21.1685C10.5745 21.2376 10.5406 21.3269 10.5406 21.4193C10.5406 21.5118 10.5745 21.6011 10.636 21.6701C10.6975 21.7392 10.7822 21.7833 10.8741 21.794H16.7419C16.8337 21.7833 16.9185 21.7392 16.9799 21.6701C17.0414 21.6011 17.0754 21.5118 17.0754 21.4193C17.0754 21.3269 17.0414 21.2376 16.9799 21.1685C16.9185 21.0994 16.8337 21.0554 16.7419 21.0446Z" fill="white"/>
<path d="M20.8938 19.5001C20.7938 19.4997 20.6983 19.4579 20.6302 19.3845L18.8752 17.5176C18.7386 17.372 18.7459 17.1432 18.8915 17.0066C19.0371 16.87 19.2658 16.8772 19.4025 17.0228L20.8902 18.6081L23.9272 15.2859C24.0111 15.1813 24.1462 15.1319 24.2778 15.1576C24.4094 15.1832 24.516 15.2797 24.5546 15.4082C24.5932 15.5366 24.5574 15.6759 24.4616 15.7698L21.1611 19.3809C21.0936 19.4556 20.9981 19.4988 20.8975 19.5001H20.8938Z" fill="#C1E0CE"/>
</svg>
