
<svg width="16" height="16" viewBox="0 0 16 16" fill="none" xmlns="http://www.w3.org/2000/svg">
<path fill-rule="evenodd" clip-rule="evenodd" d="M15.04 10.8667L9.92667 2.38666C9.50648 1.72933 8.78016 1.33158 8 1.33158C7.21984 1.33158 6.49352 1.72933 6.07333 2.38666L0.96 10.8667C0.592364 11.4795 0.579657 12.2419 0.926667 12.8667C1.32798 13.5701 2.07682 14.0031 2.88667 14H13.1133C13.9177 14.0086 14.6652 13.5865 15.0733 12.8933C15.4307 12.2618 15.418 11.4861 15.04 10.8667ZM8 11.3333C7.63181 11.3333 7.33333 11.0349 7.33333 10.6667C7.33333 10.2985 7.63181 10 8 10C8.36819 10 8.66667 10.2985 8.66667 10.6667C8.66667 11.0349 8.36819 11.3333 8 11.3333ZM8 9.33333C8.36819 9.33333 8.66667 9.03485 8.66667 8.66666V6C8.66667 5.63181 8.36819 5.33333 8 5.33333C7.63181 5.33333 7.33333 5.63181 7.33333 6V8.66666C7.33333 9.03485 7.63181 9.33333 8 9.33333Z" fill="#FF5630"/>
</svg>
