<svg width="48" height="48" viewBox="0 0 48 48" fill="none" xmlns="http://www.w3.org/2000/svg">
<path d="M37.7947 25.4254V39.7599C37.7947 40.6847 37.045 41.4345 36.1202 41.4345H11.8795C10.9547 41.4345 10.205 40.6847 10.205 39.7599V25.4254M8.87234 25.2477C8.24223 25.2477 7.73145 24.7369 7.73145 24.1068V18.6341C7.73145 18.004 8.24223 17.4932 8.87234 17.4932H39.1274C39.7575 17.4932 40.2683 18.004 40.2683 18.6341V24.1068C40.2683 24.7369 39.7575 25.2477 39.1274 25.2477H8.87234Z" stroke="currentColor" stroke-miterlimit="10" stroke-linecap="round" stroke-linejoin="round"/>
<path d="M23.9711 17.5015L20.7794 12.1497C19.7587 10.3894 20.342 8.13557 22.0885 7.09146C23.2501 6.39701 24.6972 6.38833 25.867 7.06869L25.8944 7.08461C27.6836 8.12521 28.2792 10.4263 27.2194 12.2043L23.9711 17.5015ZM23.8264 17.4474L17.2872 17.418C15.2524 17.4085 13.6028 15.7657 13.5851 13.7309C13.5733 12.3777 14.2975 11.1247 15.476 10.4595L15.5036 10.444C17.3061 9.42647 19.5925 10.0762 20.5905 11.8896L23.8264 17.4474Z" stroke="currentColor" stroke-miterlimit="10" stroke-linecap="round" stroke-linejoin="round"/>
<path d="M24.1729 17.4475L30.712 17.418C32.7469 17.4086 34.3964 15.7657 34.4142 13.731C34.426 12.3777 33.7017 11.1248 32.5232 10.4596L32.4957 10.444C30.6931 9.42651 28.4068 10.0763 27.4087 11.8896L24.1729 17.4475Z" stroke="currentColor" stroke-miterlimit="10" stroke-linecap="round" stroke-linejoin="round"/>
<path d="M21.5254 41.4345V25.3018" stroke="currentColor" stroke-miterlimit="10" stroke-linecap="round" stroke-linejoin="round"/>
<path d="M26.4736 25.3018V41.4345" stroke="currentColor" stroke-miterlimit="10" stroke-linecap="round" stroke-linejoin="round"/>
<path d="M20.4297 25.148V17.502" stroke="currentColor" stroke-miterlimit="10" stroke-linecap="round" stroke-linejoin="round"/>
<path d="M27.5703 17.502V25.148" stroke="currentColor" stroke-miterlimit="10" stroke-linecap="round" stroke-linejoin="round"/>
</svg>
