<svg width="7" height="12" viewBox="0 0 7 12" fill="none" xmlns="http://www.w3.org/2000/svg">
<path d="M1.33334 11.8333C1.13863 11.8337 0.949931 11.7659 0.800004 11.6417C0.629582 11.5004 0.522381 11.2971 0.502057 11.0766C0.481733 10.8562 0.549955 10.6367 0.691671 10.4667L4.425 6.00001L0.825004 1.525C0.685196 1.35284 0.61978 1.13205 0.643242 0.911519C0.666703 0.690985 0.777105 0.488899 0.950004 0.350005C1.12431 0.196639 1.35469 0.122942 1.58565 0.14667C1.81661 0.170399 2.02719 0.289401 2.16667 0.475005L6.19167 5.47501C6.44444 5.78251 6.44444 6.22584 6.19167 6.53334L2.025 11.5333C1.85545 11.7379 1.59853 11.8493 1.33334 11.8333Z" fill="#363839"/>
</svg>
