<svg width="27" height="31" viewBox="0 0 27 31" fill="none" xmlns="http://www.w3.org/2000/svg">
<path d="M24.2812 18.0684L15.2651 27.083C12.3365 30.0121 7.58798 30.0124 4.65894 27.0838C1.72989 24.1552 1.72961 19.4066 4.6582 16.4776L17.3862 3.74954C19.1434 1.99191 21.9927 1.99163 23.7502 3.7488C25.5079 5.50598 25.5081 8.35528 23.751 10.1128L12.0835 21.7803C11.4901 22.3472 10.5558 22.3472 9.9624 21.7803C9.37793 21.1941 9.37793 20.2454 9.9624 19.6592L17.9164 11.7035C17.9201 11.7001 17.9236 11.6965 17.9272 11.6928C18.2171 11.397 18.2123 10.9222 17.9164 10.6324C17.6206 10.3424 17.1458 10.3473 16.856 10.6431L8.90186 18.5987L8.90076 18.5998C7.72989 19.7712 7.73044 21.67 8.90186 22.8408C10.0889 23.9739 11.957 23.9739 13.144 22.8408L24.8115 11.1734C27.1392 8.83273 27.1389 5.05142 24.8108 2.71115C22.4738 0.361994 18.6749 0.352014 16.3257 2.68899L3.59766 15.417C1.91025 17.1048 0.962311 19.3938 0.962311 21.7804C0.962311 26.751 4.99182 30.7804 9.9624 30.7803C12.3506 30.7871 14.6421 29.8375 16.3257 28.1436L25.3418 19.1289C25.3454 19.1254 25.3489 19.1218 25.3524 19.1182C25.6424 18.8224 25.6375 18.3476 25.3418 18.0577C25.046 17.7678 24.5712 17.7726 24.2812 18.0684Z" fill="black"/>
</svg>
