<?xml version="1.0" encoding="UTF-8"?>
<svg width="1440" height="900" viewBox="0 0 1440 900" fill="none" xmlns="http://www.w3.org/2000/svg">
  <rect width="1440" height="900" fill="#FFF8E7"/>
  <g opacity="0.1">
    <path d="M200 200C200 200 250 150 300 200C350 250 300 300 200 400C100 300 50 250 100 200C150 150 200 200 200 200Z" fill="#FFD700"/>
    <path d="M1000 400C1000 400 1050 350 1100 400C1150 450 1100 500 1000 600C900 500 850 450 900 400C950 350 1000 400 1000 400Z" fill="#FFD700"/>
    <path d="M600 700C600 700 650 650 700 700C750 750 700 800 600 900C500 800 450 750 500 700C550 650 600 700 600 700Z" fill="#FFD700"/>
  </g>
</svg>
