<svg width="32" height="32" viewBox="0 0 32 32" fill="none" xmlns="http://www.w3.org/2000/svg">
<path opacity="0.32" d="M5.77324 8C5.13162 8 4.58032 8.45847 4.46472 9.0896C2.64393 19.0299 2.33334 24 2.33334 24H29.6667C29.6667 24 29.356 19.0299 27.5353 9.0896C27.4197 8.45847 26.8684 8 26.2267 8H5.77324Z" fill="#868788"/>
<path fill-rule="evenodd" clip-rule="evenodd" d="M29.6667 24H2.33334C2.33334 24 2.33334 24.9267 2.40163 26.2338C2.4971 28.0612 3.94163 29.4481 5.77022 29.5173C7.80668 29.5945 11.0376 29.6667 16 29.6667C20.9624 29.6667 24.1933 29.5945 26.2298 29.5173C28.0584 29.4481 29.5029 28.0612 29.5984 26.2338C29.6667 24.9267 29.6667 24 29.6667 24Z" fill="#868788"/>
<path d="M16 1.33334C12.3181 1.33334 9.33334 4.31811 9.33334 8.00001H12C12 5.79087 13.7909 4.00001 16 4.00001C18.2091 4.00001 20 5.79087 20 8.00001H22.6667C22.6667 4.31811 19.6819 1.33334 16 1.33334Z" fill="#868788"/>
</svg>
