<svg width="36" height="36" viewBox="0 0 36 36" fill="none" xmlns="http://www.w3.org/2000/svg">
<path d="M15.5097 13.8397C15.621 13.8397 15.7278 13.7954 15.8065 13.7167C15.8852 13.638 15.9294 13.5312 15.9294 13.4199C15.9294 13.3086 15.8852 13.2018 15.8065 13.1231C15.7278 13.0444 15.621 13.0002 15.5097 13.0002H15.1561C15.0447 13.0002 14.938 13.0444 14.8593 13.1231C14.7805 13.2018 14.7363 13.3086 14.7363 13.4199C14.7363 13.5312 14.7805 13.638 14.8593 13.7167C14.938 13.7954 15.0447 13.8397 15.1561 13.8397H15.5097ZM6.3327 28.917V32.6065C6.3327 32.7178 6.37693 32.8245 6.45565 32.9033C6.53437 32.982 6.64114 33.0262 6.75246 33.0262H27.5706C27.6819 33.0262 27.7887 32.982 27.8674 32.9033C27.9461 32.8245 27.9904 32.7178 27.9904 32.6065C27.9904 32.4951 27.9461 32.3884 27.8674 32.3096C27.7887 32.2309 27.6819 32.1867 27.5706 32.1867H7.17222V28.917C7.174 27.3817 7.78463 25.9098 8.87018 24.8241C9.95573 23.7384 11.4276 23.1275 12.9629 23.1255H23.0372C24.5725 23.1275 26.0444 23.7384 27.1299 24.8241C28.2155 25.9098 28.8261 27.3817 28.8279 28.917V32.6065C28.8279 32.7178 28.8721 32.8245 28.9508 32.9033C29.0295 32.982 29.1363 33.0262 29.2476 33.0262C29.3589 33.0262 29.4657 32.982 29.5444 32.9033C29.6232 32.8245 29.6674 32.7178 29.6674 32.6065V28.917C29.6653 27.1592 28.9662 25.4739 27.7232 24.2308C26.4803 22.9877 24.7951 22.2883 23.0372 22.286H12.9629C11.205 22.2883 9.51978 22.9877 8.27684 24.2308C7.03391 25.4739 6.33475 27.1592 6.3327 28.917Z" fill="#868788"/>
<path d="M35.0799 17.2084C34.9686 17.2084 34.8618 17.2526 34.7831 17.3313C34.7044 17.41 34.6601 17.5168 34.6601 17.6281V27.8495C34.6594 28.3321 34.4787 28.7971 34.1532 29.1536C33.8278 29.51 33.3811 29.7322 32.9005 29.7766V11.032C32.9018 10.2851 32.7084 9.5507 32.3395 8.90127C31.9705 8.25183 31.4386 7.70976 30.7963 7.32847V4.63268C30.7959 4.22608 30.6342 3.83626 30.3466 3.54876C30.0591 3.26125 29.6693 3.09953 29.2627 3.09909H22.3477C22.2459 2.37913 21.888 1.72001 21.3395 1.24262C20.791 0.765223 20.0888 0.501565 19.3617 0.5H16.6386C15.9115 0.501565 15.2093 0.765223 14.6608 1.24262C14.1124 1.72001 13.7544 2.37913 13.6526 3.09909H6.73697C6.33037 3.09953 5.94054 3.26125 5.65302 3.54876C5.3655 3.83626 5.20378 4.22608 5.20334 4.63268V7.32814C4.56104 7.70942 4.02918 8.2515 3.66021 8.90093C3.29123 9.55036 3.09786 10.2847 3.09916 11.0317V17.2084H0.919761C0.808433 17.2084 0.701666 17.2526 0.622945 17.3313C0.544225 17.41 0.5 17.5168 0.5 17.6281V27.8495C0.501169 28.555 0.77086 29.2337 1.2543 29.7476C1.73773 30.2616 2.39867 30.5722 3.10285 30.6165C3.1225 31.9169 3.65242 33.1575 4.57837 34.0708C5.50431 34.984 6.75209 35.4969 8.05267 35.4987C8.164 35.4987 8.27077 35.4544 8.34949 35.3757C8.42821 35.297 8.47243 35.1902 8.47243 35.0789C8.47243 34.9676 8.42821 34.8608 8.34949 34.7821C8.27077 34.7034 8.164 34.6592 8.05267 34.6592C6.96196 34.6579 5.91627 34.2241 5.14502 33.4529C4.37376 32.6816 3.93993 31.636 3.93868 30.5453V11.032C3.93899 10.5211 4.05261 10.0166 4.27135 9.55484C4.49009 9.0931 4.80851 8.68561 5.20367 8.36173V9.52258C5.20575 10.6124 5.61958 11.6612 6.36225 12.4589C7.10492 13.2565 8.12158 13.7441 9.20853 13.8238V15.0999C9.21595 15.7233 9.4688 16.3186 9.91226 16.7568C10.3557 17.195 10.954 17.4407 11.5775 17.4407C12.2009 17.4407 12.7993 17.195 13.2427 16.7568C13.6862 16.3186 13.939 15.7233 13.9465 15.0999V11.6949C13.9502 11.3814 13.8917 11.0703 13.7743 10.7796C13.6569 10.489 13.483 10.2245 13.2627 10.0015C13.0423 9.77851 12.7799 9.60147 12.4906 9.48064C12.2014 9.35982 11.891 9.2976 11.5775 9.2976C11.264 9.2976 10.9536 9.35982 10.6644 9.48064C10.3751 9.60147 10.1127 9.77851 9.89232 10.0015C9.67197 10.2245 9.49807 10.489 9.38069 10.7796C9.26331 11.0703 9.20479 11.3814 9.20853 11.6949V12.9843C8.34418 12.9054 7.54047 12.5066 6.95488 11.866C6.36929 11.2253 6.04403 10.3892 6.04286 9.52124V4.63268C6.04304 4.44865 6.11622 4.27221 6.24636 4.14208C6.37649 4.01195 6.55294 3.93876 6.73697 3.93858H15.5096C15.621 3.93858 15.7277 3.89436 15.8065 3.81564C15.8852 3.73692 15.9294 3.63016 15.9294 3.51883C15.9294 3.40751 15.8852 3.30074 15.8065 3.22203C15.7277 3.14331 15.621 3.09909 15.5096 3.09909H14.5022C14.6001 2.60382 14.8666 2.1578 15.2564 1.83697C15.6462 1.51613 16.1351 1.34033 16.64 1.3395H19.3627C19.8676 1.34033 20.3565 1.51613 20.7463 1.83697C21.1361 2.1578 21.4026 2.60382 21.5005 3.09909H16.9926C16.8812 3.09909 16.7745 3.14331 16.6958 3.22203C16.617 3.30074 16.5728 3.40751 16.5728 3.51883C16.5728 3.63016 16.617 3.73692 16.6958 3.81564C16.7745 3.89436 16.8812 3.93858 16.9926 3.93858H29.263C29.4471 3.93876 29.6235 4.01195 29.7536 4.14208C29.8838 4.27221 29.957 4.44865 29.9571 4.63268V9.52124C29.9547 10.2272 29.7388 10.9159 29.3376 11.4969C28.9365 12.0778 28.3689 12.5238 27.7096 12.7761C27.6575 12.7953 27.6098 12.8246 27.5691 12.8623C27.5285 12.9 27.4957 12.9453 27.4727 12.9958C27.4497 13.0462 27.4369 13.1007 27.435 13.1562C27.4332 13.2116 27.4423 13.2668 27.462 13.3187C27.4816 13.3705 27.5113 13.418 27.5494 13.4583C27.5875 13.4986 27.6331 13.531 27.6838 13.5535C27.7345 13.5761 27.7891 13.5884 27.8445 13.5897C27.8999 13.591 27.9551 13.5813 28.0068 13.5612C28.8252 13.248 29.5297 12.6945 30.0276 11.9735C30.5256 11.2524 30.7937 10.3975 30.7967 9.52124V8.36173C31.1919 8.68582 31.5103 9.09354 31.729 9.55552C31.9477 10.0175 32.0612 10.5222 32.0613 11.0333V30.5466C32.0601 31.6373 31.6262 32.683 30.855 33.4542C30.0837 34.2254 29.038 34.6593 27.9473 34.6605H9.81365C9.70233 34.6605 9.59556 34.7047 9.51684 34.7834C9.43812 34.8622 9.39389 34.9689 9.39389 35.0802C9.39389 35.1916 9.43812 35.2983 9.51684 35.3771C9.59556 35.4558 9.70233 35.5 9.81365 35.5H27.9473C29.2479 35.4982 30.4957 34.9854 31.4216 34.0721C32.3476 33.1588 32.8775 31.9182 32.8971 30.6178C33.6013 30.5735 34.2623 30.2629 34.7457 29.749C35.2291 29.2351 35.4988 28.5564 35.5 27.8508V17.6281C35.5 17.573 35.4891 17.5183 35.468 17.4674C35.4469 17.4164 35.416 17.3702 35.3769 17.3312C35.3379 17.2922 35.2916 17.2613 35.2406 17.2402C35.1897 17.2191 35.1351 17.2083 35.0799 17.2084ZM1.33986 27.8495V18.0475H3.0995V29.7766C2.6189 29.7322 2.17219 29.51 1.84675 29.1536C1.52131 28.7971 1.34056 28.3321 1.33986 27.8495ZM10.048 11.6949C10.045 11.4921 10.0824 11.2908 10.1579 11.1026C10.2334 10.9144 10.3456 10.7431 10.4879 10.5987C10.6302 10.4542 10.7998 10.3395 10.9869 10.2613C11.174 10.183 11.3747 10.1426 11.5775 10.1426C11.7803 10.1426 11.981 10.183 12.1681 10.2613C12.3551 10.3395 12.5247 10.4542 12.6671 10.5987C12.8094 10.7431 12.9216 10.9144 12.9971 11.1026C13.0726 11.2908 13.1099 11.4921 13.1069 11.6949V15.0985C13.101 15.5002 12.9372 15.8835 12.651 16.1654C12.3649 16.4474 11.9792 16.6054 11.5775 16.6054C11.1757 16.6054 10.7901 16.4474 10.5039 16.1654C10.2178 15.8835 10.054 15.5002 10.048 15.0985V11.6949Z" fill="#868788"/>
<path d="M24.4223 17.4676C25.0505 17.467 25.6527 17.2172 26.0969 16.773C26.541 16.3289 26.7909 15.7267 26.7915 15.0986V11.6949C26.7841 11.0715 26.5312 10.4762 26.0877 10.038C25.6443 9.59978 25.046 9.35403 24.4225 9.35403C23.7991 9.35403 23.2007 9.59978 22.7573 10.038C22.3138 10.4762 22.061 11.0715 22.0535 11.6949V13.0001H16.9926C16.8812 13.0001 16.7745 13.0444 16.6958 13.1231C16.617 13.2018 16.5728 13.3086 16.5728 13.4199C16.5728 13.5312 16.617 13.638 16.6958 13.7167C16.7745 13.7954 16.8812 13.8396 16.9926 13.8396H22.0532V15.0986C22.0538 15.7267 22.3036 16.3289 22.7478 16.773C23.192 17.2172 23.7942 17.467 24.4223 17.4676ZM22.8927 11.6949C22.8897 11.4921 22.9271 11.2908 23.0026 11.1026C23.0781 10.9144 23.1903 10.7431 23.3326 10.5987C23.4749 10.4543 23.6445 10.3396 23.8316 10.2613C24.0186 10.183 24.2194 10.1427 24.4222 10.1427C24.625 10.1427 24.8257 10.183 25.0128 10.2613C25.1998 10.3396 25.3694 10.4543 25.5118 10.5987C25.6541 10.7431 25.7663 10.9144 25.8418 11.1026C25.9173 11.2908 25.9546 11.4921 25.9516 11.6949V15.0986C25.9546 15.3013 25.9173 15.5026 25.8418 15.6908C25.7663 15.879 25.6541 16.0503 25.5118 16.1947C25.3694 16.3392 25.1998 16.4539 25.0128 16.5322C24.8257 16.6105 24.625 16.6508 24.4222 16.6508C24.2194 16.6508 24.0186 16.6105 23.8316 16.5322C23.6445 16.4539 23.4749 16.3392 23.3326 16.1947C23.1903 16.0503 23.0781 15.879 23.0026 15.6908C22.9271 15.5026 22.8897 15.3013 22.8927 15.0986V11.6949Z" fill="#868788"/>
</svg>
