<svg width="28" height="28" viewBox="0 0 28 28" fill="none" xmlns="http://www.w3.org/2000/svg">
<path d="M0 14C0 6.26801 6.26801 0 14 0C21.732 0 28 6.26801 28 14C28 21.732 21.732 28 14 28C6.26801 28 0 21.732 0 14Z" fill="white"/>
<path d="M0.5 14C0.5 6.54416 6.54416 0.5 14 0.5C21.4558 0.5 27.5 6.54416 27.5 14C27.5 21.4558 21.4558 27.5 14 27.5C6.54416 27.5 0.5 21.4558 0.5 14Z" stroke="#919EAB" stroke-opacity="0.6"/>
<path d="M15.3723 19.25C15.1453 19.2508 14.9302 19.1487 14.7873 18.9725L11.1648 14.4725C10.9373 14.1957 10.9373 13.7967 11.1648 13.52L14.9148 9.01998C15.1799 8.70104 15.6533 8.65738 15.9723 8.92248C16.2912 9.18758 16.3349 9.66104 16.0698 9.97998L12.7173 14L15.9573 18.02C16.1445 18.2448 16.184 18.5579 16.0583 18.8222C15.9327 19.0864 15.6648 19.2534 15.3723 19.25Z" fill="#363839"/>
</svg>
