<svg width="28" height="28" viewBox="0 0 28 28" fill="none" xmlns="http://www.w3.org/2000/svg">
<path d="M0 14C0 6.26801 6.26801 0 14 0C21.732 0 28 6.26801 28 14C28 21.732 21.732 28 14 28C6.26801 28 0 21.732 0 14Z" fill="white"/>
<path d="M0.5 14C0.5 6.54416 6.54416 0.5 14 0.5C21.4558 0.5 27.5 6.54416 27.5 14C27.5 21.4558 21.4558 27.5 14 27.5C6.54416 27.5 0.5 21.4558 0.5 14Z" stroke="#919EAB" stroke-opacity="0.6"/>
<path d="M12.5 19.25C12.3248 19.2503 12.1549 19.1893 12.02 19.0775C11.8666 18.9503 11.7701 18.7674 11.7519 18.569C11.7336 18.3706 11.795 18.1731 11.9225 18.02L15.2825 14L12.0425 9.9725C11.9167 9.81756 11.8578 9.61884 11.8789 9.42036C11.9 9.22188 11.9994 9.04001 12.155 8.915C12.3119 8.77697 12.5192 8.71064 12.7271 8.732C12.935 8.75336 13.1245 8.86046 13.25 9.0275L16.8725 13.5275C17.1 13.8043 17.1 14.2032 16.8725 14.48L13.1225 18.98C12.9699 19.1641 12.7387 19.2644 12.5 19.25Z" fill="#363839"/>
</svg>
