<svg width="19" height="19" viewBox="0 0 19 19" fill="none" xmlns="http://www.w3.org/2000/svg">
<g clip-path="url(#clip0_6_5232)">
<path d="M15.4189 4.79248L15.4364 4.80983L15.4189 4.79248Z" fill="#CB8A18"/>
<path d="M15.5753 5.0563C15.5597 5.04079 15.5597 5.02528 15.5441 5.00977C15.5597 5.00977 15.5597 5.04079 15.5753 5.0563Z" fill="#CB8A18"/>
<path d="M15.8255 5.52151C15.8412 5.56804 15.8724 5.61457 15.8881 5.66111C15.9037 5.67662 15.9037 5.70764 15.9194 5.72315L15.935 5.73866C15.9663 5.8007 15.9819 5.84723 16.0132 5.90927C15.9819 5.84723 15.9663 5.78519 15.935 5.73866L15.9194 5.72315C15.9037 5.70764 15.9037 5.67662 15.8881 5.66111C15.8724 5.61457 15.8568 5.56804 15.8255 5.52151C15.8099 5.49049 15.8099 5.47498 15.7943 5.45947C15.8099 5.49049 15.8255 5.506 15.8255 5.52151Z" fill="#CB8A18"/>
<path d="M15.1374 4.38907C15.1844 4.43561 15.2156 4.49765 15.2625 4.54418C15.2156 4.49765 15.1687 4.43561 15.1374 4.38907L15.1062 4.35805C15.0905 4.34254 15.0749 4.32703 15.0749 4.31152C15.0905 4.32703 15.1062 4.34254 15.1062 4.35805L15.1374 4.38907Z" fill="#D29D47"/>
<path d="M14.7621 3.93945L14.8091 3.98598L14.8247 4.00149L14.7934 3.98598L14.7621 3.93945Z" fill="#D29D47"/>
<path d="M14.5432 3.69135L14.5119 3.66033C14.4806 3.64482 14.465 3.6138 14.4494 3.58278C14.4806 3.62931 14.5119 3.66033 14.5432 3.69135Z" fill="#D29D47"/>
<path d="M14.6527 3.81534L14.6214 3.78432L14.6057 3.76881C14.637 3.78432 14.6527 3.79983 14.6527 3.81534Z" fill="#D29D47"/>
<path d="M14.1992 3.36572L14.2148 3.38123L14.2304 3.39674L14.1992 3.36572Z" fill="#D29D47"/>
<path d="M13.9646 3.16386L13.9334 3.13284C13.9021 3.11733 13.8864 3.08631 13.8552 3.0708C13.8864 3.10182 13.9334 3.13284 13.9646 3.16386Z" fill="#E4C44D"/>
<path d="M14.1992 3.36555C14.1679 3.35004 14.1523 3.31902 14.1366 3.30351C14.1054 3.288 14.0897 3.25698 14.0584 3.24147L14.0428 3.22596L14.0272 3.21045C14.0428 3.22596 14.0584 3.24147 14.0741 3.24147C14.1054 3.27249 14.1523 3.31902 14.1992 3.36555Z" fill="#E4C44D"/>
<path d="M13.8239 3.05543L13.8082 3.02441V3.03992L13.8239 3.05543Z" fill="#DCAA12"/>
<path d="M13.6362 2.90016C13.6206 2.88465 13.6049 2.88465 13.5893 2.86914C13.6049 2.88465 13.6206 2.90016 13.6362 2.90016Z" fill="#DCAA12"/>
<path d="M12.4634 2.20215L12.4947 2.21766H12.479L12.4634 2.20215Z" fill="#CB8A18"/>
<path d="M12.2601 2.10938L12.2913 2.12489C12.307 2.1404 12.3383 2.1404 12.3539 2.15591C12.3695 2.17142 12.3852 2.17142 12.4008 2.17142C12.3852 2.15591 12.3695 2.15591 12.3539 2.15591C12.3383 2.1404 12.3226 2.1404 12.307 2.12489L12.2601 2.10938Z" fill="#CB8A18"/>
<path d="M12.7449 2.34194C12.7292 2.32643 12.7136 2.32643 12.698 2.31092C12.698 2.32643 12.7136 2.32643 12.7449 2.34194Z" fill="#CB8A18"/>
<path d="M13.1514 2.57471C13.1671 2.59022 13.1827 2.59022 13.1983 2.60573C13.1827 2.60573 13.1671 2.59022 13.1514 2.57471Z" fill="#CB8A18"/>
<path d="M13.3078 2.66748C13.3391 2.68299 13.3704 2.6985 13.4016 2.72952C13.3547 2.71401 13.3234 2.6985 13.3078 2.66748Z" fill="#D29D47"/>
<path d="M13.4642 2.77637C13.5111 2.80739 13.558 2.83841 13.5893 2.86943C13.5424 2.83841 13.4954 2.80739 13.4642 2.77637Z" fill="#D29D47"/>
<path d="M0.218959 11.7413C0.203321 11.6793 0.187683 11.6172 0.187683 11.5552C0.203321 11.6172 0.218959 11.6793 0.218959 11.7413Z" fill="#F9D656"/>
<path d="M0.046936 8.73216C0.0625739 8.65461 0.0625739 8.57706 0.0782118 8.49951C0.0625739 8.57706 0.046936 8.65461 0.046936 8.73216Z" fill="#F9D656"/>
<path d="M0.172023 11.462C0.156385 11.4 0.156385 11.3379 0.140747 11.2759C0.140747 11.3379 0.156385 11.4 0.172023 11.462Z" fill="#F9D656"/>
<path d="M0.015625 9.29053C0.015625 9.19747 0.0312629 9.11992 0.0312629 9.02686C0.015625 9.11992 0.015625 9.19747 0.015625 9.29053Z" fill="#F9D656"/>
<path d="M0.03125 8.98033C0.03125 8.90278 0.0468879 8.82522 0.0468879 8.76318C0.03125 8.84073 0.03125 8.91829 0.03125 8.98033Z" fill="#F9D656"/>
<path d="M0.328385 12.1443C0.29711 12.0203 0.265834 11.9117 0.234558 11.7876C0.265834 11.9117 0.29711 12.0358 0.328385 12.1443Z" fill="#F9D656"/>
<path d="M0.62554 13.0441C0.609902 12.9821 0.578626 12.9201 0.562988 12.8735C0.578626 12.9356 0.594264 12.9821 0.62554 13.0441Z" fill="#F9D656"/>
<path d="M0.719351 13.2922C0.688075 13.2302 0.672437 13.1836 0.656799 13.1216C0.672437 13.1836 0.703713 13.2302 0.719351 13.2922Z" fill="#F9D656"/>
<path d="M0.406594 12.4083C0.390956 12.3462 0.375318 12.2842 0.35968 12.2222C0.35968 12.2842 0.390956 12.3462 0.406594 12.4083Z" fill="#F9D656"/>
<path d="M9.38269 17.0303C9.16376 17.0458 8.94483 17.0613 8.7259 17.0613C8.64771 17.0613 8.55388 17.0613 8.47569 17.0613L7.66252 18.5193C7.64689 18.5193 7.63125 18.5193 7.61561 18.5193C7.5687 18.5193 7.52178 18.5037 7.49051 18.5037C7.45923 18.5037 7.42796 18.4882 7.38104 18.4882C7.41232 18.4882 7.44359 18.5037 7.49051 18.5037C7.53742 18.5037 7.58433 18.5193 7.61561 18.5193C7.64689 18.5193 7.67816 18.5348 7.72508 18.5348C7.77199 18.5348 7.8189 18.5503 7.86582 18.5503C7.89709 18.5503 7.92837 18.5503 7.95964 18.5658C8.00656 18.5658 8.05347 18.5658 8.10038 18.5813C8.13166 18.5813 8.16294 18.5813 8.19421 18.5813C8.24112 18.5813 8.30368 18.5813 8.35059 18.5813C8.38187 18.5813 8.3975 18.5813 8.42878 18.5813C8.50697 18.5813 8.58516 18.5813 8.66335 18.5813C8.61643 18.5813 8.56952 18.5813 8.50697 18.5813L9.38269 17.0303Z" fill="#F9D656"/>
<path d="M4.0033 1.799C4.17531 1.67492 4.36297 1.55084 4.55062 1.42676C4.36297 1.55084 4.19095 1.67492 4.0033 1.799Z" fill="#F9D656"/>
<path d="M0.078186 8.49963C0.0938239 8.42208 0.0938239 8.32902 0.109462 8.25146C0.0938239 8.32902 0.078186 8.40657 0.078186 8.49963Z" fill="#F9D656"/>
<path d="M3.29959 14.5949C3.28395 14.5794 3.26831 14.5639 3.26831 14.5483C3.28395 14.5639 3.29959 14.5794 3.29959 14.5949Z" fill="#F9D656"/>
<path d="M1.0321 6.59192L2.20494 4.49805C2.07984 4.66866 1.95474 4.85478 1.84527 5.0409C1.53252 5.53723 1.26667 6.04907 1.0321 6.59192Z" fill="#F9D656"/>
<path d="M11.1029 1.72156C11.0716 1.72156 11.056 1.70605 11.0247 1.70605C11.0404 1.70605 11.056 1.72156 11.0716 1.72156H11.1029Z" fill="#F9D656"/>
<path d="M10.9465 1.69069C10.9152 1.67518 10.8839 1.67518 10.837 1.67518C10.8058 1.67518 10.7901 1.65967 10.7745 1.65967C10.8058 1.65967 10.8214 1.67518 10.837 1.67518C10.8683 1.67518 10.9152 1.67518 10.9465 1.69069Z" fill="#F9D656"/>
<path d="M11.1342 1.72168C11.1654 1.72168 11.1967 1.73719 11.2123 1.73719C11.1967 1.73719 11.1654 1.73719 11.1342 1.72168Z" fill="#F9D656"/>
<path d="M8.94487 18.5654C8.85105 18.5654 8.75722 18.5654 8.66339 18.5654C8.75722 18.5809 8.85105 18.5809 8.94487 18.5654Z" fill="#F9D656"/>
<path d="M6.2395 18.2397C6.27078 18.2553 6.30205 18.2553 6.33333 18.2708C6.38024 18.2863 6.41152 18.3018 6.45843 18.3018C6.41152 18.2863 6.38024 18.2863 6.33333 18.2708C6.30205 18.2553 6.27078 18.2397 6.2395 18.2397Z" fill="#F9D656"/>
<path d="M9.57035 18.5347C9.47652 18.5502 9.39833 18.5502 9.3045 18.5502C9.38269 18.5502 9.47652 18.5347 9.57035 18.5347Z" fill="#F9D656"/>
<path d="M5.59833 18.0229C5.6296 18.0385 5.64524 18.0385 5.67652 18.054C5.64524 18.0385 5.61397 18.0229 5.59833 18.0229Z" fill="#F9D656"/>
<path d="M9.86748 18.4883C9.77365 18.5038 9.67983 18.5193 9.586 18.5193C9.66419 18.5193 9.77365 18.5038 9.86748 18.4883Z" fill="#F9D656"/>
<path d="M10.149 18.457C10.0551 18.4725 9.97694 18.4881 9.88312 18.5036C9.97694 18.4725 10.0551 18.4725 10.149 18.457Z" fill="#F9D656"/>
<path d="M10.0551 1.55067C10.0864 1.55067 10.1333 1.55067 10.1646 1.56618C10.1959 1.56618 10.2271 1.56618 10.2584 1.58169C10.2271 1.58169 10.1959 1.56618 10.1646 1.56618C10.1333 1.55067 10.102 1.55067 10.0551 1.55067C10.0238 1.55067 10.0082 1.55067 9.97693 1.53516C10.0082 1.53516 10.0238 1.53516 10.0551 1.55067Z" fill="#F9D656"/>
<path d="M6.73993 18.3638C6.75557 18.3638 6.77121 18.3793 6.78684 18.3793C6.77121 18.3638 6.75557 18.3638 6.73993 18.3638Z" fill="#F9D656"/>
<path d="M9.22636 18.5503C9.16381 18.5503 9.08562 18.5658 9.02307 18.5658C9.08562 18.5658 9.14817 18.5658 9.22636 18.5503Z" fill="#F9D656"/>
<path d="M1.48561 14.7034C1.45434 14.6569 1.42306 14.5949 1.39178 14.5483C1.40742 14.5949 1.45434 14.6569 1.48561 14.7034Z" fill="#F9D656"/>
<path d="M1.51687 8.80947C1.75144 6.48294 2.95556 4.43559 4.707 3.10172L5.61399 1.47314C5.58272 1.48865 5.5358 1.50416 5.50453 1.53519C5.12922 1.75233 4.76955 1.96947 4.42552 2.23314C4.22222 2.38825 4.01893 2.54335 3.81564 2.71396L2.41143e-06 9.55396C-0.0156354 10.1433 0.0312781 10.7172 0.140743 11.2756L1.51687 8.80947Z" fill="#F9D656"/>
<path d="M2.33001 15.7892C2.25182 15.7116 2.18927 15.6186 2.11108 15.541C2.18927 15.6341 2.25182 15.7116 2.33001 15.7892Z" fill="#F9D656"/>
<path d="M4.2066 15.4637L4.19096 15.4482C4.17533 15.4326 4.15969 15.4171 4.14405 15.4171L4.12841 15.4016L4.0815 15.3551C4.06586 15.3396 4.05022 15.3241 4.01895 15.3086L3.98767 15.2775L3.9564 15.2465C3.92512 15.2155 3.89384 15.1845 3.86257 15.1535L3.83129 15.1224L3.81566 15.1069L3.0494 16.4718C2.97121 16.3943 2.87738 16.3322 2.79919 16.2547C3.15887 16.5959 3.53417 16.8906 3.9564 17.1543C3.78438 17.0302 3.61236 16.9216 3.44035 16.782L4.2066 15.4637Z" fill="#F9D656"/>
<path d="M1.59509 4.90104C1.98604 4.17206 2.50209 3.50512 3.08069 2.93124L3.48727 2.21777C1.7202 3.70675 0.469168 5.83165 0.109497 8.23573L0.797563 7.01043C0.953942 6.28145 1.23542 5.56798 1.59509 4.90104Z" fill="#F9D656"/>
<path d="M2.92428 14.1141L2.90864 14.0986L2.893 14.0676C2.87737 14.052 2.86173 14.021 2.84609 14.0055C2.83045 13.99 2.81481 13.9745 2.81481 13.959C2.79918 13.928 2.7679 13.8969 2.73662 13.8504L2.72099 13.8194L2.70535 13.8039L2.68971 13.7729C2.65844 13.7108 2.61152 13.6643 2.58025 13.6023C2.56461 13.5867 2.56461 13.5712 2.54897 13.5557L2.53333 13.5402L2.51769 13.4937C2.50206 13.4782 2.48642 13.4472 2.48642 13.4316C2.48642 13.4161 2.45514 13.3851 2.45514 13.3696C2.43951 13.3386 2.42387 13.3076 2.39259 13.2765L2.37695 13.2455L2.36132 13.2145L2.34568 13.1835V13.168L1.4856 14.688C1.67325 14.9827 1.89218 15.2618 2.11111 15.5255L2.92428 14.1141Z" fill="#F9D656"/>
<path d="M11.2123 1.75245C11.2436 1.76796 11.2749 1.76796 11.3218 1.78347C11.3531 1.79898 11.3687 1.79898 11.4 1.79898C11.4313 1.81449 11.4625 1.81449 11.5095 1.83C11.5407 1.84551 11.5564 1.84551 11.5877 1.86102C11.6033 1.86102 11.6189 1.87653 11.6502 1.87653C11.6658 1.87653 11.6815 1.89204 11.6971 1.89204C11.7284 1.90755 11.744 1.90755 11.7753 1.92306C11.8066 1.93857 11.8535 1.95408 11.9004 1.96959C11.8691 1.95408 11.8379 1.93857 11.8066 1.93857L12.5572 0.589184C12.4321 0.542653 12.3226 0.496123 12.1975 0.465102C12.1663 0.449592 12.1193 0.434082 12.0881 0.434082L11.3218 1.79898C11.2749 1.76796 11.2436 1.75245 11.2123 1.75245Z" fill="#F9D656"/>
<path d="M1.70454 11.4929L1.6889 11.4619L1.70454 11.4929V11.5084V11.4929Z" fill="#F9D656"/>
<path d="M3.09631 14.3467L3.11381 14.364H3.09631V14.3467Z" fill="#F9D656"/>
<path d="M2.18933 12.8735L2.20497 12.9046L2.18933 12.8735Z" fill="#F9D656"/>
<path d="M5.37941 1.3028C5.53578 1.22524 5.67652 1.1632 5.8329 1.10116L6.09875 0.651367C5.56706 0.86851 5.05101 1.13218 4.5506 1.44239L4.25348 1.96973C4.61315 1.70606 4.98846 1.48892 5.37941 1.3028Z" fill="#F9D656"/>
<path d="M1.92346 12.2529L1.9391 12.2839V12.2684L1.92346 12.2529Z" fill="#F9D656"/>
<path d="M9.36711 1.51989C9.42966 1.51989 9.50785 1.51989 9.5704 1.51989C9.58604 1.51989 9.61732 1.51989 9.63295 1.51989C9.67987 1.51989 9.72678 1.51989 9.77369 1.51989C9.80497 1.51989 9.82061 1.51989 9.85188 1.51989C9.88316 1.51989 9.91444 1.51989 9.94571 1.51989H9.97699H9.96135L10.7745 0.0774362C10.4305 0.0309056 10.0865 -0.015625 9.72678 -0.015625L8.8667 1.50438C9.02308 1.51989 9.19509 1.51989 9.36711 1.51989Z" fill="#F9D656"/>
<path d="M1.34486 14.4866C1.31359 14.4401 1.28231 14.3781 1.25104 14.3315C1.28231 14.3781 1.31359 14.4246 1.34486 14.4866Z" fill="#F9D656"/>
<path d="M12.1506 17.8678L13.5893 15.3086C13.5737 15.3241 13.558 15.3396 13.5267 15.3551C13.3704 15.4792 13.214 15.5878 13.0576 15.7119C12.9951 15.7584 12.9169 15.8049 12.8543 15.8515C12.6354 15.991 12.4008 16.1306 12.1506 16.2547L11.0247 18.271C10.7432 18.3486 10.4617 18.4106 10.1802 18.4572C11.0247 18.3176 11.8379 18.0539 12.5885 17.6817C12.4477 17.7437 12.307 17.8057 12.1506 17.8678Z" fill="#F9D656"/>
<path d="M12.5885 17.6658C12.6511 17.6348 12.7136 17.6038 12.7762 17.5728C12.7292 17.6038 12.6667 17.6348 12.5885 17.6658Z" fill="#F9D656"/>
<path d="M18.0773 8.20465C18.0773 8.23567 18.0773 8.25118 18.0773 8.2822C18.0773 8.32873 18.0773 8.35975 18.0773 8.40628L15.888 12.2993C15.8411 12.4234 15.7786 12.532 15.716 12.6561C15.6535 12.7646 15.5909 12.8732 15.5284 12.9973C15.4189 13.1834 15.3094 13.3695 15.1843 13.5402L12.995 17.4642C12.9325 17.4953 12.8543 17.5418 12.7917 17.5728C15.7942 16.0373 17.921 12.9042 18.0773 9.29036C18.0773 9.18179 18.0773 9.08873 18.093 8.98016C18.093 8.94914 18.093 8.93363 18.093 8.90261C18.093 8.80955 18.093 8.71648 18.093 8.62342V8.5924C18.093 8.48383 18.0773 8.39077 18.0773 8.2822C18.0773 8.25118 18.0773 8.22016 18.0773 8.20465C18.0773 8.15812 18.0773 8.11159 18.0617 8.08057C18.0617 8.11159 18.0773 8.15812 18.0773 8.20465Z" fill="#F9D656"/>
<path d="M16.2634 6.57632C16.2321 6.46775 16.2008 6.35917 16.1539 6.26611C16.1852 6.35917 16.2165 6.46775 16.2634 6.57632Z" fill="#F9D656"/>
<path d="M16.5136 8.37539C16.5136 8.32886 16.498 8.26682 16.498 8.22028C16.5449 8.60804 16.5449 8.99579 16.5292 9.39906C16.5136 9.66273 16.498 9.9109 16.4667 10.1591L18.0461 7.47579C18.0461 7.4913 18.0461 7.50682 18.0617 7.52233C18.0461 7.44477 18.0305 7.36722 18.0148 7.28967C18.0148 7.27416 17.9992 7.24314 17.9992 7.22763C17.9835 7.11906 17.9523 7.026 17.9366 6.93294C17.9366 6.90192 17.921 6.88641 17.921 6.8709C17.9054 6.79335 17.8897 6.70028 17.8584 6.62273C17.8584 6.59171 17.8428 6.5762 17.8428 6.54518C17.8115 6.45212 17.7959 6.35906 17.7646 6.25049L16.5136 8.37539Z" fill="#F9D656"/>
<path d="M15.935 5.73868C15.9663 5.80072 15.9819 5.84726 16.0132 5.9093C15.9819 5.86277 15.9663 5.80072 15.935 5.73868Z" fill="#F9D656"/>
<path d="M14.9185 4.12549L14.9654 4.17202L14.9185 4.12549Z" fill="#F9D656"/>
<path d="M14.7621 3.93945L14.7934 3.97047L14.8091 3.98598C14.8247 4.00149 14.8403 4.017 14.856 4.03251C14.8403 4.00149 14.8091 3.98598 14.7934 3.95496L14.7621 3.93945Z" fill="#F9D656"/>
<path d="M14.684 3.84622C14.6683 3.83071 14.6527 3.79969 14.6214 3.78418L14.6527 3.8152L14.684 3.84622Z" fill="#F9D656"/>
<path d="M15.372 4.73068C15.3407 4.69966 15.3251 4.65313 15.2938 4.62211C15.3251 4.68415 15.372 4.73068 15.4033 4.79272L15.4189 4.80823C15.4658 4.87027 15.4971 4.93231 15.5284 4.99435C15.544 5.00986 15.544 5.02537 15.5597 5.04088C15.6066 5.10292 15.6379 5.18047 15.6848 5.24252C15.716 5.30456 15.763 5.38211 15.7942 5.44415C15.8099 5.45966 15.8099 5.47517 15.8255 5.49068L16.6856 3.95517C16.7169 4.01721 16.7638 4.07925 16.7951 4.14129C16.7481 4.06374 16.7012 4.0017 16.67 3.92415L16.6543 3.89313C16.6074 3.81558 16.5449 3.73803 16.4979 3.66047C16.4823 3.64496 16.4667 3.62945 16.451 3.59843C16.4041 3.53639 16.3572 3.47435 16.3103 3.41231L16.279 3.36578C16.2477 3.33476 16.2165 3.28823 16.1852 3.2417L15.372 4.73068Z" fill="#F9D656"/>
<path d="M14.121 3.30363C14.0897 3.28812 14.0741 3.25709 14.0428 3.24158C14.0741 3.25709 14.1054 3.28812 14.121 3.30363Z" fill="#F9D656"/>
<path d="M13.8082 3.02441L13.8395 3.03992L13.8708 3.05543C13.9021 3.07094 13.9177 3.08645 13.949 3.11748C13.9177 3.08645 13.8864 3.05543 13.8551 3.03992L13.8082 3.02441Z" fill="#F9D656"/>
<path d="M12.2601 2.10903L12.2914 2.12454C12.2445 2.10903 12.1975 2.07801 12.1506 2.0625C12.1975 2.07801 12.2288 2.09352 12.2601 2.10903Z" fill="#F9D656"/>
<path d="M12.4634 2.20215L12.4809 2.2195L12.4634 2.20215Z" fill="#F9D656"/>
<path d="M12.4164 2.18678C12.3852 2.17127 12.3695 2.17127 12.3383 2.15576C12.3539 2.17127 12.3695 2.17127 12.3852 2.17127L12.4164 2.18678Z" fill="#F9D656"/>
<path d="M14.2305 1.45766C14.1992 1.44215 14.1835 1.42664 14.1679 1.41113C14.1835 1.42664 14.2148 1.44215 14.2305 1.45766Z" fill="#F9D656"/>
<path d="M13.1514 2.57471C13.1671 2.59022 13.1827 2.59022 13.1983 2.60573C13.2296 2.62124 13.2609 2.63675 13.2922 2.66777H13.3078C13.3391 2.68328 13.3704 2.69879 13.4016 2.72981C13.3391 2.68328 13.2765 2.65226 13.214 2.60573C13.1827 2.60573 13.1671 2.59022 13.1514 2.57471Z" fill="#F9D656"/>
<path d="M15.2157 2.2176C15.1531 2.17107 15.0906 2.10903 15.0436 2.0625C15.1062 2.10903 15.1687 2.17107 15.2157 2.2176Z" fill="#F9D656"/>
<path d="M13.4017 2.72949C13.4173 2.745 13.4329 2.76051 13.4642 2.77602C13.5111 2.80704 13.5581 2.83806 13.5893 2.86908C13.5268 2.82255 13.4642 2.77602 13.4017 2.72949Z" fill="#F9D656"/>
<path d="M2.70532 13.8042L2.72282 13.8216H2.70532V13.8042Z" fill="#F1BB16"/>
<path d="M2.5177 13.5093L2.53334 13.5403V13.5248L2.5177 13.5093Z" fill="#F1BB16"/>
<path d="M2.37694 10.5003C2.36131 10.4847 2.33003 10.4847 2.31439 10.4692C2.34567 10.4847 2.36131 10.5003 2.37694 10.5003Z" fill="#F1BB16"/>
<path d="M11.9786 5.97145L11.963 5.94043L11.9786 5.97145Z" fill="#F1BB16"/>
<path d="M4.08148 15.3706L4.11276 15.3861L4.08148 15.3706Z" fill="#F1BB16"/>
<path d="M2.89301 14.0679L2.90864 14.0989L2.89301 14.0834V14.0679Z" fill="#F1BB16"/>
<path d="M1.93909 12.2841L1.95472 12.3151C1.95472 12.2996 1.93909 12.2841 1.93909 12.2686V12.2841Z" fill="#F1BB16"/>
<path d="M4.17529 15.4482L4.20657 15.4638L4.17529 15.4482Z" fill="#F1BB16"/>
<path d="M2.36133 13.2144L2.37697 13.2454L2.36133 13.2144Z" fill="#F1BB16"/>
<path d="M12.1663 16.2392C12.4008 16.1151 12.6354 15.991 12.87 15.8359C12.6354 15.9755 12.4008 16.1151 12.1663 16.2392Z" fill="#F1BB16"/>
<path d="M13.0576 15.6963C12.9951 15.7428 12.9169 15.7894 12.8543 15.8359C12.9325 15.7894 12.9951 15.7428 13.0576 15.6963Z" fill="#F1BB16"/>
<path d="M14.2461 14.7053L14.2636 14.688L14.2461 14.7053Z" fill="#F1BB16"/>
<path d="M15.9037 12.2993C15.8568 12.4234 15.7942 12.532 15.7317 12.6561C15.7942 12.5475 15.8412 12.4234 15.9037 12.2993Z" fill="#F1BB16"/>
<path d="M16.1383 6.25026H16.1539H16.1383V6.23475V6.21924V6.25026Z" fill="#F1BB16"/>
<path d="M15.5753 5.0563C15.6223 5.11834 15.6535 5.19589 15.7004 5.25793C15.6535 5.19589 15.6066 5.11834 15.5753 5.0563C15.5597 5.04079 15.5597 5.02528 15.5441 5.00977C15.5597 5.00977 15.5597 5.04079 15.5753 5.0563Z" fill="#F1BB16"/>
<path d="M15.8255 5.52151C15.8412 5.56804 15.8724 5.61457 15.8881 5.66111C15.8724 5.61457 15.8568 5.56804 15.8255 5.52151C15.8099 5.506 15.8099 5.49049 15.7943 5.45947C15.8099 5.49049 15.8255 5.506 15.8255 5.52151Z" fill="#F1BB16"/>
<path d="M15.1375 4.38933C15.1844 4.43586 15.2156 4.4979 15.2626 4.54443C15.2156 4.4979 15.1687 4.43586 15.1375 4.38933L15.1062 4.35831C15.0905 4.3428 15.0749 4.32729 15.0749 4.31178L15.0593 4.28076C15.0749 4.31178 15.1062 4.32729 15.1218 4.35831C15.1062 4.35831 15.1375 4.38933 15.1375 4.38933Z" fill="#F1BB16"/>
<path d="M14.2305 3.39686C14.293 3.44339 14.3399 3.50543 14.4025 3.55196L14.4338 3.58298C14.4807 3.62951 14.5276 3.67604 14.5745 3.72257L14.5432 3.69155C14.512 3.66053 14.4807 3.62951 14.4494 3.58298L14.4181 3.55196C14.3556 3.50543 14.293 3.44339 14.2305 3.39686Z" fill="#F1BB16"/>
<path d="M13.5893 2.86914C13.6049 2.88465 13.6206 2.88465 13.6362 2.90016C13.6206 2.90016 13.6049 2.88465 13.5893 2.86914Z" fill="#F1BB16"/>
<path d="M1.70454 11.4929L1.6889 11.4619L1.70454 11.4929Z" fill="#F1BB16"/>
<path d="M13.8239 3.05518C13.8708 3.10171 13.9333 3.13273 13.9802 3.17926L13.9646 3.16375C13.9333 3.13273 13.8864 3.10171 13.8551 3.07069L13.8239 3.05518Z" fill="#F1BB16"/>
<path d="M2.53333 13.5249V13.5404L2.54896 13.5559L2.53333 13.5249Z" fill="#EEAE1A"/>
<path d="M2.37695 13.2456L2.39259 13.2766L2.37695 13.2611V13.2456Z" fill="#EEAE1A"/>
<path d="M3.09631 14.3467L3.11195 14.3622C3.12759 14.3777 3.14323 14.3932 3.14323 14.4087C3.12759 14.3932 3.11195 14.3777 3.09631 14.3467Z" fill="#EEAE1A"/>
<path d="M2.89301 14.083L2.90864 14.0985L2.92428 14.114L2.89301 14.083Z" fill="#EEAE1A"/>
<path d="M4.01892 15.3086C4.03456 15.3241 4.0502 15.3396 4.08147 15.3551L4.11275 15.3861C4.08147 15.3706 4.0502 15.3396 4.01892 15.3086Z" fill="#EEAE1A"/>
<path d="M5.36377 16.2393L5.39505 16.2548L5.37941 16.2393H5.36377Z" fill="#EEAE1A"/>
<path d="M7.78766 14.2227L7.81893 14.2382L7.78766 14.2227Z" fill="#EEAE1A"/>
<path d="M9.38269 16.9993C10.3679 16.9062 11.3062 16.6425 12.1662 16.2083C12.4008 16.0842 12.6354 15.9601 12.8699 15.805C12.9325 15.7585 13.0107 15.7119 13.0732 15.6654C13.2296 15.5568 13.4016 15.4328 13.5424 15.3087C13.558 15.2932 13.5736 15.2777 13.6049 15.2621C13.6831 15.2001 13.7457 15.1381 13.8238 15.076L13.8395 15.0605C13.9802 14.9364 14.121 14.7968 14.2617 14.6572L14.2773 14.6417C14.4806 14.4246 14.6839 14.2074 14.8716 13.9748C14.9967 13.8197 15.1218 13.6491 15.2313 13.494C15.3564 13.3234 15.4658 13.1372 15.5753 12.9511C15.6378 12.8425 15.7004 12.734 15.7629 12.6099C15.8255 12.4858 15.8724 12.3772 15.935 12.2532C15.9662 12.1756 16.0131 12.0825 16.0444 12.005C16.0444 11.9895 16.0601 11.974 16.0601 11.9585C16.0913 11.8809 16.1226 11.7879 16.1539 11.7103V11.6948C16.1852 11.6172 16.2164 11.5242 16.2477 11.4466L16.2634 11.4156C16.2946 11.3225 16.3259 11.2295 16.3415 11.1519C16.3728 11.0589 16.3885 10.9658 16.4197 10.8728V10.8572C16.4979 10.5625 16.5448 10.2679 16.5917 9.97316C16.623 9.74051 16.6387 9.49234 16.6543 9.24418C16.6699 8.85643 16.6543 8.48418 16.623 8.12745C16.623 8.09643 16.623 8.06541 16.6074 8.03438C16.5917 7.92581 16.5761 7.81724 16.5605 7.70867C16.5605 7.67765 16.5448 7.64663 16.5448 7.63112C16.5292 7.53806 16.5136 7.46051 16.4979 7.36745C16.4979 7.33643 16.4823 7.30541 16.4823 7.27439C16.451 7.16581 16.4354 7.05724 16.4041 6.94867C16.4041 6.93316 16.3885 6.91765 16.3885 6.90214C16.3572 6.80908 16.3415 6.71602 16.3103 6.62296C16.2946 6.59194 16.2946 6.56092 16.279 6.52989C16.2477 6.42132 16.2164 6.31275 16.1695 6.21969L16.1539 6.18867C16.1383 6.15765 16.1382 6.14214 16.1226 6.11112C16.107 6.06459 16.0913 6.03357 16.0757 5.98704C16.0757 5.97153 16.0601 5.95602 16.0601 5.94051C16.0444 5.925 16.0444 5.90949 16.0444 5.89398C16.0131 5.83194 15.9975 5.7699 15.9662 5.72336L15.9506 5.70785C15.935 5.69234 15.935 5.66132 15.9193 5.64581C15.9037 5.59928 15.8724 5.55275 15.8568 5.50622C15.8411 5.49071 15.8411 5.4752 15.8255 5.44418C15.7942 5.38214 15.7629 5.30459 15.716 5.24255C15.6848 5.165 15.6378 5.10296 15.5909 5.04092C15.5753 5.02541 15.5753 5.0099 15.5596 4.99439C15.5284 4.93234 15.4815 4.8703 15.4502 4.82377L15.4345 4.80826C15.4033 4.74622 15.3564 4.69969 15.3251 4.63765L15.3094 4.60663C15.2938 4.59112 15.2782 4.57561 15.2782 4.5601C15.2469 4.49806 15.2 4.45153 15.1531 4.405L15.1218 4.37398C15.1062 4.34296 15.0905 4.32745 15.0592 4.29643C15.028 4.26541 14.9967 4.21887 14.981 4.18785L14.9498 4.14132C14.9341 4.1103 14.9029 4.09479 14.8872 4.06377C14.8716 4.04826 14.8559 4.03275 14.8403 4.01724L14.8247 4.00173L14.7934 3.97071C14.7621 3.93969 14.7465 3.90867 14.7152 3.87765L14.6839 3.84663C14.6683 3.83112 14.6527 3.81561 14.637 3.8001L14.6057 3.76908C14.5588 3.72255 14.5119 3.67602 14.465 3.62949L14.4337 3.59847C14.3868 3.53643 14.3243 3.48989 14.2617 3.44336L14.2461 3.42785L14.2304 3.41234C14.1835 3.36581 14.1366 3.33479 14.0897 3.28826C14.0741 3.27275 14.0584 3.25724 14.0428 3.25724L14.0115 3.24173C13.9646 3.1952 13.902 3.16418 13.8551 3.11765L13.8395 3.10214L13.8238 3.08663C13.7769 3.0401 13.7144 3.00908 13.6518 2.96255C13.6362 2.94704 13.6206 2.93153 13.6049 2.93153C13.558 2.90051 13.5111 2.86949 13.4798 2.83847C13.4642 2.82296 13.4485 2.80745 13.4173 2.79194H13.4016C13.3391 2.7454 13.2765 2.71438 13.214 2.66785L13.1983 2.65234C13.214 2.68336 13.2452 2.69887 13.2609 2.72989L13.2922 2.76092C13.3391 2.80745 13.3703 2.85398 13.4173 2.90051C13.4329 2.91602 13.4485 2.93153 13.4485 2.94704C13.4955 3.00908 13.5424 3.05561 13.5736 3.11765L13.5893 3.13316C13.6206 3.17969 13.6675 3.24173 13.6987 3.28826C13.7144 3.30377 13.7144 3.31928 13.73 3.33479C13.7769 3.39683 13.8082 3.45887 13.8551 3.52092C13.8864 3.58296 13.9333 3.645 13.9646 3.69153C13.9802 3.70704 13.9802 3.72255 13.9959 3.73806C14.0271 3.8001 14.0584 3.86214 14.0897 3.90867L14.1053 3.92418C14.1366 3.97071 14.1522 4.01724 14.1835 4.07928C14.1992 4.09479 14.1992 4.1103 14.1992 4.12581L14.2148 4.17234C14.2461 4.23438 14.2617 4.28092 14.293 4.34296L14.3086 4.37398V4.38949C14.6527 5.19602 14.8247 6.09561 14.7778 7.04173C14.6839 9.04255 13.6518 10.8262 12.0724 12.0825C11.8378 13.2613 10.9465 14.2074 9.82055 14.5021L9.78928 15.3862H8.33496L8.13167 15.2156L8.16294 14.3625C8.06911 14.3315 7.97529 14.285 7.88146 14.2385L7.69381 14.1454H7.70944C7.67817 14.1299 7.63125 14.1144 7.59998 14.0989L7.58434 14.0834C7.53743 14.0523 7.47488 14.0213 7.42796 13.9903C7.38105 13.9593 7.3185 13.9283 7.27158 13.8817L7.25595 13.8662C7.20903 13.8352 7.16212 13.7887 7.1152 13.7577C7.03702 13.7577 6.95883 13.7577 6.88064 13.7577C5.3794 13.7577 4.00327 13.3544 2.84607 12.6874C3.45595 14.3315 4.59751 15.6809 6.06747 16.5185C6.09874 16.534 6.13002 16.5495 6.14566 16.5495L6.1613 16.565C6.23949 16.596 6.33331 16.627 6.4115 16.6581H6.42714C6.52097 16.6891 6.61479 16.7201 6.70862 16.7511C6.80245 16.7821 6.88064 16.7977 6.97446 16.8287H7.00574C7.19339 16.8752 7.36541 16.9062 7.55306 16.9372H7.58434C7.772 16.9683 7.95965 16.9838 8.16294 16.9993H8.19422C8.28804 17.0148 8.38187 17.0148 8.4757 17.0148C8.55389 17.0148 8.64772 17.0148 8.7259 17.0148C8.94483 17.0303 9.16376 17.0148 9.38269 16.9993Z" fill="#EEAE1A"/>
<path d="M4.20657 15.4638L4.22221 15.4793L4.17529 15.4482L4.20657 15.4638Z" fill="#EEAE1A"/>
<path d="M2.70532 13.8193H2.72096L2.7366 13.8504L2.70532 13.8193Z" fill="#EEAE1A"/>
<path d="M4.42549 15.6342V15.6497H4.44113L4.40985 15.6187L4.42549 15.6342Z" fill="#EEAE1A"/>
<path d="M5.12922 16.0996L5.14486 16.1151H5.1605L5.11359 16.0996H5.12922Z" fill="#EEAE1A"/>
<path d="M10.2271 14.1299C10.149 14.1764 10.0551 14.2074 9.9613 14.254C10.0708 14.2074 10.149 14.1609 10.2271 14.1299Z" fill="#EEAE1A"/>
<path d="M3.44036 14.7501L3.47164 14.7811C3.456 14.7656 3.44036 14.7501 3.44036 14.7501Z" fill="#EEAE1A"/>
<path d="M3.26831 14.564C3.28395 14.5795 3.29959 14.595 3.29959 14.6105C3.28395 14.5795 3.26831 14.564 3.26831 14.564Z" fill="#EEAE1A"/>
<path d="M15.2782 16.9834C15.5753 16.7508 15.8724 16.4871 16.1383 16.2234C16.4041 15.9597 16.6543 15.665 16.8889 15.3703C16.9671 15.2773 17.0453 15.1687 17.1235 15.0757C17.1391 15.0601 17.1547 15.0446 17.1547 15.0291C17.2642 14.874 17.3737 14.7189 17.4831 14.5483C17.8272 14.0055 18.1087 13.4316 18.3432 12.8422C18.4058 12.6871 18.4527 12.5475 18.4996 12.3924C18.5309 12.2993 18.5622 12.2063 18.5934 12.1132C18.8124 11.3532 18.9531 10.5622 19 9.74014C19 9.64708 19 9.53851 19 9.44545C19 9.33688 19 9.24382 19 9.13525V9.10423C18.9844 8.25117 18.8436 7.44463 18.6091 6.66912C18.5778 6.59157 18.5622 6.49851 18.5309 6.42096C18.4996 6.34341 18.4683 6.25035 18.437 6.1728C18.2494 5.64545 17.9992 5.13361 17.7177 4.6528C17.577 4.42014 17.4362 4.203 17.2798 4.00137C17.1547 3.83076 17.014 3.64463 16.8733 3.48953C16.7794 3.38096 16.6856 3.2879 16.5918 3.17933C16.5761 3.16382 16.5605 3.14831 16.5292 3.11729C15.9663 2.5279 15.3251 2.03157 14.6214 1.6128C14.4181 1.50423 14.2148 1.39565 14.0115 1.28708L13.7613 1.163L13.2766 0.930349L13.1358 0.821777L13.1671 0.837288C13.2453 0.868308 13.3078 0.914839 13.386 0.945859C13.4017 0.961369 13.4329 0.976879 13.4486 0.976879C13.5268 1.02341 13.6206 1.06994 13.6988 1.11647L13.7144 1.13198C13.7926 1.17851 13.8708 1.22504 13.949 1.27157C13.9646 1.28708 13.9959 1.30259 14.0115 1.30259C14.0584 1.33361 14.121 1.36463 14.1679 1.41117C14.1836 1.42668 14.2148 1.44219 14.2305 1.4577H14.2461C14.3243 1.50423 14.4025 1.56627 14.4807 1.6128C14.4963 1.62831 14.5119 1.64382 14.5432 1.65933C14.6058 1.70586 14.6683 1.75239 14.7309 1.81443L14.7622 1.82994C14.8403 1.89198 14.9029 1.95402 14.9811 2.00055C14.9967 2.01606 15.0124 2.03157 15.028 2.04708C15.0905 2.09361 15.1531 2.15565 15.2 2.20219L15.2313 2.23321C15.2938 2.29525 15.372 2.35729 15.4346 2.41933C15.4502 2.43484 15.4659 2.45035 15.4815 2.46586C15.5284 2.5279 15.591 2.57443 15.6379 2.63647C15.6535 2.65198 15.6691 2.66749 15.6848 2.683C15.7473 2.74504 15.7943 2.80708 15.8568 2.86912L15.8724 2.88463C15.8881 2.90014 15.9037 2.91565 15.9037 2.93116C15.9506 2.99321 15.9975 3.05525 16.0601 3.10178C16.0757 3.11729 16.0914 3.1328 16.107 3.14831C16.1383 3.17933 16.1539 3.21035 16.1852 3.25688C16.2165 3.2879 16.2477 3.33443 16.279 3.38096L16.3103 3.42749C16.3572 3.48953 16.4041 3.55157 16.451 3.61361C16.4667 3.62912 16.4823 3.64463 16.498 3.67566C16.5449 3.75321 16.6074 3.83076 16.6543 3.90831L16.67 3.93933C16.7169 4.01688 16.7638 4.07892 16.7951 4.15647C16.8107 4.17198 16.8263 4.203 16.8263 4.21851C16.8733 4.29606 16.9202 4.37361 16.9671 4.46668V4.48219C17.014 4.55974 17.0609 4.63729 17.0922 4.73035C17.1078 4.74586 17.1078 4.77688 17.1235 4.79239C17.1547 4.86994 17.2017 4.94749 17.2329 5.02504L17.2486 5.04055C17.2798 5.13361 17.3268 5.21117 17.358 5.30423C17.3737 5.33525 17.3737 5.35076 17.3893 5.36627C17.4206 5.44382 17.4519 5.52137 17.4831 5.59892L17.4988 5.64545C17.5301 5.73851 17.5613 5.83157 17.5926 5.92463C17.6082 5.95566 17.6082 5.97117 17.6082 5.98668C17.6395 6.06423 17.6552 6.14178 17.6864 6.21933C17.6864 6.23484 17.7021 6.25035 17.7021 6.28137C17.7333 6.37443 17.749 6.46749 17.7803 6.56055C17.7803 6.57606 17.7959 6.60708 17.7959 6.62259C17.8115 6.70015 17.8272 6.7777 17.8584 6.85525C17.8584 6.87076 17.8741 6.90178 17.8741 6.91729C17.8897 7.01035 17.9054 7.10341 17.9366 7.19647C17.9366 7.21198 17.9366 7.243 17.9523 7.25851C17.9679 7.33606 17.9836 7.41361 17.9836 7.49117V7.50668C17.9836 7.5377 17.9992 7.55321 17.9992 7.58423C18.0148 7.67729 18.0305 7.78586 18.0305 7.87892C18.0305 7.89443 18.0305 7.90994 18.0305 7.92545C18.0305 7.97198 18.0461 8.01851 18.0461 8.04953C18.0461 8.09606 18.0617 8.14259 18.0617 8.17361C18.0617 8.20463 18.0617 8.22015 18.0617 8.25117C18.0617 8.35974 18.0774 8.4528 18.0774 8.56137V8.59239C18.0774 8.68545 18.0774 8.77851 18.0774 8.87157C18.0774 8.90259 18.0774 8.9181 18.0774 8.94912C18.0774 9.0577 18.0774 9.15076 18.0617 9.25933C17.9054 12.8732 15.7786 16.0063 12.7761 17.5418L12.7605 17.5573C12.698 17.5883 12.6354 17.6193 12.5729 17.6503H12.5572C11.8066 18.0071 10.9934 18.2708 10.149 18.4259H10.1177C10.0239 18.4414 9.94569 18.4569 9.85186 18.4724H9.83623C9.7424 18.4879 9.64857 18.5034 9.55474 18.5034C9.46092 18.5189 9.38273 18.5189 9.2889 18.5344C9.25763 18.5344 9.24199 18.5344 9.21071 18.5344C9.14816 18.5344 9.06997 18.5499 9.00742 18.5499C8.97614 18.5499 8.96051 18.5499 8.92923 18.5499C8.8354 18.5499 8.74158 18.5499 8.64775 18.5499C8.56956 18.5499 8.49137 18.5499 8.41318 18.5499C8.38191 18.5499 8.36627 18.5499 8.33499 18.5499C8.28808 18.5499 8.22553 18.5499 8.17861 18.5499C8.14734 18.5499 8.11606 18.5499 8.08479 18.5499C8.03787 18.5499 7.99096 18.5499 7.94405 18.5344C7.91277 18.5344 7.88149 18.5344 7.85022 18.5189C7.8033 18.5189 7.75639 18.5034 7.70948 18.5034C7.6782 18.5034 7.64693 18.4879 7.60001 18.4879C7.5531 18.4879 7.50619 18.4724 7.47491 18.4724C7.44363 18.4724 7.41236 18.4569 7.36544 18.4569C7.31853 18.4569 7.28726 18.4414 7.24034 18.4414C7.20907 18.4414 7.17779 18.4259 7.13088 18.4259C7.08396 18.4103 7.05269 18.4103 7.00577 18.3948C6.9745 18.3948 6.94322 18.3793 6.89631 18.3793C6.88067 18.3793 6.8494 18.3638 6.83376 18.3638C6.81812 18.3638 6.78684 18.3483 6.77121 18.3483C6.75557 18.3483 6.73993 18.3328 6.72429 18.3328C6.70865 18.3328 6.69302 18.3173 6.67738 18.3173C6.63047 18.3018 6.59919 18.3018 6.55228 18.2863C6.521 18.2708 6.48972 18.2708 6.45845 18.2552C6.41154 18.2397 6.38026 18.2397 6.33335 18.2242C6.30207 18.2087 6.27079 18.2087 6.23952 18.1932C6.19261 18.1777 6.16133 18.1622 6.11442 18.1622C6.08314 18.1467 6.05186 18.1467 6.02059 18.1312C5.97368 18.1157 5.9424 18.1001 5.89549 18.0846C5.86421 18.0691 5.83293 18.0691 5.80166 18.0536C5.75474 18.0381 5.70783 18.0226 5.66092 18.0071C5.62964 17.9916 5.614 17.9916 5.58273 17.9761C5.53582 17.9606 5.47326 17.9295 5.42635 17.914C5.41071 17.8985 5.39507 17.8985 5.37944 17.8985C5.30125 17.8675 5.2387 17.8365 5.17614 17.8055C5.16051 17.7899 5.14487 17.7899 5.12923 17.7744C5.08232 17.7434 5.01977 17.7279 4.97285 17.7124H4.95721L5.84857 18.1467C6.9745 18.674 8.22553 18.9687 9.55474 18.9687C11.0716 18.9687 12.5103 18.581 13.7926 17.914C14.3087 17.6814 14.8091 17.3557 15.2782 16.9834Z" fill="#8F6112"/>
<path d="M8.05352 14.3156L8.02224 14.3001L7.99097 14.2846L7.95969 14.2691L7.92842 14.2536C7.91278 14.2536 7.89714 14.2381 7.8815 14.2381C7.85023 14.2226 7.83459 14.2226 7.81895 14.2071L7.78767 14.1916L7.7564 14.176C7.74076 14.1605 7.72512 14.1605 7.70949 14.145H7.69385L7.8815 14.2381C7.97533 14.2846 8.06916 14.3156 8.16298 14.3622V14.3311C8.13171 14.3467 8.08479 14.3311 8.05352 14.3156Z" fill="#E1991C"/>
<path d="M8.53827 12.8735C8.6321 12.9046 8.72592 12.9201 8.81975 12.9356C8.71029 12.9201 8.61646 12.9046 8.53827 12.8735Z" fill="#F9D656"/>
<path d="M6.6774 13.3387C6.64612 13.2922 6.59921 13.2301 6.56793 13.1836C6.59921 13.2456 6.63048 13.2922 6.6774 13.3387Z" fill="#F9D656"/>
<path d="M12.1193 6.77792C12.1193 6.71588 12.1193 6.65384 12.1037 6.5918C12.1037 6.65384 12.1193 6.71588 12.1193 6.77792Z" fill="#F9D656"/>
<path d="M12.1037 6.54501C12.1037 6.48297 12.0881 6.42093 12.0724 6.35889C12.0881 6.42093 12.0881 6.48297 12.1037 6.54501Z" fill="#F9D656"/>
<path d="M12.0724 6.3281C12.0568 6.26606 12.0411 6.20402 12.0411 6.15749V6.14197V6.12646C12.0411 6.20402 12.0568 6.26606 12.0724 6.3281Z" fill="#F9D656"/>
<path d="M12.0255 6.12644C12.0099 6.0644 11.9942 6.01787 11.9786 5.95583L11.963 5.9248C11.9786 6.00236 12.0099 6.0644 12.0255 6.12644Z" fill="#F9D656"/>
<path d="M7.08398 13.7886C7.03706 13.7421 6.99015 13.7111 6.94324 13.6646C6.99015 13.6956 7.03706 13.7421 7.08398 13.7886Z" fill="#F9D656"/>
<path d="M7.09961 13.8042C7.14652 13.8507 7.19344 13.8817 7.24035 13.9128C7.19344 13.8817 7.14652 13.8352 7.09961 13.8042Z" fill="#F9D656"/>
<path d="M6.80247 13.5091C6.75556 13.4626 6.72428 13.416 6.67737 13.354C6.72428 13.4005 6.7712 13.4626 6.80247 13.5091Z" fill="#F9D656"/>
<path d="M9.50781 12.8266C9.586 12.7956 9.67983 12.7491 9.75802 12.687C9.67983 12.7335 9.60164 12.7801 9.50781 12.8266Z" fill="#F9D656"/>
<path d="M8.05352 14.3157C8.08479 14.3312 8.13171 14.3467 8.17862 14.3467C8.11607 14.3312 8.05352 14.3157 7.99097 14.2847L8.02224 14.3002L8.05352 14.3157Z" fill="#F9D656"/>
<path d="M9.61731 14.3467C9.6955 14.3312 9.77369 14.3002 9.85188 14.2847C9.77369 14.3157 9.6955 14.3312 9.61731 14.3467Z" fill="#F9D656"/>
<path d="M7.41236 14.0368C7.36545 14.0058 7.3029 13.9748 7.25598 13.9282C7.31853 13.9592 7.36545 13.9903 7.41236 14.0368Z" fill="#F9D656"/>
<path d="M7.59998 14.1299C7.63125 14.1454 7.67817 14.1609 7.70944 14.1764C7.72508 14.1919 7.74072 14.1919 7.75635 14.2074C7.70944 14.1919 7.66253 14.1609 7.59998 14.1299Z" fill="#F9D656"/>
<path d="M7.89711 14.2693C7.91275 14.2693 7.92839 14.2848 7.94402 14.2848L7.9753 14.3003C7.91275 14.2848 7.86584 14.2538 7.80328 14.2383L7.83456 14.2538C7.8502 14.2538 7.86583 14.2538 7.89711 14.2693Z" fill="#F9D656"/>
<path d="M9.60167 15.0449L9.49221 15.2466H8.13171H9.58603L9.60167 15.0449Z" fill="#F9D656"/>
<path d="M2.33005 13.1834C2.28313 13.0904 2.23622 12.9973 2.18931 12.9043V12.8732C2.14239 12.7802 2.11112 12.6871 2.0642 12.5941L2.04857 12.5785C2.01729 12.4855 1.98601 12.4079 1.9391 12.3149L1.92346 12.2839V12.2528C1.89219 12.1598 1.86091 12.0667 1.82964 11.9737C1.814 11.9116 1.78272 11.8341 1.76708 11.772C1.76708 11.7565 1.75145 11.741 1.75145 11.7255C1.73581 11.6634 1.72017 11.5859 1.70453 11.5239V11.5083V11.4928L1.6889 11.4618C1.67326 11.4308 1.67326 11.3843 1.65762 11.3532C1.65762 11.3222 1.64198 11.3067 1.64198 11.2757C1.62634 11.2292 1.62634 11.1826 1.61071 11.1361C1.61071 11.1206 1.61071 11.1051 1.59507 11.0896C1.57943 11.012 1.56379 10.9345 1.54815 10.8569C1.54815 10.8259 1.54815 10.8104 1.53252 10.7949C1.53252 10.7794 1.53252 10.7483 1.51688 10.7328C1.51688 10.7018 1.50124 10.6863 1.50124 10.6553C1.50124 10.6243 1.4856 10.5777 1.4856 10.5467C1.4856 10.5157 1.4856 10.5002 1.46997 10.4692C1.46997 10.4226 1.45433 10.3916 1.45433 10.3451V10.3296C1.45433 10.3141 1.45433 10.2986 1.45433 10.283C1.45433 10.252 1.45433 10.221 1.45433 10.19C1.45433 10.1434 1.45433 10.0814 1.43869 10.0349C1.43869 10.0194 1.43869 10.0039 1.43869 9.98835C1.43869 9.95733 1.43869 9.92631 1.43869 9.9108C1.43869 9.89528 1.43869 9.87977 1.43869 9.84875C1.43869 9.81773 1.43869 9.81773 1.43869 9.78671V9.7712C1.43869 9.74018 1.43869 9.72467 1.43869 9.69365C1.43869 9.64712 1.43869 9.60059 1.43869 9.55406C1.43869 9.53855 1.43869 9.50753 1.43869 9.49202C1.43869 9.42998 1.43869 9.35243 1.43869 9.29039C1.43869 9.21284 1.45433 9.13528 1.45433 9.05773V9.04222C1.45433 8.96467 1.46997 8.88712 1.46997 8.80957L0.140747 11.2757C0.156385 11.3377 0.156385 11.3998 0.172023 11.4618C0.172023 11.4928 0.187661 11.5239 0.187661 11.5549C0.203299 11.6169 0.218936 11.679 0.218936 11.741C0.218936 11.7565 0.218936 11.772 0.234574 11.7875C0.26585 11.9116 0.297126 12.0202 0.328401 12.1443C0.328401 12.1753 0.344039 12.1908 0.344039 12.2218C0.359677 12.2839 0.375315 12.3459 0.390953 12.4079C0.390953 12.439 0.406591 12.4545 0.422229 12.4855C0.453504 12.6096 0.500418 12.7337 0.547331 12.8577V12.8732C0.562969 12.9353 0.594245 12.9973 0.609883 13.0439C0.625521 13.0749 0.625521 13.0904 0.641159 13.1214C0.672434 13.1834 0.688072 13.23 0.70371 13.292L0.719348 13.323C0.766261 13.4316 0.828813 13.5557 0.875726 13.6643C0.891364 13.6953 0.891364 13.7108 0.907002 13.7263C0.938278 13.7728 0.953916 13.8349 0.985192 13.8969C1.00083 13.9279 1.01647 13.9434 1.01647 13.959C1.07902 14.0675 1.14157 14.1761 1.20412 14.2847L1.25104 14.3312C1.28231 14.3777 1.31359 14.4398 1.34486 14.4863C1.3605 14.5173 1.37614 14.5328 1.39178 14.5483C1.42305 14.5949 1.45433 14.6569 1.4856 14.7034L2.33005 13.1834Z" fill="#FBDE7F"/>
<path d="M7.92842 0.573878C7.11525 0.79102 6.34899 1.08571 5.62965 1.47347L4.72266 3.10204C4.87903 2.99347 5.01978 2.8849 5.17615 2.77633C5.33253 2.66776 5.48891 2.57469 5.64529 2.48163C5.80167 2.38857 5.97368 2.31102 6.1457 2.23347C6.31772 2.15592 6.48973 2.07837 6.66175 2.01633C6.83377 1.95429 7.00578 1.89224 7.19344 1.8302C7.38109 1.76816 7.55311 1.72163 7.74076 1.69061C8.11607 1.61306 8.49138 1.55102 8.86669 1.52L9.72677 0C9.63294 0 9.53912 0 9.44529 0C9.3671 0 9.28891 0 9.21072 0C9.17945 0 9.16381 0 9.13253 0C9.08562 0 9.02307 0 8.97615 0C8.94488 0 8.9136 0 8.88233 0C8.83541 0 8.7885 0 8.74159 0.0155102C8.71031 0.0155102 8.67903 0.0155102 8.64776 0.0155102C8.60085 0.0155102 8.56957 0.0310204 8.52266 0.0310204C8.49138 0.0310204 8.4601 0.0465306 8.42883 0.0465306C8.38192 0.0465306 8.35064 0.0620408 8.30373 0.0620408C8.27245 0.0620408 8.24117 0.077551 8.2099 0.077551C8.16299 0.077551 8.13171 0.0930612 8.0848 0.0930612C8.05352 0.0930612 8.02224 0.108571 7.99097 0.108571C7.94406 0.108571 7.91278 0.124082 7.86587 0.124082C7.85023 0.139592 7.81895 0.155102 7.77204 0.155102C7.74076 0.155102 7.69385 0.170612 7.64694 0.170612C7.61566 0.170612 7.58438 0.186122 7.55311 0.186122C7.52183 0.186122 7.47492 0.201633 7.42801 0.217143C7.39673 0.217143 7.36545 0.232653 7.33418 0.232653C7.3029 0.248163 7.25599 0.248163 7.20908 0.263673C7.1778 0.263673 7.14652 0.279184 7.11525 0.294694C7.08397 0.310204 7.03706 0.310204 6.99015 0.325714C6.95887 0.341224 6.92759 0.341224 6.89632 0.356735C6.8494 0.372245 6.81813 0.387755 6.77122 0.387755C6.73994 0.403265 6.70866 0.403265 6.67739 0.418776C6.63048 0.434286 6.5992 0.449796 6.55229 0.465306C6.52101 0.480816 6.48973 0.480816 6.4741 0.496327C6.42718 0.511837 6.38027 0.527347 6.34899 0.542857C6.31772 0.558367 6.30208 0.558367 6.2708 0.573878C6.20825 0.604898 6.1457 0.620408 6.08315 0.651429H6.09879L5.84858 1.10122C6.50537 0.822041 7.20908 0.651429 7.92842 0.573878Z" fill="#FBDE7F"/>
<path d="M3.81563 15.1378C3.75308 15.0758 3.69053 15.0137 3.62798 14.9672C3.56543 14.9052 3.51851 14.8586 3.4716 14.7966L3.44032 14.7501V14.7346C3.39341 14.688 3.36214 14.6415 3.31522 14.595C3.29958 14.5794 3.28395 14.5639 3.28395 14.5484L3.26831 14.5329C3.23703 14.4864 3.20576 14.4554 3.15884 14.4088C3.14321 14.3933 3.12757 14.3778 3.12757 14.3623V14.3468V14.3313C3.06502 14.2537 3.00246 14.1762 2.95555 14.0986L2.15802 15.5256C2.23621 15.6186 2.29876 15.6962 2.37695 15.7737C2.45514 15.8513 2.53333 15.9288 2.61152 16.0064V16.0219C2.68971 16.0994 2.7679 16.177 2.84609 16.239L2.86172 16.2546C2.93991 16.3321 3.0181 16.4097 3.11193 16.4717L3.81563 15.1378Z" fill="#FBDE7F"/>
<path d="M9.97695 1.53534C10.0082 1.53534 10.0395 1.53534 10.0708 1.55085C10.1021 1.55085 10.149 1.56636 10.1802 1.56636C10.2115 1.56636 10.2428 1.56636 10.2741 1.58187C10.3053 1.58187 10.3523 1.59738 10.3835 1.59738C10.4148 1.59738 10.4461 1.61289 10.4774 1.61289C10.493 1.61289 10.5086 1.61289 10.5243 1.6284C10.5399 1.6284 10.5556 1.6284 10.5712 1.64391C10.6025 1.64391 10.6337 1.65942 10.665 1.65942C10.6963 1.65942 10.7276 1.67493 10.7745 1.67493H10.7901C10.8214 1.67493 10.837 1.69044 10.8527 1.69044C10.884 1.70595 10.9152 1.70595 10.9621 1.70595C10.9934 1.70595 11.0247 1.72146 11.0403 1.72146C11.0716 1.72146 11.0872 1.73697 11.1185 1.73697L11.1498 1.75248C11.1811 1.76799 11.2123 1.76799 11.228 1.76799C11.2593 1.7835 11.2905 1.7835 11.3218 1.7835L12.0881 0.418603C11.9942 0.387582 11.9004 0.356562 11.7909 0.325541C11.7597 0.310031 11.744 0.310031 11.7128 0.310031C11.6189 0.279011 11.5251 0.2635 11.4313 0.23248H11.4156C11.1967 0.185949 10.9778 0.139419 10.7588 0.108398L9.94568 1.55085L9.97695 1.53534Z" fill="#FBDE7F"/>
<path d="M16.5605 10.0196C16.5292 10.3143 16.4667 10.609 16.3885 10.9037V10.9192C16.3572 11.0123 16.3415 11.1053 16.3103 11.1984C16.279 11.2915 16.2634 11.3845 16.2321 11.4621L16.2164 11.4931C16.1852 11.5862 16.1539 11.6637 16.1226 11.7413V11.7568C16.0913 11.8498 16.0601 11.9274 16.0288 12.0049C16.0288 12.0204 16.0132 12.036 16.0132 12.0515C15.9819 12.129 15.9506 12.2221 15.9037 12.2996L18.093 8.39106C18.093 8.34453 18.093 8.31351 18.093 8.26698C18.093 8.23596 18.093 8.22045 18.093 8.18943C18.093 8.1429 18.0773 8.09637 18.0773 8.06535C18.0773 8.01882 18.0773 7.97229 18.0617 7.94127C18.0617 7.92576 18.0617 7.91025 18.0617 7.89474C18.0461 7.80167 18.0461 7.6931 18.0304 7.60004C18.0304 7.56902 18.0304 7.55351 18.0148 7.52249V7.50698C18.0148 7.49147 18.0148 7.47596 17.9992 7.46045L16.5605 10.0196Z" fill="#FBDE7F"/>
<path d="M15.2157 13.5405C15.1062 13.7111 14.9811 13.8662 14.856 14.0213C14.6683 14.254 14.4807 14.4711 14.2617 14.6883L14.2461 14.7038C14.1054 14.8434 13.9646 14.9675 13.8239 15.1071L13.8082 15.1226C13.7301 15.1846 13.6675 15.2466 13.5893 15.3087L12.1506 17.8679C12.2914 17.8058 12.4321 17.7438 12.5729 17.6818H12.5885C12.651 17.6507 12.7136 17.6197 12.7761 17.5887L12.7918 17.5732C12.8543 17.5422 12.9325 17.4956 12.9951 17.4646L15.2157 13.5405Z" fill="#FBDE7F"/>
<path d="M3.20579 2.80717C3.53419 2.49696 3.87822 2.21778 4.23789 1.96961L4.25353 1.9541L4.55065 1.42676C4.36299 1.55084 4.17534 1.67492 4.00332 1.799C3.83131 1.93859 3.65929 2.06268 3.48727 2.20227L3.08069 2.91574C3.1276 2.88472 3.17452 2.83819 3.20579 2.80717Z" fill="#FBDE7F"/>
<path d="M3.45595 3.07098C2.98682 3.50526 2.58023 4.00159 2.20493 4.51342L1.03209 6.59179C0.922621 6.85546 0.828794 7.10363 0.719329 7.3673C0.734967 7.24322 0.766242 7.11914 0.797518 6.99506L0.109452 8.22036C0.0938143 8.29791 0.0781764 8.39097 0.0781764 8.46853C0.0625386 8.54608 0.0625386 8.62363 0.0469007 8.70118V8.7322C0.0469007 8.80975 0.0312629 8.8873 0.0312629 8.94934V8.99587C0.0312629 9.07342 0.015625 9.16649 0.015625 9.25955C0.015625 9.35261 0.015625 9.43016 0.015625 9.52322L3.8469 2.69873C3.69052 2.83832 3.56542 2.94689 3.45595 3.07098Z" fill="#FBDE7F"/>
<path d="M5.17611 17.8364C5.23866 17.8675 5.31685 17.8985 5.3794 17.9295C5.39504 17.945 5.41068 17.945 5.42632 17.945C5.47323 17.9605 5.53578 17.9915 5.58269 18.0071C5.61397 18.0226 5.62961 18.0226 5.66088 18.0381C5.7078 18.0536 5.75471 18.0691 5.80162 18.0846C5.8329 18.1001 5.86418 18.1001 5.89545 18.1156C5.94237 18.1311 5.97364 18.1466 6.02055 18.1622C6.05183 18.1777 6.08311 18.1777 6.11438 18.1932C6.16129 18.2087 6.19257 18.2242 6.23948 18.2242C6.27076 18.2397 6.30204 18.2397 6.33331 18.2552C6.38023 18.2707 6.4115 18.2862 6.45841 18.2862C6.48969 18.3017 6.52097 18.3017 6.55224 18.3173C6.59916 18.3328 6.63043 18.3328 6.67734 18.3483C6.69298 18.3483 6.70862 18.3638 6.72426 18.3638C6.7399 18.3638 6.75553 18.3793 6.77117 18.3793C6.78681 18.3793 6.81809 18.3948 6.83372 18.3948C6.84936 18.3948 6.88064 18.4103 6.89627 18.4103C6.92755 18.4103 6.95883 18.4258 7.00574 18.4258C7.05265 18.4413 7.08393 18.4413 7.13084 18.4568C7.16212 18.4568 7.19339 18.4724 7.24031 18.4724C7.28722 18.4879 7.3185 18.4879 7.36541 18.4879C7.39669 18.4879 7.42796 18.5034 7.47488 18.5034C7.52179 18.5034 7.5687 18.5189 7.59998 18.5189C7.61562 18.5189 7.63125 18.5189 7.64689 18.5189L8.46006 17.0609C8.36623 17.0609 8.27241 17.0454 8.17858 17.0454H8.1473C7.95965 17.0299 7.75636 17.0144 7.5687 16.9834H7.53743C7.34977 16.9524 7.16212 16.9213 6.9901 16.8748H6.95883C6.865 16.8593 6.77117 16.8283 6.69298 16.7973C6.59916 16.7662 6.50533 16.7507 6.4115 16.7042H6.39586C6.31767 16.6732 6.22385 16.6422 6.14566 16.6111L6.13002 16.5956C6.09874 16.5801 6.06747 16.5646 6.05183 16.5646C6.00492 16.5491 5.94237 16.5181 5.89545 16.5026L5.87981 16.4871C5.7078 16.4095 5.55142 16.332 5.3794 16.2544L5.36376 16.2389C5.28557 16.2079 5.22302 16.1613 5.14483 16.1148L5.11356 16.0993C5.03537 16.0528 4.97282 16.0217 4.89463 15.9752L4.87899 15.9597C4.8008 15.9132 4.72261 15.8666 4.64442 15.8046C4.56623 15.7581 4.50368 15.696 4.42549 15.6495L4.40986 15.634L4.39422 15.6185C4.33167 15.572 4.26911 15.5254 4.20656 15.4789L4.19092 15.4634L3.44031 16.8128C3.61232 16.9368 3.78434 17.0609 3.95636 17.185C3.98763 17.2005 4.00327 17.216 4.03455 17.2315C4.08146 17.2626 4.12837 17.2936 4.17529 17.3246C4.23784 17.3711 4.31603 17.4022 4.37858 17.4487C4.40985 17.4642 4.44113 17.4797 4.47241 17.4952C4.53496 17.5262 4.58187 17.5573 4.64442 17.5883C4.6757 17.6038 4.70697 17.6193 4.72261 17.6348C4.8008 17.6813 4.89463 17.7279 4.97282 17.7589C5.01973 17.7899 5.06664 17.8054 5.1292 17.8209C5.14483 17.8209 5.16047 17.8209 5.17611 17.8364Z" fill="#FBDE7F"/>
<path d="M12.8231 0.682187C12.7292 0.635657 12.6354 0.604636 12.5416 0.558105L11.791 1.90749C11.8222 1.923 11.8535 1.93851 11.8848 1.93851C11.9004 1.95402 11.9317 1.95402 11.9473 1.95402C11.9942 1.96953 12.0568 2.00055 12.1037 2.01606H12.1193L12.1506 2.03157C12.1975 2.04709 12.2445 2.0626 12.2914 2.09362C12.307 2.10913 12.3226 2.10913 12.3383 2.12464C12.3696 2.14015 12.3852 2.14015 12.4165 2.15566C12.4321 2.15566 12.4477 2.17117 12.4634 2.17117L12.479 2.18668H12.4947C12.5416 2.2177 12.6041 2.23321 12.651 2.26423L12.6823 2.27974C12.6979 2.29525 12.7136 2.29525 12.7292 2.31076C12.7918 2.34178 12.8543 2.3728 12.9169 2.40382L12.9482 2.41933H12.9638C12.9951 2.43484 13.0263 2.45035 13.0576 2.48137H13.0733C13.1045 2.49688 13.1358 2.51239 13.1671 2.5279C13.1827 2.54341 13.1984 2.54341 13.214 2.55892C13.2766 2.60545 13.3391 2.63647 13.4017 2.683H13.4173C13.4798 2.72953 13.5424 2.77606 13.6049 2.8226C13.6206 2.83811 13.6362 2.83811 13.6519 2.85362C13.6988 2.90015 13.7613 2.93117 13.8239 2.9777L13.8552 2.99321C13.8864 3.02423 13.9177 3.05525 13.949 3.07076L13.9803 3.10178L13.9959 3.11729L14.0272 3.1328L14.0428 3.14831L14.0584 3.16382C14.0897 3.17933 14.1054 3.21035 14.1366 3.22586C14.1679 3.24137 14.1835 3.27239 14.1992 3.2879L14.2305 3.31892C14.293 3.36545 14.3399 3.42749 14.4025 3.47402L14.4338 3.50504C14.465 3.52055 14.4807 3.55157 14.4963 3.5826L14.5276 3.61362L14.5589 3.64464L14.5901 3.67566L14.6058 3.69117C14.6214 3.70668 14.637 3.7377 14.6683 3.75321C14.6996 3.78423 14.7152 3.81525 14.7465 3.84627L14.7778 3.87729C14.7934 3.90831 14.8247 3.92382 14.8403 3.95484C14.856 3.98586 14.8873 4.00137 14.9029 4.03239L14.9342 4.07892C14.9654 4.10994 14.9967 4.15647 15.0124 4.18749L15.028 4.21851C15.0436 4.23402 15.0593 4.24953 15.0593 4.26504L15.0905 4.29606C15.1375 4.35811 15.1687 4.40464 15.2156 4.45117C15.2313 4.46668 15.2313 4.48219 15.2469 4.4977L15.2626 4.52872C15.2938 4.55974 15.3095 4.60627 15.3407 4.63729L16.1539 3.17933C16.1226 3.14831 16.107 3.11729 16.0757 3.07076C16.0601 3.05525 16.0445 3.03974 16.0288 3.02423C15.9819 2.96219 15.935 2.90015 15.8724 2.85362C15.8568 2.83811 15.8412 2.8226 15.8412 2.80709L15.8255 2.79157C15.763 2.72953 15.7161 2.66749 15.6535 2.60545C15.6379 2.58994 15.6222 2.57443 15.6066 2.55892C15.5597 2.49688 15.4971 2.45035 15.4502 2.38831C15.4346 2.3728 15.4189 2.35729 15.4033 2.34178C15.3407 2.27974 15.2782 2.2177 15.2 2.15566L15.1687 2.12464C15.1062 2.07811 15.0436 2.01606 14.9967 1.96953C14.9811 1.95402 14.9654 1.93851 14.9498 1.923C14.8873 1.86096 14.8091 1.79892 14.7309 1.75239L14.6996 1.73688C14.637 1.69035 14.5745 1.64382 14.5119 1.58178C14.4963 1.56627 14.4807 1.55076 14.4494 1.53525C14.3712 1.47321 14.293 1.42668 14.2148 1.38015H14.1992C14.1835 1.36464 14.1523 1.34913 14.1366 1.33362C14.0897 1.3026 14.0272 1.27157 13.9803 1.22504C13.9646 1.20953 13.9333 1.19402 13.9177 1.19402C13.8395 1.14749 13.7613 1.10096 13.6831 1.05443L13.6675 1.03892C13.5893 0.992391 13.4955 0.945861 13.4173 0.89933C13.4017 0.88382 13.3704 0.86831 13.3547 0.86831C13.2766 0.837289 13.214 0.790759 13.1358 0.759738C13.042 0.713208 12.9482 0.666677 12.8543 0.635656C12.87 0.697697 12.8543 0.697697 12.8231 0.682187Z" fill="#FBDE7F"/>
<path d="M15.8255 5.52161C15.8568 5.56814 15.8724 5.61467 15.8881 5.6612C15.9037 5.67671 15.9037 5.70773 15.9193 5.72324L15.935 5.73875C15.9662 5.80079 15.9819 5.84732 16.0132 5.90936C16.0288 5.92487 16.0288 5.94038 16.0288 5.95589C16.0288 5.9714 16.0444 5.98691 16.0444 6.00242C16.0601 6.04896 16.0757 6.07998 16.0913 6.12651C16.107 6.15753 16.107 6.17304 16.1226 6.20406L16.1383 6.21957V6.23508C16.1695 6.34365 16.2164 6.43671 16.2477 6.54528C16.2634 6.5763 16.2634 6.60732 16.279 6.63834C16.3103 6.7314 16.3259 6.82447 16.3572 6.91753C16.3572 6.93304 16.3728 6.94855 16.3728 6.96406C16.4041 7.07263 16.4197 7.1812 16.451 7.28977C16.451 7.32079 16.4667 7.35181 16.4667 7.38283C16.4823 7.47589 16.4979 7.55345 16.5136 7.64651C16.5136 7.67753 16.5292 7.70855 16.5292 7.72406C16.5448 7.83263 16.5605 7.9412 16.5761 8.04977C16.5761 8.08079 16.5761 8.11181 16.5918 8.14283C16.5918 8.18936 16.6074 8.23589 16.6074 8.28242L17.7333 6.2661C17.7333 6.25059 17.7177 6.23508 17.7177 6.20406C17.6864 6.12651 17.6708 6.04896 17.6395 5.9714C17.6239 5.94038 17.6239 5.92487 17.6239 5.90936C17.5926 5.8163 17.5613 5.72324 17.53 5.63018L17.5144 5.58365C17.4831 5.5061 17.4518 5.42855 17.4206 5.351C17.4049 5.31998 17.4049 5.30447 17.3893 5.28896C17.358 5.19589 17.3111 5.11834 17.2798 5.02528L17.2642 5.00977C17.2329 4.93222 17.186 4.85467 17.1547 4.77712C17.1391 4.76161 17.1391 4.73059 17.1234 4.71508C17.0765 4.63753 17.0453 4.55998 16.9983 4.46691V4.4514C16.9514 4.37385 16.9045 4.28079 16.8576 4.20324C16.842 4.18773 16.8263 4.15671 16.8263 4.1412C16.795 4.07916 16.7481 4.01712 16.7169 3.95508L15.8255 5.52161Z" fill="#FBDE7F"/>
<path d="M12.1663 16.2393C11.3062 16.6735 10.3679 16.9527 9.38273 17.0303L8.52264 18.5658C8.56956 18.5658 8.61647 18.5658 8.67902 18.5658C8.77285 18.5658 8.86668 18.5658 8.9605 18.5658C8.99178 18.5658 9.00742 18.5658 9.03869 18.5658C9.10124 18.5658 9.17943 18.5658 9.24199 18.5503C9.27326 18.5503 9.2889 18.5503 9.32017 18.5503C9.414 18.5503 9.49219 18.5348 9.58602 18.5348C9.67985 18.5193 9.77367 18.5193 9.8675 18.5037H9.88314C9.97697 18.4882 10.0552 18.4727 10.149 18.4572H10.1803C10.4617 18.4107 10.7589 18.3486 11.0247 18.2711C11.0247 18.2556 12.1663 16.2393 12.1663 16.2393Z" fill="#FBDE7F"/>
<path d="M5.83294 1.10119C5.67656 1.16323 5.53582 1.22527 5.37944 1.30282C4.9885 1.48895 4.61319 1.70609 4.25352 1.95425L4.23788 1.96976C3.87821 2.21793 3.53417 2.51262 3.20578 2.80731C3.15887 2.85385 3.12759 2.88487 3.08068 2.9314C2.48644 3.52078 1.98603 4.18772 1.59508 4.90119C1.23541 5.56813 0.953928 6.2816 0.79755 7.01058C0.766274 7.13466 0.750636 7.25874 0.71936 7.38282C0.813188 7.11915 0.907015 6.85548 1.03212 6.60731C1.26669 6.06446 1.53253 5.55262 1.84529 5.05629C1.95475 4.87017 2.07985 4.69956 2.20496 4.51344C2.58027 4.0016 3.00249 3.50527 3.45599 3.07099C3.58109 2.94691 3.70619 2.83834 3.83129 2.72976C4.01895 2.55915 4.22224 2.40405 4.44117 2.24895C4.7852 1.98527 5.14487 1.76813 5.52018 1.55099C5.55146 1.53548 5.59837 1.51997 5.62965 1.48895C6.34899 1.10119 7.11525 0.806498 7.92841 0.589355C7.20907 0.651396 6.50537 0.822009 5.83294 1.10119Z" fill="#FDEBB6"/>
<path d="M9.50783 17.3401C13.8261 17.3401 17.3268 13.8333 17.3268 9.50746C17.3268 5.1816 13.8261 1.6748 9.50783 1.6748C5.18956 1.6748 1.6889 5.1816 1.6889 9.50746C1.6889 13.8333 5.18956 17.3401 9.50783 17.3401Z" fill="#EEAE1A"/>
<path d="M14.3869 7.08818C14.3869 11.4155 10.884 14.9208 6.56793 14.9208C5.55146 14.9208 4.59756 14.7347 3.7062 14.378C3.39344 14.2694 3.09632 14.1143 2.81484 13.9592C2.81484 13.9592 2.81484 13.9592 2.81484 13.9437C2.7992 13.9127 2.76793 13.8816 2.73665 13.8351L2.72101 13.8041V13.7886L2.70537 13.7576C2.6741 13.6955 2.62719 13.649 2.59591 13.587C2.58027 13.5714 2.58027 13.5559 2.56463 13.5404L2.549 13.5094L2.53336 13.4784C2.51772 13.4629 2.50208 13.4319 2.50208 13.4163C2.50208 13.4008 2.47081 13.3698 2.47081 13.3543C2.45517 13.3233 2.43953 13.2923 2.40825 13.2612L2.39262 13.2457L2.37698 13.2147L2.3457 13.1837V13.1682C2.29879 13.0751 2.25188 12.9821 2.20496 12.889L2.18933 12.8735C2.14241 12.7804 2.11114 12.6874 2.06422 12.5943L2.04858 12.5788C2.01731 12.4857 1.98603 12.4082 1.93912 12.3151C1.93912 12.2996 1.92348 12.2841 1.92348 12.2686V12.2531C1.89221 12.16 1.86093 12.067 1.82965 11.9739C1.81402 11.9119 1.78274 11.8343 1.7671 11.7723C1.7671 11.7568 1.75146 11.7412 1.75146 11.7257C1.73583 11.6637 1.72019 11.5861 1.70455 11.5241V11.5086V11.4931V11.4776V11.4621C1.68891 11.431 1.68891 11.4 1.67328 11.3535C1.67328 11.3225 1.65764 11.307 1.65764 11.2759C1.642 11.2294 1.642 11.1829 1.62636 11.1363C1.62636 11.1208 1.62636 11.1053 1.61072 11.0898C1.59509 11.0123 1.57945 10.9347 1.56381 10.8572C1.56381 10.8417 1.56381 10.8106 1.54817 10.7951C1.54817 10.7796 1.54817 10.7486 1.53253 10.7331C1.53253 10.7021 1.5169 10.6865 1.5169 10.6555C1.5169 10.6245 1.50126 10.578 1.50126 10.547C1.50126 10.5159 1.50126 10.5004 1.48562 10.4694C1.48562 10.4229 1.46998 10.3919 1.46998 10.3453V10.3298C1.46998 10.3143 1.46998 10.2988 1.46998 10.2833C1.46998 10.2523 1.46998 10.2212 1.46998 10.1902C1.46998 10.1437 1.45435 10.0817 1.45435 10.0351C1.45435 10.0196 1.45435 10.0041 1.45435 9.98859C1.45435 9.95757 1.45435 9.92655 1.45435 9.91104C1.45435 9.89553 1.45435 9.88002 1.45435 9.849V9.81798V9.78696C1.45435 9.75594 1.45435 9.74043 1.45435 9.70941C1.45435 9.66288 1.45435 9.61635 1.45435 9.56981C1.45435 9.55431 1.45435 9.52328 1.45435 9.50777C1.45435 9.44573 1.45435 9.36818 1.45435 9.30614C1.45435 9.22859 1.46998 9.15104 1.46998 9.07349V9.05798C1.46998 8.98043 1.48562 8.90288 1.48562 8.82533C1.72019 6.4988 2.93994 4.45145 4.67574 3.11757C4.83212 3.009 4.97286 2.90043 5.12924 2.79186C5.28562 2.68328 5.442 2.59022 5.59838 2.49716C5.75476 2.4041 5.92677 2.32655 6.09879 2.249C6.27081 2.17145 6.44282 2.0939 6.61484 2.03186C6.78686 1.96982 6.95887 1.90777 7.14653 1.84573C7.33418 1.78369 7.5062 1.73716 7.69385 1.70614C8.06916 1.62859 8.44447 1.56655 8.81978 1.53553C8.99179 1.52002 9.16381 1.52002 9.33583 1.52002H9.3671C9.42965 1.52002 9.4922 1.52002 9.53912 1.52002C9.57039 1.52002 9.58603 1.52002 9.61731 1.52002C9.66422 1.52002 9.6955 1.52002 9.74241 1.52002C9.77369 1.52002 9.80496 1.52002 9.8206 1.52002C9.85188 1.52002 9.88315 1.52002 9.91443 1.52002H9.9457C9.97698 1.52002 10.0083 1.52002 10.0239 1.53553C10.0552 1.53553 10.1021 1.53553 10.1334 1.55104C10.1646 1.55104 10.1959 1.55104 10.2272 1.56655C10.2585 1.56655 10.2897 1.58206 10.3366 1.58206C10.3679 1.58206 10.3992 1.59757 10.4305 1.59757C10.4461 1.59757 10.4618 1.59757 10.4774 1.61308C10.493 1.61308 10.5087 1.61308 10.5243 1.62859C10.5556 1.62859 10.5869 1.6441 10.6181 1.6441C10.6494 1.6441 10.6807 1.65961 10.7276 1.65961C10.7589 1.65961 10.7901 1.67512 10.8214 1.67512C10.8527 1.67512 10.884 1.69063 10.9309 1.69063C10.9622 1.70614 10.9934 1.70614 11.0247 1.70614C11.0404 1.70614 11.056 1.72165 11.0716 1.72165H11.0873L11.1185 1.73716C11.1498 1.75267 11.1811 1.75267 11.2124 1.75267C11.2436 1.76818 11.2749 1.76818 11.3062 1.78369C11.3375 1.7992 11.3687 1.7992 11.3844 1.7992C11.4157 1.81471 11.4469 1.81471 11.4938 1.83022C11.5251 1.84573 11.5408 1.84573 11.572 1.86124C11.5877 1.86124 11.6033 1.87675 11.6346 1.87675C11.6502 1.87675 11.6659 1.89226 11.6815 1.89226C11.7128 1.90777 11.7284 1.90777 11.7597 1.92328C11.791 1.93879 11.8379 1.95431 11.8692 1.96982C11.8848 1.98533 11.9161 1.98533 11.9317 1.98533L12.0881 2.04737L12.1194 2.06288L12.1506 2.07839C12.1819 2.0939 12.2132 2.10941 12.2601 2.12492L12.2914 2.14043C12.307 2.15594 12.3227 2.15594 12.3539 2.17145C12.3696 2.17145 12.3852 2.18696 12.4008 2.18696L12.4165 2.20247C12.4321 2.20247 12.4478 2.21798 12.4634 2.21798L12.4947 2.23349C12.5416 2.26451 12.6041 2.28002 12.6511 2.31104L12.6823 2.32655C12.698 2.34206 12.7136 2.34206 12.7292 2.35757C12.7605 2.37308 12.7762 2.38859 12.8074 2.4041C12.8074 2.41961 12.8231 2.41961 12.8231 2.43512C13.8083 3.70696 14.3869 5.33553 14.3869 7.08818Z" fill="#F1BB16"/>
<path d="M12.9169 2.43512C12.8856 2.41961 12.8543 2.41961 12.8231 2.4041C12.0255 2.10941 11.1655 1.9388 10.2585 1.9388C6.08315 1.9388 2.549 5.41308 2.36134 9.70941C2.3457 9.97308 2.3457 10.2368 2.36134 10.5004C2.37698 10.7331 2.39262 10.9657 2.42389 11.1984C2.42389 11.2294 2.43953 11.2449 2.43953 11.2759C2.51772 11.7723 2.64282 12.2686 2.81484 12.7184C3.03377 13.3078 3.31525 13.8661 3.67492 14.378C4.30044 15.2776 5.09797 16.0221 6.05188 16.5494C6.00496 16.5339 5.94241 16.5029 5.8955 16.4874L5.87986 16.4719C5.70784 16.3943 5.53583 16.3168 5.37945 16.2392H5.36381H5.34817C5.26998 16.2082 5.20743 16.1617 5.12924 16.1151L5.09797 16.0996C5.01978 16.0531 4.95723 16.0221 4.87904 15.9755L4.8634 15.96C4.78521 15.9135 4.70702 15.867 4.62883 15.8049C4.55064 15.7584 4.48809 15.6963 4.4099 15.6498L4.37863 15.6188C4.31607 15.5723 4.25352 15.5257 4.19097 15.4792L4.1597 15.4482C4.14406 15.4327 4.12842 15.4172 4.11278 15.4172L4.09714 15.4017C4.06587 15.3706 4.03459 15.3551 4.00332 15.3241L3.97204 15.2931L3.94077 15.2621C3.90949 15.231 3.87821 15.2 3.84694 15.169L3.81566 15.138L3.80002 15.1225C3.73747 15.0604 3.67492 14.9984 3.61237 14.9519C3.54982 14.8898 3.50291 14.8433 3.45599 14.7812C3.44035 14.7657 3.42472 14.7502 3.40908 14.7347C3.36216 14.6882 3.33089 14.6417 3.28398 14.5951C3.26834 14.5796 3.2527 14.5486 3.22142 14.5331C3.19015 14.4865 3.15887 14.4555 3.1276 14.409C3.11196 14.3935 3.09632 14.3625 3.06505 14.347C3.00249 14.2694 2.93994 14.1919 2.89303 14.1143L2.86175 14.0678C2.84612 14.0523 2.83048 14.0212 2.81484 14.0057C2.83048 13.9902 2.81484 13.9747 2.81484 13.9592C2.81484 13.9592 2.81484 13.9592 2.81484 13.9437C2.7992 13.9127 2.76793 13.8817 2.73665 13.8351L2.72101 13.8041V13.7886L2.70537 13.7576C2.6741 13.6955 2.62719 13.649 2.59591 13.587C2.58027 13.5714 2.58027 13.5559 2.56463 13.5404L2.549 13.5094L2.53336 13.4784C2.51772 13.4629 2.50208 13.4319 2.50208 13.4163C2.50208 13.4008 2.47081 13.3698 2.47081 13.3543C2.45517 13.3233 2.43953 13.2923 2.40826 13.2612L2.39262 13.2457L2.37698 13.2147L2.3457 13.1837V13.1682C2.29879 13.0751 2.25188 12.9821 2.20496 12.889L2.18933 12.8735C2.14241 12.7804 2.11114 12.6874 2.06422 12.5943L2.04858 12.5788C2.01731 12.4857 1.98603 12.4082 1.93912 12.3151C1.93912 12.2996 1.92348 12.2841 1.92348 12.2686V12.2531C1.89221 12.16 1.86093 12.067 1.82965 11.9739C1.81402 11.9119 1.78274 11.8343 1.7671 11.7723C1.7671 11.7568 1.75146 11.7412 1.75146 11.7257C1.73583 11.6637 1.72019 11.5861 1.70455 11.5241V11.5086V11.4931V11.4776V11.4621C1.68891 11.431 1.68891 11.4 1.67328 11.3535C1.67328 11.3225 1.65764 11.307 1.65764 11.2759C1.642 11.2294 1.642 11.1829 1.62636 11.1363C1.62636 11.1208 1.62636 11.1053 1.61072 11.0898C1.59509 11.0123 1.57945 10.9347 1.56381 10.8572C1.56381 10.8417 1.56381 10.8106 1.54817 10.7951C1.54817 10.7796 1.54817 10.7486 1.53254 10.7331C1.53254 10.7021 1.5169 10.6866 1.5169 10.6555C1.5169 10.6245 1.50126 10.578 1.50126 10.547C1.50126 10.5159 1.50126 10.5004 1.48562 10.4694C1.48562 10.4229 1.46998 10.3919 1.46998 10.3453V10.3298C1.46998 10.3143 1.46998 10.2988 1.46998 10.2833C1.46998 10.2523 1.46998 10.2212 1.46998 10.1902C1.46998 10.1437 1.45435 10.0817 1.45435 10.0351C1.45435 10.0196 1.45435 10.0041 1.45435 9.98859C1.45435 9.95757 1.45435 9.92655 1.45435 9.91104C1.45435 9.89553 1.45435 9.88002 1.45435 9.849V9.81798V9.78696C1.45435 9.75594 1.45435 9.74043 1.45435 9.70941C1.45435 9.66288 1.45435 9.61635 1.45435 9.56982C1.45435 9.55431 1.45435 9.52328 1.45435 9.50777C1.45435 9.44573 1.45435 9.36818 1.45435 9.30614C1.45435 9.22859 1.46998 9.15104 1.46998 9.07349V9.05798C1.46998 8.98043 1.48562 8.90288 1.48562 8.82533C1.72019 6.4988 2.93994 4.45145 4.67574 3.11757C4.83212 3.009 4.97286 2.90043 5.12924 2.79186C5.28562 2.68328 5.442 2.59022 5.59838 2.49716C5.75476 2.4041 5.92677 2.32655 6.09879 2.249C6.27081 2.17145 6.44282 2.0939 6.61484 2.03186C6.78686 1.96982 6.95887 1.90777 7.14653 1.84573C7.33418 1.78369 7.5062 1.73716 7.69385 1.70614C8.06916 1.62859 8.44447 1.56655 8.81978 1.53553C8.9918 1.52002 9.16381 1.52002 9.33583 1.52002H9.3671C9.42966 1.52002 9.49221 1.52002 9.53912 1.52002C9.5704 1.52002 9.58603 1.52002 9.61731 1.52002C9.66422 1.52002 9.6955 1.52002 9.74241 1.52002C9.77369 1.52002 9.80496 1.52002 9.8206 1.52002C9.85188 1.52002 9.88315 1.52002 9.91443 1.52002H9.9457C9.97698 1.52002 10.0083 1.52002 10.0239 1.53553C10.0552 1.53553 10.1021 1.53553 10.1334 1.55104C10.1646 1.55104 10.1959 1.55104 10.2272 1.56655C10.2585 1.56655 10.2897 1.58206 10.3367 1.58206C10.3679 1.58206 10.3992 1.59757 10.4305 1.59757C10.4461 1.59757 10.4618 1.59757 10.4774 1.61308C10.493 1.61308 10.5087 1.61308 10.5243 1.62859C10.5556 1.62859 10.5869 1.6441 10.6181 1.6441C10.6494 1.6441 10.6807 1.65961 10.7276 1.65961C10.7589 1.65961 10.7901 1.67512 10.8214 1.67512C10.8527 1.67512 10.884 1.69063 10.9309 1.69063C10.9622 1.70614 10.9934 1.70614 11.0247 1.70614C11.0404 1.70614 11.056 1.72165 11.0716 1.72165H11.0873L11.1185 1.73716C11.1498 1.75267 11.1811 1.75267 11.2124 1.75267C11.2436 1.76818 11.2749 1.76818 11.3062 1.78369C11.3375 1.7992 11.3688 1.7992 11.3844 1.7992C11.4157 1.81471 11.4469 1.81471 11.4939 1.83022C11.5251 1.84573 11.5408 1.84573 11.572 1.86124C11.5877 1.86124 11.6033 1.87675 11.6346 1.87675C11.6502 1.87675 11.6659 1.89226 11.6815 1.89226C11.7128 1.90777 11.7284 1.90777 11.7597 1.92328C11.791 1.93879 11.8379 1.95431 11.8692 1.96982C11.8848 1.98533 11.9161 1.98533 11.9317 1.98533L12.0881 2.04737L12.1194 2.06288L12.1506 2.07839C12.1819 2.0939 12.2132 2.10941 12.2601 2.12492L12.2914 2.14043C12.307 2.15594 12.3227 2.15594 12.3539 2.17145C12.3696 2.17145 12.3852 2.18696 12.4008 2.18696L12.4165 2.20247C12.4321 2.20247 12.4478 2.21798 12.4634 2.21798L12.4947 2.23349C12.5416 2.26451 12.6041 2.28002 12.6511 2.31104L12.6823 2.32655C12.698 2.34206 12.7136 2.34206 12.7292 2.35757C12.7605 2.37308 12.7762 2.38859 12.8074 2.4041C12.8543 2.4041 12.8856 2.41961 12.9169 2.43512Z" fill="#966613"/>
<g opacity="0.7">
<path d="M11.3844 5.2577H14.3556V6.29688H13.5737V14.3312H12.0255L7.77202 6.80872V13.3075H8.71029V14.3312H5.7391V13.3075H6.58354V6.29688H5.70782V5.24219H8.17861L12.3539 12.6871L12.4008 12.4079V6.29688H11.3687V5.2577H11.3844Z" fill="#51380F"/>
</g>
<path d="M10.9153 5.2577H13.8864V6.29688H13.1046V14.3312H11.5564L7.30291 6.80872V13.3075H8.24118V14.3312H5.26998V13.3075H6.11443V6.29688H5.23871V5.24219H7.70949L11.8848 12.6871L11.9317 12.4079V6.29688H10.8996V5.2577H10.9153Z" fill="url(#paint0_linear_6_5232)"/>
<path d="M6.8963 6.06446C6.81811 6.14201 6.75556 6.23507 6.693 6.32813C6.5679 6.51425 6.47407 6.71588 6.41152 6.91752C6.39588 6.96405 6.38025 7.02609 6.36461 7.07262C6.34897 7.11915 6.34897 7.18119 6.33333 7.22772C6.3177 7.33629 6.30206 7.44486 6.3177 7.55344C6.39589 7.3518 6.47407 7.16568 6.5679 6.97956C6.66173 6.79344 6.75556 6.62282 6.88066 6.45221L6.92757 6.39017C6.94321 6.37466 6.95885 6.34364 6.97449 6.32813C7.00576 6.2816 7.03704 6.25058 7.06831 6.20405C7.13086 6.1265 7.19342 6.04895 7.2716 5.97139C7.28724 5.95588 7.28724 5.95588 7.30288 5.94037C7.33416 5.90935 7.34979 5.89384 7.38107 5.86282C7.41235 5.8318 7.45926 5.78527 7.49054 5.75425C7.52181 5.72323 7.56872 5.6767 7.61564 5.64568C7.66255 5.61466 7.69383 5.56813 7.74074 5.53711C7.63128 5.56813 7.53745 5.61466 7.42798 5.66119C7.33416 5.70772 7.24033 5.76976 7.16214 5.8318C7.05267 5.90935 6.97449 5.9869 6.8963 6.06446Z" fill="#FDEBB6"/>
</g>
<defs>
<linearGradient id="paint0_linear_6_5232" x1="5.25435" y1="9.78668" x2="13.8864" y2="9.78668" gradientUnits="userSpaceOnUse">
<stop stop-color="#F9D656"/>
<stop offset="0.17" stop-color="#FBDE7F"/>
<stop offset="0.3" stop-color="#F1BB16"/>
<stop offset="0.46" stop-color="#FBDE7F"/>
<stop offset="0.61" stop-color="#F9D656"/>
<stop offset="0.81" stop-color="#FBDE7F"/>
<stop offset="1" stop-color="#F9D656"/>
</linearGradient>
<clipPath id="clip0_6_5232">
<rect width="19" height="19" fill="white"/>
</clipPath>
</defs>
</svg>
