<svg width="28" height="28" viewBox="0 0 28 28" fill="none" xmlns="http://www.w3.org/2000/svg">
<path d="M7.58333 19.25C8.04746 19.25 8.49257 19.0656 8.82076 18.7374C9.14895 18.4093 9.33333 17.9641 9.33333 17.5V12.8333C9.33342 12.3752 9.15386 11.9353 8.8332 11.6081C8.51254 11.2809 8.07636 11.0925 7.61833 11.0833C7.76177 9.80038 8.37287 8.61525 9.33489 7.75438C10.2969 6.89352 11.5424 6.41729 12.8333 6.41667H15.1667C16.4576 6.41729 17.7031 6.89352 18.6651 7.75438C19.6271 8.61525 20.2382 9.80038 20.3817 11.0833C19.9236 11.0925 19.4874 11.2809 19.1668 11.6081C18.8461 11.9353 18.6666 12.3752 18.6667 12.8333V17.5C18.6659 17.9465 18.8357 18.3764 19.1416 18.7018C19.4474 19.0271 19.866 19.2232 20.3117 19.25C20.1913 19.5904 19.9686 19.8853 19.6741 20.0941C19.3796 20.303 19.0277 20.4157 18.6667 20.4167H16.2283C16.0907 20.0275 15.82 19.6994 15.4639 19.4906C15.1078 19.2817 14.6894 19.2054 14.2825 19.2752C13.8756 19.345 13.5065 19.5564 13.2404 19.872C12.9743 20.1877 12.8284 20.5872 12.8284 21C12.8284 21.4128 12.9743 21.8123 13.2404 22.128C13.5065 22.4436 13.8756 22.655 14.2825 22.7248C14.6894 22.7946 15.1078 22.7183 15.4639 22.5095C15.82 22.3006 16.0907 21.9725 16.2283 21.5833H18.6667C19.3763 21.5801 20.0604 21.3183 20.5909 20.8469C21.1214 20.3755 21.4618 19.7269 21.5483 19.0225C22.0775 18.7997 22.5292 18.4257 22.8467 17.9473C23.1642 17.469 23.3335 16.9075 23.3333 16.3333V14C23.3342 13.4318 23.169 12.8756 22.8581 12.4C22.5472 11.9243 22.1041 11.5498 21.5833 11.3225C21.4952 9.68105 20.7804 8.13603 19.5865 7.00613C18.3925 5.87624 16.8105 5.24764 15.1667 5.25001H12.8333C11.1895 5.24764 9.60747 5.87624 8.41353 7.00613C7.21959 8.13603 6.50483 9.68105 6.41666 11.3225C5.89585 11.5498 5.45277 11.9243 5.14188 12.4C4.83099 12.8756 4.66582 13.4318 4.66666 14V16.3333C4.66666 17.1069 4.97395 17.8488 5.52093 18.3957C6.06791 18.9427 6.80978 19.25 7.58333 19.25ZM14.5833 21.5833C14.468 21.5833 14.3552 21.5491 14.2592 21.485C14.1633 21.4209 14.0885 21.3298 14.0444 21.2232C14.0002 21.1166 13.9887 20.9994 14.0112 20.8862C14.0337 20.773 14.0893 20.6691 14.1708 20.5875C14.2524 20.5059 14.3564 20.4504 14.4695 20.4279C14.5827 20.4054 14.7 20.4169 14.8066 20.4611C14.9131 20.5052 15.0043 20.58 15.0684 20.6759C15.1324 20.7719 15.1667 20.8846 15.1667 21C15.1667 21.1547 15.1052 21.3031 14.9958 21.4125C14.8864 21.5219 14.738 21.5833 14.5833 21.5833ZM22.1667 14V16.3333C22.1667 16.7975 21.9823 17.2426 21.6541 17.5708C21.3259 17.899 20.8808 18.0833 20.4167 18.0833C20.2619 18.0833 20.1136 18.0219 20.0042 17.9125C19.8948 17.8031 19.8333 17.6547 19.8333 17.5V12.8333C19.8333 12.6786 19.8948 12.5303 20.0042 12.4209C20.1136 12.3115 20.2619 12.25 20.4167 12.25C20.8808 12.25 21.3259 12.4344 21.6541 12.7626C21.9823 13.0908 22.1667 13.5359 22.1667 14ZM5.83333 14C5.83333 13.5359 6.0177 13.0908 6.34589 12.7626C6.67408 12.4344 7.1192 12.25 7.58333 12.25C7.73804 12.25 7.88641 12.3115 7.99581 12.4209C8.1052 12.5303 8.16666 12.6786 8.16666 12.8333V17.5C8.16666 17.6547 8.1052 17.8031 7.99581 17.9125C7.88641 18.0219 7.73804 18.0833 7.58333 18.0833C7.1192 18.0833 6.67408 17.899 6.34589 17.5708C6.0177 17.2426 5.83333 16.7975 5.83333 16.3333V14Z" fill="black"/>
</svg>
