<svg xmlns="http://www.w3.org/2000/svg" width="20" height="21" viewBox="0 0 20 21" fill="none"><path d="M2.5 5.813c0 -0.403 0.288 -0.73 0.643 -0.73h2.22c0.441 -0.014 0.83 -0.333 0.98 -0.805l0.025 -0.083 0.096 -0.326c0.058 -0.2 0.11 -0.375 0.181 -0.53 0.282 -0.617 0.803 -1.044 1.406 -1.153 0.153 -0.028 0.315 -0.028 0.5 -0.028h2.898c0.186 0 0.348 0 0.5 0.028 0.603 0.109 1.125 0.536 1.406 1.152 0.072 0.156 0.122 0.33 0.182 0.531l0.095 0.326 0.025 0.083c0.15 0.472 0.616 0.792 1.058 0.804h2.142c0.355 0 0.643 0.328 0.643 0.731 0 0.404 -0.288 0.731 -0.642 0.731H3.142c-0.354 0 -0.642 -0.327 -0.642 -0.73" fill="#868788"/><path fill-rule="evenodd" clip-rule="evenodd" d="M9.663 18.825h0.674c2.319 0 3.478 0 4.233 -0.738 0.753 -0.739 0.83 -1.95 0.984 -4.371l0.223 -3.49c0.083 -1.314 0.125 -1.972 -0.253 -2.388s-1.016 -0.416 -2.294 -0.416H6.77c-1.277 0 -1.917 0 -2.294 0.416 -0.378 0.417 -0.337 1.074 -0.253 2.388l0.223 3.49c0.154 2.421 0.23 3.633 0.985 4.37 0.754 0.739 1.913 0.739 4.232 0.739m-1.125 -8.176c-0.033 -0.362 -0.34 -0.625 -0.683 -0.59 -0.344 0.037 -0.594 0.36 -0.56 0.72l0.417 4.387c0.033 0.361 0.34 0.625 0.683 0.589s0.594 -0.359 0.56 -0.72zm3.608 -0.59c0.343 0.037 0.594 0.36 0.559 0.72l-0.417 4.387c-0.033 0.361 -0.34 0.625 -0.683 0.589s-0.594 -0.359 -0.56 -0.72l0.417 -4.386c0.033 -0.362 0.341 -0.625 0.684 -0.59" fill="#868788"/></svg>