
<svg width="36" height="36" viewBox="0 0 36 36" fill="none" xmlns="http://www.w3.org/2000/svg">
<path d="M10.5 13.3134C10.5 12.9101 10.7875 12.5826 11.1425 12.5826H13.3633C13.8042 12.5693 14.1933 12.2501 14.3433 11.7784L14.3683 11.6951L14.4642 11.3693C14.5225 11.1693 14.5733 10.9943 14.645 10.8384C14.9267 10.2226 15.4483 9.79511 16.0508 9.68595C16.2042 9.65845 16.3658 9.65845 16.5508 9.65845H19.4492C19.635 9.65845 19.7967 9.65845 19.9492 9.68595C20.5517 9.79511 21.0742 10.2226 21.355 10.8384C21.4267 10.9943 21.4775 11.1684 21.5367 11.3693L21.6317 11.6951L21.6567 11.7784C21.8067 12.2501 22.2733 12.5701 22.715 12.5826H24.8567C25.2125 12.5826 25.5 12.9101 25.5 13.3134C25.5 13.7168 25.2125 14.0443 24.8575 14.0443H11.1417C10.7875 14.0443 10.5 13.7168 10.5 13.3134Z" fill="#868788"/>
<path fill-rule="evenodd" clip-rule="evenodd" d="M17.6633 26.3251H18.3367C20.6558 26.3251 21.815 26.3251 22.57 25.5868C23.3233 24.8484 23.4 23.6376 23.5542 21.2159L23.7767 17.7259C23.86 16.4118 23.9017 15.7543 23.5242 15.3384C23.1458 14.9218 22.5075 14.9218 21.23 14.9218H14.77C13.4925 14.9218 12.8533 14.9218 12.4758 15.3384C12.0975 15.7551 12.1392 16.4118 12.2233 17.7259L12.4458 21.2159C12.6 23.6376 12.6767 24.8493 13.4308 25.5868C14.185 26.3251 15.3442 26.3251 17.6633 26.3251ZM16.5383 18.1493C16.505 17.7876 16.1983 17.5243 15.855 17.5601C15.5108 17.5959 15.2608 17.9184 15.295 18.2801L15.7117 22.6659C15.745 23.0276 16.0517 23.2909 16.395 23.2551C16.7392 23.2193 16.9892 22.8968 16.955 22.5351L16.5383 18.1493ZM20.1458 17.5601C20.4892 17.5959 20.74 17.9184 20.705 18.2801L20.2883 22.6659C20.255 23.0276 19.9475 23.2909 19.605 23.2551C19.2608 23.2193 19.0108 22.8968 19.045 22.5351L19.4617 18.1493C19.495 17.7876 19.8033 17.5243 20.1458 17.5601Z" fill="#868788"/>
</svg>
