<svg width="12" height="6" viewBox="0 0 12 6" fill="none" xmlns="http://www.w3.org/2000/svg">
<path d="M6.00041 5.91777C5.8057 5.91815 5.61701 5.85034 5.46708 5.7261L0.467078 1.55944C0.112695 1.26488 0.0641929 0.738819 0.358745 0.384437C0.653297 0.0300538 1.17936 -0.0184487 1.53374 0.276103L6.00041 4.00944L10.4671 0.409437C10.6392 0.269628 10.86 0.204212 11.0806 0.227674C11.3011 0.251135 11.5032 0.361537 11.6421 0.534437C11.7964 0.707653 11.8715 0.937334 11.8493 1.16824C11.8272 1.39914 11.7098 1.61036 11.5254 1.7511L6.52541 5.7761C6.37118 5.8807 6.18633 5.93058 6.00041 5.91777Z" fill="#363839"/>
</svg>
