<svg width="12" height="6" viewBox="0 0 12 6" fill="none" xmlns="http://www.w3.org/2000/svg">
<path d="M6.01848 0.0853456C6.21319 0.0849651 6.40189 0.152778 6.55182 0.277012L11.5518 4.44368C11.9062 4.73823 11.9547 5.2643 11.6602 5.61868C11.3656 5.97306 10.8395 6.02156 10.4852 5.72701L6.01848 1.99368L1.55182 5.59368C1.37966 5.73349 1.15887 5.7989 0.938332 5.77544C0.717797 5.75198 0.515712 5.64158 0.376818 5.46868C0.222539 5.29546 0.147438 5.06578 0.16958 4.83488C0.191721 4.60398 0.3091 4.39275 0.493484 4.25201L5.49348 0.227012C5.64772 0.122416 5.83257 0.0725365 6.01848 0.0853456Z" fill="#363839"/>
</svg>
