<svg width="48" height="48" viewBox="0 0 48 48" fill="none" xmlns="http://www.w3.org/2000/svg">
<path d="M37.2 22.6667C37.2 22.52 37.12 22.3733 37.08 22.2267C37.0183 21.9679 36.9381 21.7139 36.84 21.4667C36.7733 21.3067 36.68 21.1467 36.6 20.9733C36.52 20.8 36.4 20.5733 36.28 20.3867C36.16 20.2 36 20.1067 36 20C36 19.8933 35.7333 19.6667 35.5867 19.5067C35.44 19.3467 35.3067 19.24 35.16 19.1067L34.6667 18.6667L34.1867 18.3467C33.9982 18.2314 33.8022 18.1289 33.6 18.04L33.08 17.8C32.8622 17.7193 32.6395 17.6525 32.4133 17.6C32.2341 17.5473 32.0515 17.5072 31.8667 17.48H31.6267C31.1131 15.879 30.1081 14.4805 28.7545 13.4832C27.401 12.4858 25.7675 11.9403 24.0863 11.924C22.405 11.9078 20.7614 12.4217 19.3888 13.3927C18.0162 14.3638 16.9844 15.7426 16.44 17.3333H16.2C16.0152 17.3605 15.8325 17.4006 15.6533 17.4533C15.4271 17.5059 15.2044 17.5727 14.9867 17.6533L14.4667 17.8933C14.2644 17.9822 14.0684 18.0847 13.88 18.2L13.4 18.6667L12.9067 19.08C12.76 19.2133 12.6133 19.3333 12.48 19.48C12.3467 19.6267 12.2 19.8133 12.0667 19.9733C11.9333 20.1333 11.8267 20.28 11.72 20.4533C11.6133 20.6267 11.5067 20.84 11.4 21.04C11.2933 21.24 11.2267 21.3733 11.16 21.5333C11.0619 21.7806 10.9817 22.0346 10.92 22.2933C10.92 22.44 10.8267 22.5867 10.8 22.7333C10.717 23.1506 10.6724 23.5746 10.6667 24C10.6729 24.4071 10.713 24.8129 10.7867 25.2133C10.7867 25.3467 10.8533 25.4667 10.88 25.6C10.9459 25.8619 11.026 26.1201 11.12 26.3733L11.28 26.76C11.3974 27.0171 11.531 27.2665 11.68 27.5067L11.8667 27.8C11.8858 27.8374 11.9081 27.8731 11.9333 27.9067L12 28C12.621 28.828 13.4262 29.5 14.3519 29.9629C15.2776 30.4257 16.2984 30.6667 17.3333 30.6667C17.3363 29.9606 17.6192 29.2845 18.12 28.7867C18.6178 28.2859 19.2939 28.003 20 28C20.469 27.9956 20.9303 28.1201 21.3333 28.36V24C21.3333 23.2928 21.6143 22.6145 22.1144 22.1144C22.6145 21.6143 23.2927 21.3333 24 21.3333C24.7072 21.3333 25.3855 21.6143 25.8856 22.1144C26.3857 22.6145 26.6667 23.2928 26.6667 24V28.4933C27.0718 28.2583 27.5316 28.1342 28 28.1333C28.7223 28.1401 29.4126 28.4325 29.92 28.9467C30.3689 29.4107 30.6342 30.0219 30.6667 30.6667C31.7016 30.6667 32.7224 30.4257 33.6481 29.9629C34.5738 29.5 35.379 28.828 36 28L36.0667 27.9333C36.0918 27.8997 36.1141 27.864 36.1333 27.8267L36.32 27.5333C36.469 27.2932 36.6026 27.0438 36.72 26.7867L36.88 26.4C36.974 26.1468 37.0541 25.8886 37.12 25.6267C37.12 25.4933 37.1867 25.3733 37.2133 25.24C37.2884 24.8308 37.3286 24.416 37.3333 24C37.3318 23.5523 37.2871 23.1058 37.2 22.6667Z" fill="#2B324C"/>
<path d="M27.08 29.84L25.3333 31.52V24C25.3333 23.6464 25.1928 23.3072 24.9428 23.0572C24.6928 22.8071 24.3536 22.6667 24 22.6667C23.6464 22.6667 23.3072 22.8071 23.0572 23.0572C22.8071 23.3072 22.6667 23.6464 22.6667 24V31.4533L20.9467 29.72C20.8223 29.5957 20.6748 29.4971 20.5123 29.4298C20.3499 29.3625 20.1758 29.3279 20 29.3279C19.8242 29.3279 19.6501 29.3625 19.4877 29.4298C19.3252 29.4971 19.1776 29.5957 19.0533 29.72C18.929 29.8443 18.8304 29.9919 18.7631 30.1543C18.6958 30.3168 18.6612 30.4909 18.6612 30.6667C18.6612 30.8425 18.6958 31.0166 18.7631 31.179C18.8304 31.3414 18.929 31.489 19.0533 31.6133L23.0533 35.6133C23.1779 35.7369 23.3257 35.8347 23.4881 35.901C23.6506 35.9674 23.8245 36.001 24 36C24.3433 35.9986 24.6728 35.8649 24.92 35.6267L28.92 31.76C29.0615 31.6433 29.1773 31.4986 29.2604 31.335C29.3434 31.1714 29.3917 30.9925 29.4024 30.8094C29.4131 30.6263 29.386 30.4429 29.3226 30.2708C29.2592 30.0987 29.1609 29.9415 29.034 29.809C28.9071 29.6766 28.7542 29.5718 28.585 29.5011C28.4157 29.4305 28.2337 29.3955 28.0503 29.3984C27.8669 29.4013 27.686 29.442 27.5191 29.518C27.3521 29.594 27.2026 29.7036 27.08 29.84Z" fill="#2B324C"/>
<path d="M37.2 22.6667C37.2 22.52 37.12 22.3733 37.08 22.2267C37.0183 21.9679 36.9381 21.7139 36.84 21.4667C36.7733 21.3067 36.68 21.1467 36.6 20.9733C36.52 20.8 36.4 20.5733 36.28 20.3867C36.16 20.2 36 20.1067 36 20C36 19.8933 35.7333 19.6667 35.5867 19.5067C35.44 19.3467 35.3067 19.24 35.16 19.1067L34.6667 18.6667L34.1867 18.3467C33.9982 18.2314 33.8022 18.1289 33.6 18.04L33.08 17.8C32.8622 17.7193 32.6395 17.6525 32.4133 17.6C32.2341 17.5473 32.0515 17.5072 31.8667 17.48H31.6267C31.1131 15.879 30.1081 14.4805 28.7545 13.4832C27.401 12.4858 25.7675 11.9403 24.0863 11.924C22.405 11.9078 20.7614 12.4217 19.3888 13.3927C18.0162 14.3638 16.9844 15.7426 16.44 17.3333H16.2C16.0152 17.3605 15.8325 17.4006 15.6533 17.4533C15.4271 17.5059 15.2044 17.5727 14.9867 17.6533L14.4667 17.8933C14.2644 17.9822 14.0684 18.0847 13.88 18.2L13.4 18.6667L12.9067 19.08C12.76 19.2133 12.6133 19.3333 12.48 19.48C12.3467 19.6267 12.2 19.8133 12.0667 19.9733C11.9333 20.1333 11.8267 20.28 11.72 20.4533C11.6133 20.6267 11.5067 20.84 11.4 21.04C11.2933 21.24 11.2267 21.3733 11.16 21.5333C11.0619 21.7806 10.9817 22.0346 10.92 22.2933C10.92 22.44 10.8267 22.5867 10.8 22.7333C10.717 23.1506 10.6724 23.5746 10.6667 24C10.6729 24.4071 10.713 24.8129 10.7867 25.2133C10.7867 25.3467 10.8533 25.4667 10.88 25.6C10.9459 25.8619 11.026 26.1201 11.12 26.3733L11.28 26.76C11.3974 27.0171 11.531 27.2665 11.68 27.5067L11.8667 27.8C11.8858 27.8374 11.9081 27.8731 11.9333 27.9067L12 28C12.621 28.828 13.4262 29.5 14.3519 29.9629C15.2776 30.4257 16.2984 30.6667 17.3333 30.6667C17.3363 29.9606 17.6192 29.2845 18.12 28.7867C18.6178 28.2859 19.2939 28.003 20 28C20.469 27.9956 20.9303 28.1201 21.3333 28.36V24C21.3333 23.2928 21.6143 22.6145 22.1144 22.1144C22.6145 21.6143 23.2927 21.3333 24 21.3333C24.7072 21.3333 25.3855 21.6143 25.8856 22.1144C26.3857 22.6145 26.6667 23.2928 26.6667 24V28.4933C27.0718 28.2583 27.5316 28.1342 28 28.1333C28.7223 28.1401 29.4126 28.4325 29.92 28.9467C30.3689 29.4107 30.6342 30.0219 30.6667 30.6667C31.7016 30.6667 32.7224 30.4257 33.6481 29.9629C34.5738 29.5 35.379 28.828 36 28L36.0667 27.9333C36.0918 27.8997 36.1141 27.864 36.1333 27.8267L36.32 27.5333C36.469 27.2932 36.6026 27.0438 36.72 26.7867L36.88 26.4C36.974 26.1468 37.0541 25.8886 37.12 25.6267C37.12 25.4933 37.1867 25.3733 37.2133 25.24C37.2884 24.8308 37.3286 24.416 37.3333 24C37.3318 23.5523 37.2871 23.1058 37.2 22.6667Z" fill="#2B324C"/>
<path d="M27.08 29.84L25.3333 31.52V24C25.3333 23.6464 25.1928 23.3072 24.9428 23.0572C24.6928 22.8071 24.3536 22.6667 24 22.6667C23.6464 22.6667 23.3072 22.8071 23.0572 23.0572C22.8071 23.3072 22.6667 23.6464 22.6667 24V31.4533L20.9467 29.72C20.8223 29.5957 20.6748 29.4971 20.5123 29.4298C20.3499 29.3625 20.1758 29.3279 20 29.3279C19.8242 29.3279 19.6501 29.3625 19.4877 29.4298C19.3252 29.4971 19.1776 29.5957 19.0533 29.72C18.929 29.8443 18.8304 29.9919 18.7631 30.1543C18.6958 30.3168 18.6612 30.4909 18.6612 30.6667C18.6612 30.8425 18.6958 31.0166 18.7631 31.179C18.8304 31.3414 18.929 31.489 19.0533 31.6133L23.0533 35.6133C23.1779 35.7369 23.3257 35.8347 23.4881 35.901C23.6506 35.9674 23.8245 36.001 24 36C24.3433 35.9986 24.6728 35.8649 24.92 35.6267L28.92 31.76C29.0615 31.6433 29.1773 31.4986 29.2604 31.335C29.3434 31.1714 29.3917 30.9925 29.4024 30.8094C29.4131 30.6263 29.386 30.4429 29.3226 30.2708C29.2592 30.0987 29.1609 29.9415 29.034 29.809C28.9071 29.6766 28.7542 29.5718 28.585 29.5011C28.4157 29.4305 28.2337 29.3955 28.0503 29.3984C27.8669 29.4013 27.686 29.442 27.5191 29.518C27.3521 29.594 27.2026 29.7036 27.08 29.84Z" fill="#2B324C"/>
</svg>
