<svg width="36" height="36" viewBox="0 0 36 36" fill="none" xmlns="http://www.w3.org/2000/svg">
<g clip-path="url(#clip0_9_371)">
<path d="M0 13.4998L17.334 24.5316C17.532 24.6778 17.766 24.7498 18 24.7498C18.234 24.7498 18.468 24.6778 18.666 24.5316L36 13.4998L18.675 0.224805C18.4801 0.0791009 18.2433 0.000366211 18 0.000366211C17.7567 0.000366211 17.5199 0.0791009 17.325 0.224805L0 13.4998Z" fill="#FFE9D5"/>
<path d="M29.25 0H6.75C5.51025 0 4.5 1.01025 4.5 2.25V27C4.5 27.621 5.004 28.125 5.625 28.125H30.375C30.996 28.125 31.5 27.621 31.5 27V2.25C31.5 1.01025 30.492 0 29.25 0Z" fill="#D4DCEE"/>
<path d="M10.125 6.75H25.875C26.496 6.75 27 6.246 27 5.625C27 5.004 26.496 4.5 25.875 4.5H10.125C9.504 4.5 9 5.004 9 5.625C9 6.246 9.504 6.75 10.125 6.75ZM25.875 9H10.125C9.504 9 9 9.504 9 10.125C9 10.746 9.504 11.25 10.125 11.25H25.875C26.496 11.25 27 10.746 27 10.125C27 9.504 26.496 9 25.875 9ZM19.125 13.5H10.125C9.504 13.5 9 14.004 9 14.625C9 15.246 9.504 15.75 10.125 15.75H19.125C19.746 15.75 20.25 15.246 20.25 14.625C20.25 14.004 19.746 13.5 19.125 13.5Z" fill="#898F9C"/>
<path d="M18.666 24.5317C18.468 24.678 18.234 24.75 18 24.75C17.766 24.75 17.532 24.678 17.334 24.5317L0 13.5V33.75C0 34.992 1.008 36 2.25 36H33.75C34.992 36 36 34.992 36 33.75V13.5L18.666 24.5317Z" fill="url(#paint0_linear_9_371)"/>
<path d="M33.75 36H2.25C0.98775 36 0 35.0122 0 33.75C0.000100612 33.5735 0.0416937 33.3994 0.121424 33.2419C0.201154 33.0844 0.316789 32.9478 0.459 32.8433L17.334 21.5933C17.532 21.447 17.766 21.375 18 21.375C18.234 21.375 18.468 21.447 18.666 21.5933L35.541 32.8433C35.6832 32.9478 35.7988 33.0844 35.8786 33.2419C35.9583 33.3994 35.9999 33.5735 36 33.75C36 35.0122 35.0122 36 33.75 36Z" fill="#FF5630"/>
</g>
<defs>
<linearGradient id="paint0_linear_9_371" x1="0" y1="13.5" x2="20.2247" y2="45.8596" gradientUnits="userSpaceOnUse">
<stop stop-color="#FFAC82"/>
<stop offset="1" stop-color="#FF5630"/>
</linearGradient>
<clipPath id="clip0_9_371">
<rect width="36" height="36" fill="white"/>
</clipPath>
</defs>
</svg>
