<svg width="10" height="24" viewBox="0 0 10 24" fill="none" xmlns="http://www.w3.org/2000/svg">
<path d="M4.99999 2.2C4.25738 2.2 3.54519 2.495 3.02009 3.0201C2.49499 3.54521 2.19999 4.2574 2.19999 5C2.19999 7.891 3.24439 11.881 3.85759 13.9642C3.9315 14.2089 4.08313 14.4228 4.28952 14.5737C4.4959 14.7245 4.7458 14.8039 5.00139 14.8C5.25638 14.8038 5.50569 14.7246 5.71175 14.5744C5.9178 14.4241 6.06944 14.2109 6.14379 13.967C6.75699 11.895 7.79999 7.926 7.79999 5C7.79999 4.2574 7.50499 3.54521 6.97989 3.0201C6.45478 2.495 5.74259 2.2 4.99999 2.2ZM0.799988 5C0.799988 3.88609 1.24249 2.81781 2.03014 2.03015C2.81779 1.2425 3.88608 0.800003 4.99999 0.800003C6.1139 0.800003 7.18218 1.2425 7.96984 2.03015C8.75749 2.81781 9.19999 3.88609 9.19999 5C9.19999 8.15 8.09679 12.2996 7.48639 14.366C7.32595 14.8994 6.99693 15.3665 6.54866 15.6971C6.10038 16.0278 5.557 16.2042 4.99999 16.2C3.86459 16.2 2.84119 15.472 2.51359 14.359C1.90459 12.2856 0.799988 8.1178 0.799988 5ZM4.99999 19C4.62868 19 4.27259 19.1475 4.01004 19.4101C3.74749 19.6726 3.59999 20.0287 3.59999 20.4C3.59999 20.7713 3.74749 21.1274 4.01004 21.39C4.27259 21.6525 4.62868 21.8 4.99999 21.8C5.37129 21.8 5.72739 21.6525 5.98994 21.39C6.25249 21.1274 6.39999 20.7713 6.39999 20.4C6.39999 20.0287 6.25249 19.6726 5.98994 19.4101C5.72739 19.1475 5.37129 19 4.99999 19ZM2.19999 20.4C2.19999 19.6574 2.49499 18.9452 3.02009 18.4201C3.54519 17.895 4.25738 17.6 4.99999 17.6C5.74259 17.6 6.45478 17.895 6.97989 18.4201C7.50499 18.9452 7.79999 19.6574 7.79999 20.4C7.79999 21.1426 7.50499 21.8548 6.97989 22.3799C6.45478 22.905 5.74259 23.2 4.99999 23.2C4.25738 23.2 3.54519 22.905 3.02009 22.3799C2.49499 21.8548 2.19999 21.1426 2.19999 20.4Z" fill="black"/>
</svg>
