<svg width="28" height="34" viewBox="0 0 28 34" fill="none" xmlns="http://www.w3.org/2000/svg">
<path d="M23.5526 31.786H4.44737C2.23684 31.786 0.5 29.8884 0.5 27.8326V3.95349C0.5 1.73953 2.23684 0 4.44737 0H23.5526C25.7632 0 27.5 1.73953 27.5 3.95349V27.8326C27.5 30.0465 25.7632 31.786 23.5526 31.786ZM4.44737 1.42326C3.02632 1.42326 1.92105 2.53023 1.92105 3.95349V27.8326C1.92105 29.2558 3.02632 30.3628 4.44737 30.3628H23.5526C24.9737 30.3628 26.0789 29.2558 26.0789 27.8326V3.95349C26.0789 2.53023 24.9737 1.42326 23.5526 1.42326H4.44737ZM3.97368 32.5767H8.86842V34H3.97368V32.5767ZM19.1316 32.5767H24.0263V34H19.1316V32.5767Z" fill="#868788"/>
<path d="M14.0788 27.8326C9.81567 27.8326 6.49988 24.3535 6.49988 20.2419C6.49988 15.9721 9.97356 12.6512 14.0788 12.6512C18.1841 12.6512 21.6578 16.1302 21.6578 20.2419C21.6578 24.3535 18.1841 27.8326 14.0788 27.8326ZM14.0788 14.0744C10.6051 14.0744 7.92093 16.9209 7.92093 20.2419C7.92093 23.5628 10.6051 26.4093 14.0788 26.4093C17.3946 26.4093 20.2367 23.5628 20.2367 20.2419C20.2367 16.7628 17.3946 14.0744 14.0788 14.0744Z" fill="#868788"/>
<path d="M14.0788 23.5628C12.1841 23.5628 10.6052 22.1396 10.6052 20.2419C10.6052 18.3442 12.1841 16.7628 14.0788 16.7628C15.9736 16.7628 17.3946 18.1861 17.3946 20.2419C17.3946 22.1396 15.9736 23.5628 14.0788 23.5628ZM14.0788 18.1861C12.9736 18.1861 12.0262 18.9768 12.0262 20.0838C12.0262 21.1907 12.9736 21.9814 14.0788 21.9814C15.1841 21.9814 16.1315 21.1907 16.1315 20.0838C15.9736 19.1349 15.1841 18.1861 14.0788 18.1861ZM14.0788 10.7535C12.1841 10.7535 10.6052 9.17213 10.6052 7.27446C10.6052 5.37678 12.1841 3.95353 14.0788 3.95353C15.9736 3.95353 17.3946 5.37678 17.3946 7.27446C17.3946 9.17213 15.9736 10.7535 14.0788 10.7535ZM14.0788 5.37678C12.9736 5.37678 12.0262 6.32562 12.0262 7.27446C12.0262 8.38143 12.9736 9.33027 14.0788 9.33027C15.1841 9.33027 16.1315 8.53957 16.1315 7.27446C15.9736 6.32562 15.1841 5.37678 14.0788 5.37678ZM4.76306 3.79539C4.28938 3.79539 3.97359 4.11167 3.97359 4.58608C3.97359 5.0605 4.28938 5.37678 4.76306 5.37678C5.23674 5.37678 5.55253 5.0605 5.55253 4.58608C5.55253 4.11167 5.07885 3.79539 4.76306 3.79539ZM23.8683 3.95353C23.7104 3.79539 23.5525 3.79539 23.3946 3.79539C22.921 3.79539 22.6052 4.11167 22.6052 4.58608C22.6052 5.0605 22.921 5.37678 23.3946 5.37678C23.8683 5.37678 24.1841 5.0605 24.1841 4.58608C24.1841 4.26981 24.0262 4.11167 23.8683 3.95353ZM4.76306 26.4093C4.28938 26.4093 3.97359 26.7256 3.97359 27.2C3.81569 27.6745 4.13148 27.9907 4.76306 27.9907C5.23674 27.9907 5.55253 27.6745 5.55253 27.2C5.55253 26.7256 5.07885 26.4093 4.76306 26.4093ZM23.3946 26.4093C22.921 26.4093 22.6052 26.7256 22.6052 27.2C22.6052 27.6745 22.921 27.9907 23.3946 27.9907C23.8683 27.9907 24.1841 27.6745 24.1841 27.2C24.1841 26.7256 23.8683 26.4093 23.3946 26.4093Z" fill="#868788"/>
</svg>
