<svg width="38" height="40" viewBox="0 0 38 40" fill="none" xmlns="http://www.w3.org/2000/svg">
<path d="M12.7151 33.9368C13.0377 33.5934 13.2028 33.1433 13.1796 32.6695C13.1352 31.7564 12.3753 31.0411 11.4496 31.0411H6.27747L4.3229 22.3432C4.22255 21.8967 3.95656 21.5164 3.57396 21.2727C3.19135 21.0288 2.73795 20.9507 2.29723 21.0522C1.38761 21.2622 0.816143 22.1828 1.02325 23.1044L3.27772 33.1365C3.42152 33.7755 3.89776 34.2575 4.49839 34.4149L2.6638 39.0756C2.6263 39.1709 2.63783 39.279 2.69465 39.364C2.75155 39.449 2.84624 39.4998 2.94758 39.4998H5.32867C5.46728 39.4998 5.58848 39.4053 5.62399 39.2695L6.87757 34.4699H8.59418V39.1903C8.59418 39.3613 8.73096 39.4998 8.89965 39.4998H11.3996C11.4882 39.4998 11.5725 39.4608 11.6304 39.3931C11.6884 39.3253 11.7146 39.2353 11.7021 39.1464L11.0407 34.4699H11.4896C11.9502 34.4699 12.3969 34.2756 12.7151 33.9368ZM3.87355 32.999L1.61908 22.9671C1.48673 22.3783 1.85185 21.79 2.43294 21.6559C2.51351 21.6374 2.59461 21.6282 2.67518 21.6282C2.87648 21.6282 3.07413 21.6855 3.2487 21.7968C3.49316 21.9526 3.66315 22.1954 3.72723 22.4807L5.73587 31.4194C5.76756 31.5602 5.89112 31.6602 6.0337 31.6602H11.4495C12.0491 31.6602 12.541 32.1169 12.5694 32.7C12.5841 33.0029 12.4787 33.2906 12.2725 33.51C12.066 33.7299 11.788 33.8509 11.4897 33.8509H4.92751C4.41989 33.8509 3.98642 33.5006 3.87355 32.999ZM5.09361 38.8808H3.39839L5.13462 34.4699H6.2457L5.09361 38.8808ZM11.0474 38.8808H9.20528V34.4699H10.4237L11.0474 38.8808ZM35.7027 21.0523C35.2623 20.9507 34.8087 21.0289 34.4261 21.2728C34.0435 21.5166 33.7775 21.8968 33.6771 22.3433L31.7226 31.0412H26.5504C25.6248 31.0412 24.8648 31.7564 24.8204 32.6695C24.7972 33.1433 24.9623 33.5934 25.2849 33.9369C25.6032 34.2757 26.0498 34.47 26.5103 34.47H26.9592L26.2978 39.1465C26.2853 39.2354 26.3114 39.3254 26.3694 39.3932C26.4275 39.461 26.5116 39.5 26.6002 39.5H29.1002C29.2689 39.5 29.4057 39.3614 29.4057 39.1905V34.4701H31.1223L32.3759 39.2696C32.4114 39.4054 32.5326 39.5 32.6712 39.5H35.0523C35.1536 39.5 35.2482 39.4492 35.3052 39.3641C35.362 39.2792 35.3736 39.1711 35.3361 39.0758L33.5015 34.415C34.1021 34.2577 34.5783 33.7756 34.7222 33.1366L36.9767 23.1047C37.1838 22.1829 36.6124 21.2622 35.7027 21.0523ZM28.7948 38.8808H26.9527L27.5764 34.4699H28.7948V38.8808ZM32.9065 38.8808L31.7545 34.4699H32.8656L34.6017 38.8808H32.9065ZM36.381 22.9672L34.1266 32.9989C34.0137 33.5006 33.5802 33.851 33.0725 33.851H26.5103C26.212 33.851 25.934 33.73 25.7276 33.5101C25.5214 33.2907 25.4159 33.003 25.4306 32.7001C25.4591 32.117 25.9509 31.6603 26.5505 31.6603H31.9663C32.1089 31.6603 32.2325 31.5603 32.2642 31.4194L34.2729 22.4807C34.337 22.1954 34.5069 21.9525 34.7514 21.7967C34.9959 21.6409 35.2854 21.5909 35.5671 21.6559C36.1483 21.79 36.5134 22.3782 36.381 22.9672ZM37.3495 11.9037L23.0616 3.37647C22.3157 2.9313 21.464 2.69606 20.5984 2.69606H20.1563V1.6717C20.1563 1.02565 19.6376 0.5 19 0.5C18.3625 0.5 17.8437 1.02565 17.8437 1.6717V2.69606H17.4016C16.536 2.69606 15.6843 2.9313 14.9384 3.37647L0.6505 11.9037C0.507768 11.9889 0.458052 12.1738 0.538392 12.3206C0.58658 12.4086 1.74173 14.4823 3.80986 15.1231C5.56694 15.6675 7.5752 15.0917 8.17606 14.8922C8.68987 15.3364 10.5451 16.8139 12.894 17.1888C14.6031 17.4614 16.6087 17.221 17.8437 17.0095V26.1987H11.1294C10.9607 26.1987 10.8239 26.3373 10.8239 26.5083V29.5406C10.8239 29.7116 10.9607 29.8502 11.1294 29.8502H15.5673L16.6376 33.3123L13.1511 39.0277C13.0928 39.1232 13.0901 39.2431 13.1441 39.3412C13.198 39.4393 13.3001 39.5 13.4109 39.5H15.5877C15.6956 39.5 15.7955 39.4423 15.8505 39.3483L17.8437 35.9396V39.1903C17.8437 39.3613 17.9805 39.4998 18.1492 39.4998H19.8509C20.0196 39.4998 20.1563 39.3613 20.1563 39.1903V35.9394L22.1496 39.3481C22.2046 39.4422 22.3044 39.4998 22.4123 39.4998H24.5891C24.6999 39.4998 24.802 39.4391 24.856 39.3411C24.9099 39.2429 24.9072 39.1231 24.8489 39.0275L21.3624 33.3121L22.4327 29.85H26.8706C27.0393 29.85 27.1761 29.7114 27.1761 29.5405V26.5081C27.1761 26.3372 27.0393 26.1986 26.8706 26.1986H20.1563V17.0094C20.9964 17.1533 22.1926 17.3106 23.4103 17.3106C23.9825 17.3106 24.5594 17.2759 25.1059 17.1887C27.4549 16.8139 29.3102 15.3363 29.8239 14.8921C30.4248 15.0916 32.433 15.6675 34.1901 15.123C36.2582 14.4822 37.4134 12.4085 37.4616 12.3205C37.542 12.1738 37.4923 11.9889 37.3495 11.9037ZM36.4749 12.1002C35.7262 12.334 34.3601 12.6536 32.8719 12.4787C30.7343 12.2273 28.5009 10.7334 28.2887 10.5885L20.6245 3.31549C21.3721 3.32014 22.1071 3.5252 22.7516 3.90978L36.4749 12.1002ZM24.0727 12.781C22.2107 13.1548 20.0132 12.7607 19.3055 12.6122V3.31511H19.7302L27.6556 10.836C27.1502 11.3106 25.806 12.4331 24.0727 12.781ZM13.9274 12.781C12.194 12.433 10.8496 11.3105 10.3445 10.836L18.2699 3.31511H18.6946V12.6122C17.9869 12.7607 15.7895 13.1549 13.9274 12.781ZM18.4546 1.6717C18.4546 1.36697 18.6993 1.11905 19 1.11905C19.3008 1.11905 19.5455 1.36697 19.5455 1.6717V2.69606H18.4547V1.6717H18.4546ZM15.2485 3.90978C15.893 3.5252 16.628 3.32014 17.3756 3.31549L9.71145 10.5885C9.49922 10.7333 7.26575 12.2273 5.1282 12.4787C3.63979 12.6537 2.27363 12.3341 1.52515 12.1003L15.2485 3.90978ZM3.98856 14.531C2.90298 14.1947 2.08271 13.3796 1.59281 12.7686C2.42568 13.0063 3.74517 13.2642 5.19854 13.0936C7.20626 12.8575 9.2133 11.65 9.86266 11.2286C9.9601 11.3232 10.0948 11.4482 10.2624 11.5906L8.06357 14.2768C7.65813 14.4158 5.65049 15.0461 3.98856 14.531ZM12.9891 16.5772C10.9473 16.2514 9.25668 14.9869 8.672 14.5034L10.7438 11.9723C11.4724 12.5116 12.5347 13.1325 13.8087 13.3883C15.2307 13.6737 16.7925 13.5469 17.8437 13.3929V16.3814C16.6604 16.5898 14.6631 16.8443 12.9891 16.5772ZM16.2076 29.85H18.6946V33.0451H17.1953L16.2076 29.85ZM15.4136 38.8808H13.9588L17.1411 33.6641H18.4639L15.4136 38.8808ZM19.5454 38.8808H18.4546V34.8945L19 33.9618L19.5455 34.8945V38.8808H19.5454ZM24.0413 38.8808H22.5865L19.5362 33.6641H20.859L24.0413 38.8808ZM20.8048 33.0451H19.3055V29.85H21.7925L20.8048 33.0451ZM26.5652 29.231H11.4349V26.8176H26.5652V29.231ZM18.4546 26.1986V13.2916C18.7121 13.2438 18.9018 13.2019 19 13.1791C19.0983 13.2019 19.2878 13.2438 19.5455 13.2916V26.1986H18.4546ZM25.011 16.5772C23.3368 16.8443 21.3396 16.5899 20.1564 16.3814V13.3929C20.751 13.4801 21.5088 13.5585 22.3127 13.5585C22.9297 13.5585 23.574 13.5123 24.1914 13.3884C25.4654 13.1326 26.5277 12.5117 27.2563 11.9724L29.3281 14.5035C28.7433 14.987 27.0526 16.2514 25.011 16.5772ZM34.0115 14.531C32.3493 15.046 30.3413 14.4155 29.9365 14.2768L27.7377 11.5906C27.9053 11.4482 28.0399 11.3232 28.1374 11.2286C28.7867 11.6499 30.7938 12.8575 32.8015 13.0936C34.2549 13.2644 35.5742 13.0066 36.4071 12.7688C35.9172 13.3798 35.0969 14.1947 34.0115 14.531Z" fill="#868788"/>
</svg>
