<svg width="42" height="32" viewBox="0 0 42 32" fill="none" xmlns="http://www.w3.org/2000/svg">
<path d="M26.6028 29.9903H3.97248C3.2237 29.9903 2.61442 29.381 2.61442 28.6322V25.2471C1.34383 25.0245 0.375107 23.913 0.375107 22.5797C0.375107 21.8553 0.656732 21.1749 1.16804 20.6637C1.67926 20.1525 2.35942 19.8708 3.08317 19.8708C3.49567 19.8708 3.89054 19.9605 4.25692 20.1376C5.1887 20.5868 5.79114 21.5456 5.79114 22.5798V24.3504H24.7851V22.5798C24.7851 21.5464 25.3869 20.5877 26.3183 20.1376C26.6888 19.9604 27.0835 19.8708 27.493 19.8708C28.9862 19.8708 30.201 21.0861 30.201 22.5798C30.201 23.3025 29.9196 23.9824 29.4085 24.4946C29.0083 24.894 28.5063 25.1531 27.9618 25.2477V28.6324C27.9619 29.381 27.3522 29.9903 26.6028 29.9903ZM3.08317 20.8082C2.60992 20.8082 2.16517 20.9924 1.83095 21.3265C1.49664 21.6608 1.31261 22.1057 1.31261 22.5797C1.31261 23.556 2.10686 24.3503 3.08317 24.3503C3.34201 24.3503 3.55192 24.5601 3.55192 24.819V28.6323C3.55192 28.8643 3.74054 29.0529 3.97248 29.0529H26.6028C26.8352 29.0529 27.0244 28.8642 27.0244 28.6323V24.819C27.0244 24.5601 27.2342 24.3503 27.4931 24.3503C27.9656 24.3503 28.4105 24.1661 28.7457 23.8317C29.0794 23.4973 29.2635 23.0523 29.2635 22.5797C29.2635 21.603 28.4693 20.8082 27.493 20.8082C27.2246 20.8082 26.9661 20.8668 26.7246 20.9823C26.1071 21.2808 25.7226 21.8931 25.7226 22.5796V24.819C25.7226 25.0779 25.5128 25.2877 25.2538 25.2877H5.32239C5.06354 25.2877 4.85364 25.0779 4.85364 24.819V22.5796C4.85364 21.903 4.45942 21.2759 3.84939 20.9818C3.61089 20.8665 3.35326 20.8082 3.08317 20.8082Z" fill="#868788"/>
<path d="M26.5224 21.0294C26.2635 21.0294 26.0536 20.8196 26.0536 20.5607V16.7506C26.0536 16.5184 25.8647 16.3297 25.6326 16.3297H4.94311C4.71089 16.3297 4.52208 16.5185 4.52208 16.7506V20.5607C4.52208 20.8196 4.31217 21.0294 4.05333 21.0294C3.79449 21.0294 3.58458 20.8196 3.58458 20.5607V16.7506C3.58458 16.0015 4.19405 15.3921 4.94311 15.3921H25.6326C26.3817 15.3921 26.9911 16.0014 26.9911 16.7506V20.5607C26.9911 20.8196 26.7813 21.0294 26.5224 21.0294Z" fill="#868788"/>
<path d="M15.2879 23.7062C15.0291 23.7062 14.8192 23.4964 14.8192 23.2374V17.4464C14.8192 17.1875 15.0291 16.9776 15.2879 16.9776C15.5467 16.9776 15.7567 17.1875 15.7567 17.4464V23.2374C15.7567 23.4964 15.5468 23.7062 15.2879 23.7062ZM7.41422 31.8219H5.32237C5.06353 31.8219 4.85362 31.6121 4.85362 31.3532V29.5216C4.85362 29.2626 5.06353 29.0528 5.32237 29.0528H7.41422C7.67306 29.0528 7.88297 29.2626 7.88297 29.5216V31.3531C7.88297 31.612 7.67315 31.8219 7.41422 31.8219ZM5.79112 30.8844H6.94547V29.9904H5.79112V30.8844ZM25.2534 31.8219H23.1616C22.9027 31.8219 22.6928 31.6121 22.6928 31.3532V29.5216C22.6928 29.2626 22.9027 29.0528 23.1616 29.0528H25.2534C25.5124 29.0528 25.7222 29.2626 25.7222 29.5216V31.3531C25.7222 31.612 25.5124 31.8219 25.2534 31.8219ZM23.6303 30.8844H24.7847V29.9904H23.6303V30.8844Z" fill="#868788"/>
<path d="M40.4797 31.2594H32.5625C32.3035 31.2594 32.0937 31.0496 32.0937 30.7906V29.4495C32.0937 28.6738 32.7247 28.0426 33.5005 28.0426H39.5416C40.3173 28.0426 40.9484 28.6737 40.9484 29.4495V30.7906C40.9484 31.0495 40.7386 31.2594 40.4797 31.2594ZM33.0312 30.3219H40.0109V29.4495C40.0109 29.1907 39.8003 28.9801 39.5416 28.9801H33.5005C33.2418 28.9801 33.0312 29.1907 33.0312 29.4495V30.3219Z" fill="#868788"/>
<path d="M36.5208 28.9801C36.2618 28.9801 36.052 28.7702 36.052 28.5113V10.0141C36.052 9.75521 36.2618 9.5453 36.5208 9.5453C36.7797 9.5453 36.9895 9.75521 36.9895 10.0141V28.5113C36.9895 28.7702 36.7796 28.9801 36.5208 28.9801Z" fill="#868788"/>
<path d="M41.1563 10.4828H31.8859C31.7489 10.4828 31.6188 10.4229 31.5298 10.3188C31.4408 10.2149 31.4017 10.0771 31.4227 9.94177L32.5791 2.52812C32.6147 2.29984 32.8113 2.13165 33.0422 2.13165H39.9998C40.2308 2.13165 40.4273 2.29993 40.4629 2.52812L41.6193 9.94177C41.6404 10.0771 41.6013 10.2149 41.5121 10.3188C41.4233 10.423 41.2932 10.4828 41.1563 10.4828ZM32.4335 9.54531H40.6087L39.5986 3.06915H33.4436L32.4335 9.54531Z" fill="#868788"/>
<path d="M38.132 3.06952C37.8781 3.06952 37.6694 2.86674 37.6635 2.61155C37.6493 1.99618 37.1367 1.49555 36.5208 1.49555C35.9049 1.49555 35.3923 1.99618 35.3782 2.61155C35.3722 2.8703 35.1597 3.07627 34.8987 3.06933C34.6399 3.06343 34.4349 2.84874 34.4408 2.5899C34.4667 1.46949 35.3998 0.557961 36.5209 0.557961C37.6419 0.557961 38.575 1.46949 38.601 2.5899C38.6069 2.84874 38.402 3.06333 38.1431 3.06933C38.1393 3.06952 38.1356 3.06952 38.132 3.06952Z" fill="#868788"/>
<path d="M20.748 12.8295H9.82823C9.56939 12.8295 9.35948 12.6195 9.35948 12.3607V3.51604C9.35948 3.2572 9.56939 3.04729 9.82823 3.04729H20.748C21.0068 3.04729 21.2167 3.2572 21.2167 3.51604V12.3607C21.2168 12.6195 21.0069 12.8295 20.748 12.8295ZM10.297 11.892H20.2792V3.98479H10.297V11.892Z" fill="#868788"/>
<path d="M9.82823 10.9444C9.7103 10.9444 9.59217 10.9002 9.50105 10.8114C9.3157 10.6306 9.31186 10.3339 9.49261 10.1485L12.5485 7.01358C12.6367 6.92311 12.7577 6.87201 12.8842 6.87201C13.0107 6.87201 13.1316 6.92301 13.2199 7.01358L15.9295 9.79317C16.1101 9.97861 16.1064 10.2753 15.921 10.4561C15.7356 10.6368 15.4388 10.633 15.2581 10.4476L12.8843 8.0123L10.164 10.8029C10.0721 10.8971 9.9502 10.9444 9.82823 10.9444Z" fill="#868788"/>
<path d="M20.748 11.4041C20.6261 11.4041 20.5042 11.3568 20.4123 11.2625L17.7736 8.55558L15.3671 11.0245C15.1863 11.2099 14.8895 11.2137 14.7042 11.0329C14.5187 10.8522 14.515 10.5555 14.6957 10.37L17.438 7.55676C17.5262 7.4662 17.6473 7.4152 17.7737 7.4152C17.9002 7.4152 18.0211 7.4662 18.1095 7.55676L21.0839 10.608C21.2645 10.7935 21.2608 11.0902 21.0754 11.271C20.9841 11.3597 20.866 11.4041 20.748 11.4041ZM15.6492 7.4753C14.9069 7.4753 14.3029 6.87136 14.3029 6.12905C14.3029 5.38673 14.9069 4.78289 15.6492 4.78289C16.3915 4.78289 16.9953 5.38673 16.9953 6.12905C16.9953 6.87136 16.3915 7.4753 15.6492 7.4753ZM15.6492 5.72039C15.4238 5.72039 15.2404 5.90377 15.2404 6.12905C15.2404 6.35433 15.4238 6.5378 15.6492 6.5378C15.8745 6.5378 16.0578 6.35442 16.0578 6.12905C16.0578 5.90367 15.8745 5.72039 15.6492 5.72039ZM17.0955 3.9848C16.9398 3.9848 16.7876 3.90726 16.6984 3.7658L15.2881 1.52648L13.8779 3.7658C13.74 3.9848 13.4505 4.05061 13.2314 3.91261C13.0124 3.77461 12.9465 3.4852 13.0845 3.26611L14.8915 0.396984C14.9774 0.260671 15.1271 0.178078 15.2881 0.178078C15.4492 0.178078 15.5989 0.260765 15.6848 0.396984L17.4917 3.26611C17.6297 3.4852 17.5639 3.77461 17.3449 3.91261C17.2673 3.96155 17.1809 3.9848 17.0955 3.9848Z" fill="#868788"/>
</svg>
