<svg width="34" height="34" viewBox="0 0 34 34" fill="none" xmlns="http://www.w3.org/2000/svg">
<path d="M26.1429 13.1905V19.2857M3.28571 28.4286C2.06667 28.4286 1 29.4952 1 30.7143V33H33V30.7143C33 29.4952 31.9333 28.4286 30.7143 28.4286H3.28571Z" stroke="#868788" stroke-linecap="round" stroke-linejoin="round"/>
<path d="M27.6667 1H3.28571C2.06667 1 1 2.06667 1 3.28571V7.85714C1 9.07619 2.06667 10.1429 3.28571 10.1429H4.80952C5.26667 12.8857 5.57143 15.781 5.57143 18.5238C5.57143 21.8762 5.11429 25.2286 4.35238 28.4286H14.7143V10.1429H22.3333V10.9048C22.3333 12.1238 23.4 13.1905 24.619 13.1905H27.6667C28.8857 13.1905 29.9524 12.1238 29.9524 10.9048V3.28571C29.9524 2.06667 28.8857 1 27.6667 1Z" stroke="#868788" stroke-linecap="round" stroke-linejoin="round"/>
<path d="M9.38095 21.5714C9.80174 21.5714 10.1429 21.2303 10.1429 20.8095C10.1429 20.3887 9.80174 20.0476 9.38095 20.0476C8.96017 20.0476 8.61905 20.3887 8.61905 20.8095C8.61905 21.2303 8.96017 21.5714 9.38095 21.5714Z" stroke="#868788" stroke-linecap="round" stroke-linejoin="round"/>
<path d="M9.38095 16.2381C9.80174 16.2381 10.1429 15.897 10.1429 15.4762C10.1429 15.0554 9.80174 14.7143 9.38095 14.7143C8.96017 14.7143 8.61905 15.0554 8.61905 15.4762C8.61905 15.897 8.96017 16.2381 9.38095 16.2381Z" stroke="#868788" stroke-linecap="round" stroke-linejoin="round"/>
<path d="M11.6667 4.04762V7.09524M7.09524 4.04762H16.2381C17.1524 4.04762 17.7619 4.65714 17.7619 5.57143C17.7619 6.48571 17.1524 7.09524 16.2381 7.09524H7.09524C6.18095 7.09524 5.57143 6.48571 5.57143 5.57143C5.57143 4.65714 6.18095 4.04762 7.09524 4.04762ZM33 20.8095C33 25.0762 29.6476 28.4286 25.381 28.4286C21.1143 28.4286 17.7619 25.0762 17.7619 20.8095V19.2857H33V20.8095Z" stroke="#868788" stroke-linecap="round" stroke-linejoin="round"/>
</svg>
