<svg width="20" height="20" viewBox="0 0 20 20" fill="none" xmlns="http://www.w3.org/2000/svg">
<path d="M15.215 2.92334C15.3292 2.97064 15.4268 3.05076 15.4955 3.15356C15.5642 3.25635 15.6008 3.37721 15.6008 3.50084V7.03667C15.6008 7.20243 15.535 7.3614 15.4178 7.47861C15.3005 7.59582 15.1416 7.66167 14.9758 7.66167H11.44C11.3165 7.66156 11.1957 7.62485 11.093 7.55616C10.9904 7.48748 10.9103 7.38991 10.8631 7.27577C10.8158 7.16164 10.8034 7.03605 10.8275 6.91489C10.8516 6.79372 10.911 6.68241 10.9983 6.595L12.3333 5.25834C11.107 4.74482 9.7456 4.65012 8.46002 4.98892C7.17445 5.32772 6.03652 6.08109 5.22259 7.13229C4.40867 8.18349 3.9642 9.4738 3.95807 10.8033C3.95194 12.1327 4.38449 13.4271 5.18869 14.4857C5.99289 15.5444 7.12382 16.3082 8.40622 16.6589C9.68862 17.0095 11.0509 16.9274 12.2818 16.4252C13.5128 15.923 14.5438 15.0288 15.2149 13.8812C15.8861 12.7335 16.16 11.3966 15.9942 10.0775C15.977 9.91479 16.0243 9.75184 16.1259 9.62363C16.2276 9.49542 16.3754 9.41218 16.5378 9.39178C16.7001 9.37137 16.864 9.41544 16.9942 9.51452C17.1244 9.61359 17.2105 9.75977 17.2342 9.92167C17.437 11.5351 17.0947 13.1701 16.2616 14.5667C15.4285 15.9633 14.1525 17.0413 12.6364 17.6294C11.1203 18.2174 9.45107 18.2818 7.89415 17.8123C6.33723 17.3428 4.98194 16.3663 4.04373 15.0381C3.10551 13.7099 2.63822 12.1061 2.71614 10.4818C2.79406 8.85751 3.41272 7.30587 4.47376 6.07354C5.53481 4.84122 6.97734 3.99894 8.57205 3.68061C10.1668 3.36228 11.8221 3.58616 13.275 4.31667L14.5333 3.05834C14.6208 2.97107 14.7321 2.91167 14.8533 2.88764C14.9745 2.86361 15.1009 2.87603 15.215 2.92334Z" fill="#363839"/>
</svg>
