<svg width="14" height="29" viewBox="0 0 14 29" fill="none" xmlns="http://www.w3.org/2000/svg">
<path d="M11.8796 24.9313C11.7693 24.9843 11.532 25.0769 11.0308 25.2183C10.6464 25.326 10.306 25.3806 10.0189 25.3806C9.24395 25.3806 8.94697 25.2318 8.84087 25.1451C8.69333 25.0231 8.60892 24.6853 8.60892 24.2186C8.60892 24.0532 8.63135 23.7318 8.73782 23.1338C8.82262 22.6399 8.92149 22.1903 9.03329 21.7956L10.4361 16.7361C10.5848 16.2361 10.6874 15.6811 10.7414 15.0874C10.7939 14.5246 10.8201 14.1133 10.8201 13.8654C10.8201 12.6302 10.3844 11.6074 9.52535 10.8261C8.68535 10.0624 7.50045 9.67544 6.00335 9.67544C5.19339 9.67544 4.32754 9.82262 3.43088 10.1127C2.51888 10.4095 1.61885 10.7431 0.732912 11.1128C0.649502 11.1475 0.575329 11.2018 0.516447 11.2712C0.457565 11.3407 0.415641 11.4234 0.394097 11.5125L0.0161163 13.0819C-0.00829711 13.1843 -0.00492076 13.2916 0.0258831 13.3922C0.0566869 13.4929 0.11376 13.5831 0.191005 13.6532C0.268249 13.7234 0.362761 13.7709 0.464438 13.7906C0.566115 13.8103 0.671136 13.8015 0.768276 13.7651C1.08184 13.6481 1.39916 13.5417 1.71969 13.4463C2.03126 13.3494 2.35486 13.2985 2.68062 13.2953C3.50237 13.2953 3.74345 13.4668 3.79707 13.5187C3.86285 13.5827 4.01572 13.8019 4.01572 14.4587C4.01572 14.7841 3.97617 15.1458 3.89822 15.5378C3.80892 15.988 3.70646 16.4354 3.59097 16.8794L2.17297 21.9916C2.05462 22.4849 1.95945 22.9837 1.88777 23.4862C1.82843 23.9252 1.79832 24.3677 1.79765 24.8108C1.79765 26.0258 2.2456 27.0437 3.13009 27.8369C3.99366 28.6084 5.19377 29 6.69619 29C7.64723 29 8.4994 28.8691 9.22798 28.6107C9.91816 28.3667 10.8361 28.0151 11.9548 27.565C12.1271 27.4957 12.2556 27.3458 12.2994 27.1626L12.6758 25.5947C12.7014 25.4883 12.6969 25.3766 12.6628 25.2726C12.6287 25.1687 12.5664 25.0767 12.4831 25.0073C12.3998 24.9379 12.2989 24.8939 12.1921 24.8805C12.0853 24.867 11.9769 24.8846 11.8796 24.9313ZM11.262 26.5944C10.2821 26.9864 9.47325 27.2951 8.85418 27.5135C8.24576 27.7292 7.51984 27.8385 6.69695 27.8385C5.47935 27.8385 4.53288 27.5441 3.88415 26.9643C3.24835 26.3942 2.9392 25.69 2.9392 24.8112C2.9392 24.4301 2.96581 24.0374 3.01867 23.645C3.07381 23.2399 3.16279 22.7743 3.27725 22.2848L4.69221 17.1847C4.82682 16.661 4.9333 16.1966 5.01733 15.7671C5.11012 15.3015 5.15727 14.8612 5.15727 14.4587C5.15727 13.6345 4.97018 13.052 4.58497 12.6775C4.20661 12.3115 3.58412 12.1333 2.68176 12.1333C2.26803 12.1333 1.83605 12.2003 1.39799 12.332L1.37061 12.3402L1.43374 12.0783C2.20429 11.7633 2.98587 11.477 3.77691 11.22C4.56216 10.966 5.31165 10.8374 6.00449 10.8374C7.21297 10.8374 8.14195 11.1252 8.76672 11.693C9.38161 12.2518 9.68049 12.9622 9.68049 13.865C9.68049 14.0106 9.66795 14.322 9.60711 14.9789C9.55995 15.496 9.47211 15.9735 9.34282 16.4093L7.93775 21.4761C7.80544 21.9544 7.69806 22.4394 7.61605 22.9293C7.5187 23.4746 7.46927 23.908 7.46927 24.2179C7.46927 25.0839 7.68297 25.6819 8.12446 26.0475C8.52982 26.3802 9.15003 26.5417 10.0201 26.5417C10.4068 26.5417 10.8449 26.4739 11.3244 26.3407L11.262 26.5944ZM9.12873 7.55917C10.1973 7.55917 11.1244 7.19239 11.8845 6.47005C12.658 5.73919 13.05 4.83637 13.05 3.78636C13.05 2.74101 12.6587 1.83625 11.8864 1.09764C11.1247 0.369108 10.1969 0 9.12835 0C8.05829 0 7.12627 0.368722 6.35928 1.09648C5.58012 1.83625 5.18503 2.7414 5.18503 3.78636C5.18503 4.83598 5.58126 5.73919 6.36156 6.47121C7.12969 7.19316 8.06057 7.55917 9.12873 7.55917ZM7.13692 1.94663C7.69362 1.41872 8.34501 1.16232 9.12835 1.16232C9.90789 1.16232 10.5547 1.41834 11.1053 1.94508C11.6461 2.46253 11.9088 3.06519 11.9088 3.78714C11.9088 4.51064 11.6472 5.10981 11.1069 5.6199C10.5562 6.14316 9.90941 6.39762 9.12835 6.39762C8.34501 6.39762 7.69324 6.14277 7.13425 5.61719C6.59048 5.1071 6.32582 4.50831 6.32582 3.78675C6.3262 3.06674 6.59124 2.46485 7.13692 1.94663Z" fill="#D8D9D9"/>
<path d="M11.262 26.5944C10.2821 26.9864 9.47325 27.2951 8.85418 27.5135C8.24576 27.7292 7.51984 27.8385 6.69695 27.8385C5.47935 27.8385 4.53288 27.5441 3.88415 26.9643C3.24835 26.3942 2.9392 25.69 2.9392 24.8112C2.9392 24.4301 2.96581 24.0374 3.01867 23.645C3.07381 23.2399 3.16279 22.7743 3.27725 22.2848L4.69221 17.1847C4.82682 16.661 4.9333 16.1966 5.01733 15.7671C5.11012 15.3015 5.15727 14.8612 5.15727 14.4587C5.15727 13.6345 4.97018 13.052 4.58497 12.6775C4.20661 12.3115 3.58412 12.1333 2.68176 12.1333C2.26803 12.1333 1.83605 12.2003 1.39799 12.332L1.37061 12.3402L1.43374 12.0783C2.20429 11.7633 2.98587 11.477 3.77691 11.22C4.56216 10.966 5.31165 10.8374 6.00449 10.8374C7.21297 10.8374 8.14195 11.1252 8.76672 11.693C9.38161 12.2518 9.68049 12.9622 9.68049 13.865C9.68049 14.0106 9.66795 14.322 9.60711 14.9789C9.55995 15.496 9.47211 15.9735 9.34282 16.4093L7.93775 21.4761C7.80544 21.9544 7.69806 22.4394 7.61605 22.9293C7.5187 23.4746 7.46927 23.908 7.46927 24.2179C7.46927 25.0839 7.68297 25.6819 8.12446 26.0475C8.52982 26.3802 9.15003 26.5417 10.0201 26.5417C10.4068 26.5417 10.8449 26.4739 11.3244 26.3407L11.262 26.5944Z" fill="#D8D9D9"/>
<path d="M7.13692 1.94663C7.69362 1.41872 8.34501 1.16232 9.12835 1.16232C9.90789 1.16232 10.5547 1.41834 11.1053 1.94508C11.6461 2.46253 11.9088 3.06519 11.9088 3.78714C11.9088 4.51064 11.6472 5.10981 11.1069 5.6199C10.5562 6.14316 9.90941 6.39762 9.12835 6.39762C8.34501 6.39762 7.69324 6.14277 7.13425 5.61719C6.59048 5.1071 6.32582 4.50831 6.32582 3.78675C6.3262 3.06674 6.59124 2.46485 7.13692 1.94663Z" fill="#868788"/>
</svg>
