<svg width="18" height="18" viewBox="0 0 18 18" fill="none" xmlns="http://www.w3.org/2000/svg">
<path d="M7.14828 9.00002C7.14828 10.0226 7.9771 10.8518 9.00002 10.8518C10.0229 10.8518 10.8518 10.0229 10.8518 9.00002C10.8518 7.97745 10.0229 7.14828 9.00002 7.14828C7.97745 7.14828 7.14828 7.9771 7.14828 9.00002Z" fill="#E02D69"/>
<path fill-rule="evenodd" clip-rule="evenodd" d="M9.00002 4.44551C10.4834 4.44551 10.659 4.45106 11.2448 4.4778C11.8771 4.50662 12.4639 4.63335 12.9153 5.08474C13.3667 5.53613 13.4934 6.12294 13.5222 6.75523C13.549 7.34099 13.5545 7.51669 13.5545 9.00002C13.5545 10.4834 13.549 10.659 13.5222 11.2448C13.4934 11.8771 13.3667 12.4639 12.9153 12.9153C12.4639 13.3667 11.8771 13.4934 11.2448 13.5222C10.659 13.549 10.4834 13.5545 9.00002 13.5545C7.51669 13.5545 7.34099 13.549 6.75523 13.5222C6.12294 13.4934 5.53613 13.3667 5.08474 12.9153C4.63335 12.4639 4.50662 11.8771 4.4778 11.2448C4.45106 10.659 4.44551 10.4834 4.44551 9.00002C4.44551 7.51669 4.45106 7.34099 4.4778 6.75523C4.50662 6.12294 4.63335 5.53613 5.08474 5.08474C5.53613 4.63335 6.12294 4.50662 6.75523 4.4778C7.34099 4.45106 7.51669 4.44551 9.00002 4.44551ZM6.14724 9.00002C6.14724 7.42467 7.42433 6.14724 9.00002 6.14724C10.5757 6.14724 11.8528 7.42467 11.8528 9.00002C11.8528 10.5754 10.5754 11.8528 9.00002 11.8528C7.42467 11.8528 6.14724 10.5754 6.14724 9.00002ZM11.9656 6.70106C12.3338 6.70106 12.6323 6.40259 12.6323 6.0344C12.6323 5.66621 12.3338 5.36773 11.9656 5.36773C11.5975 5.36773 11.299 5.66621 11.299 6.0344C11.299 6.40259 11.5975 6.70106 11.9656 6.70106Z" fill="#E02D69"/>
<path fill-rule="evenodd" clip-rule="evenodd" d="M5.56426 0.716687C6.45315 0.676409 6.73683 0.666687 9.00002 0.666687C11.2632 0.666687 11.5469 0.676409 12.4358 0.716687C13.7906 0.778493 14.9799 1.11044 15.9347 2.0653C16.89 3.02051 17.2215 4.21009 17.2834 5.56426C17.3236 6.45315 17.3334 6.73683 17.3334 9.00002C17.3334 11.2632 17.3236 11.5469 17.2834 12.4358C17.2215 13.7906 16.8896 14.9799 15.9347 15.9347C14.9795 16.89 13.7896 17.2215 12.4358 17.2834C11.5469 17.3236 11.2632 17.3334 9.00002 17.3334C6.73683 17.3334 6.45315 17.3236 5.56426 17.2834C4.2094 17.2215 3.02016 16.8896 2.0653 15.9347C1.11009 14.9795 0.778493 13.79 0.716687 12.4358C0.676409 11.5469 0.666687 11.2632 0.666687 9.00002C0.666687 6.73683 0.676409 6.45315 0.716687 5.56426C0.778493 4.2094 1.11044 3.02016 2.0653 2.0653C3.02051 1.11009 4.21009 0.778493 5.56426 0.716687ZM9.00002 3.44447C7.49134 3.44447 7.3021 3.45072 6.7094 3.4778C5.80662 3.51912 5.01356 3.7403 4.37676 4.37676C3.7403 5.01322 3.51912 5.80627 3.4778 6.7094C3.45072 7.3021 3.44447 7.49134 3.44447 9.00002C3.44447 10.5087 3.45072 10.6979 3.4778 11.2906C3.51912 12.1934 3.7403 12.9865 4.37676 13.6233C5.01322 14.2597 5.80627 14.4809 6.7094 14.5222C7.3021 14.5493 7.49134 14.5556 9.00002 14.5556C10.5087 14.5556 10.6979 14.5493 11.2906 14.5222C12.1934 14.4809 12.9865 14.2597 13.6233 13.6233C14.2597 12.9868 14.4809 12.1938 14.5222 11.2906C14.5493 10.6979 14.5556 10.5087 14.5556 9.00002C14.5556 7.49134 14.5493 7.3021 14.5222 6.7094C14.4809 5.80662 14.2597 5.01356 13.6233 4.37676C12.9868 3.7403 12.1938 3.51912 11.2906 3.4778C10.6979 3.45072 10.5087 3.44447 9.00002 3.44447Z" fill="#E02D69"/>
</svg>
