<svg width="38" height="38" viewBox="0 0 38 38" fill="none" xmlns="http://www.w3.org/2000/svg">
<path d="M27.254 19.2833H10.7518C10.1216 19.2833 9.61274 18.7688 9.61274 18.1444V1.64469C9.61274 1.01453 10.1274 0.5 10.7518 0.5H27.254C27.8843 0.5 28.3931 1.01453 28.3931 1.64469V18.1444C28.3989 18.7745 27.8843 19.2833 27.254 19.2833ZM10.7518 1.06656C10.4338 1.06656 10.1794 1.32094 10.1794 1.63891V18.1386C10.1794 18.4566 10.4338 18.7109 10.7518 18.7109H27.254C27.5721 18.7109 27.8265 18.4566 27.8265 18.1386V1.64469C27.8265 1.32672 27.5721 1.07234 27.254 1.07234H10.7518V1.06656Z" fill="#868788"/>
<path d="M18.1471 37.5H1.64486C1.01461 37.5 0.5 36.9855 0.5 36.3611V19.8556C0.5 19.2255 1.01461 18.7109 1.64486 18.7109H18.1471C18.7773 18.7109 19.2919 19.2255 19.2919 19.8556V36.3553C19.2862 36.9855 18.7773 37.5 18.1471 37.5ZM1.64486 19.2833C1.32685 19.2833 1.07243 19.5377 1.07243 19.8556V36.3553C1.07243 36.6733 1.32685 36.9277 1.64486 36.9277H18.1471C18.4651 36.9277 18.7195 36.6733 18.7195 36.3553V19.8556C18.7195 19.5377 18.4651 19.2833 18.1471 19.2833H1.64486Z" fill="#868788"/>
<path d="M36.3667 37.5H19.8587C19.2284 37.5 18.7196 36.9855 18.7196 36.3611V19.8556C18.7196 19.2255 19.2342 18.7109 19.8587 18.7109H36.3609C36.9911 18.7109 37.5 19.2255 37.5 19.8556V36.3553C37.5057 36.9855 36.9911 37.5 36.3667 37.5ZM19.8587 19.2833C19.5406 19.2833 19.2862 19.5377 19.2862 19.8556V36.3553C19.2862 36.6733 19.5406 36.9277 19.8587 36.9277H36.3609C36.6789 36.9277 36.9333 36.6733 36.9333 36.3553V19.8556C36.9333 19.5377 36.6789 19.2833 36.3609 19.2833H19.8587ZM14.0187 35.3205C13.7643 35.3205 13.5099 35.2684 13.2728 35.1586C12.816 34.9505 12.4633 34.5516 12.313 34.0717L11.8099 32.4761L7.6757 32.6091L6.9645 34.2278C6.76212 34.6845 6.39785 35.0256 5.92371 35.1933C5.45536 35.3609 4.95232 35.3262 4.50709 35.1008C3.68025 34.6787 3.32175 33.7075 3.6629 32.8461L7.95903 22.1045C8.24813 21.3877 8.93042 20.9252 9.70523 20.9252C10.4627 20.9252 11.145 21.3761 11.4399 22.0756L15.9095 32.7362C16.2853 33.6381 15.8632 34.6845 14.967 35.0661L14.7241 35.1702C14.4986 35.2742 14.2616 35.3205 14.0187 35.3205ZM12.0123 31.9037C12.1337 31.9037 12.2436 31.9847 12.2841 32.1003L12.8507 33.8983C12.9548 34.2278 13.1919 34.4937 13.5041 34.6383C13.8221 34.7828 14.1748 34.7886 14.4928 34.6498L14.7357 34.5458C15.3486 34.2798 15.6319 33.5687 15.3775 32.9559L10.9137 22.2953C10.7113 21.8097 10.2372 21.4917 9.70523 21.4917C9.16749 21.4917 8.68757 21.8155 8.49098 22.3127L4.19486 33.0542C3.95779 33.6439 4.20642 34.303 4.76729 34.592C5.06796 34.7481 5.41489 34.7713 5.7329 34.6556C6.05092 34.54 6.30534 34.3087 6.43832 33.9966L7.22469 32.2159C7.27095 32.1177 7.36925 32.0483 7.47911 32.0483L12.0065 31.9037H12.0123Z" fill="#868788"/>
<path d="M11.3646 30.4238H8.10349C8.01098 30.4238 7.93003 30.3776 7.87221 30.3082C7.82017 30.233 7.80282 30.1405 7.83173 30.0538L9.32352 25.3479C9.35822 25.2322 9.46808 25.1513 9.5895 25.1513C9.72827 25.1513 9.82079 25.2207 9.86126 25.3363L11.6306 30.0422C11.6653 30.129 11.6537 30.2272 11.5959 30.3024C11.5439 30.3776 11.4571 30.4238 11.3646 30.4238ZM8.49089 29.8572H10.9541L9.61841 26.3075L8.49089 29.8572ZM29.1678 35.2858C27.2308 35.2858 25.4094 34.5227 24.0448 33.1468C22.686 31.7708 21.9517 29.944 21.9748 28.0072C22.0269 24.2147 25.155 21.035 28.9539 20.9252C30.2548 20.8963 31.5443 21.2085 32.6833 21.8444C33.1633 22.1161 33.4928 22.5844 33.5796 23.1221C33.6663 23.6597 33.5102 24.1974 33.1517 24.6021C32.5735 25.2438 31.6426 25.4115 30.9371 25.0068C30.3994 24.6946 29.7865 24.5327 29.1678 24.5327C28.0808 24.5327 27.0689 25.0183 26.3808 25.8682C25.6985 26.7122 25.4383 27.8107 25.6696 28.886C25.9645 30.2735 27.1094 31.3719 28.5144 31.6205C29.5147 31.794 30.5035 31.5627 31.3014 30.9672C31.9548 30.4758 32.8973 30.5336 33.5333 31.1002C33.9439 31.4644 34.1636 31.9905 34.1347 32.5397C34.1115 33.0832 33.8456 33.5746 33.4119 33.8925C32.1803 34.806 30.7116 35.2858 29.1678 35.2858ZM29.1678 21.4918C29.1042 21.4918 29.0406 21.4918 28.977 21.4918C25.4788 21.59 22.5993 24.5154 22.5473 28.013C22.5241 29.7936 23.2006 31.476 24.4496 32.7421C25.7043 34.014 27.3811 34.7135 29.1678 34.7135C30.5844 34.7135 31.9432 34.2683 33.0823 33.4243C33.3772 33.2046 33.5564 32.8693 33.5738 32.4993C33.5911 32.1235 33.4408 31.7651 33.1575 31.5165C32.7238 31.1291 32.0878 31.0829 31.6483 31.4124C30.7232 32.1061 29.5783 32.3779 28.4219 32.1697C26.7914 31.8807 25.4615 30.603 25.1203 28.9958C24.8543 27.7529 25.155 26.481 25.9472 25.504C26.7393 24.5211 27.9189 23.9604 29.1736 23.9604C29.8964 23.9604 30.6076 24.1511 31.2262 24.5096C31.7004 24.7871 32.3364 24.6657 32.7296 24.2205C32.9782 23.943 33.0823 23.5788 33.0245 23.2146C32.9609 22.8446 32.7412 22.5208 32.4116 22.3358C31.4171 21.7866 30.3011 21.4918 29.1678 21.4918ZM20.5351 16.7916H15.3312C14.7009 16.7916 14.1921 16.2829 14.1921 15.6527V3.88786C14.1921 3.2577 14.7009 2.74895 15.3312 2.74895H19.8586C21.2868 2.93973 22.3565 3.66817 22.9 4.80708C23.4608 5.98645 23.3568 7.46067 22.6224 8.79036C23.9408 10.0969 24.4843 11.8255 24.068 13.4558C23.6459 15.1035 22.3507 16.3522 20.6102 16.7858C20.5813 16.7858 20.5582 16.7916 20.5351 16.7916ZM19.8181 3.30973H15.3312C15.0189 3.30973 14.7587 3.56411 14.7587 3.88208V15.6469C14.7587 15.9591 15.0131 16.2193 15.3312 16.2193H20.5004C22.0211 15.8319 23.1486 14.745 23.5129 13.3113C23.9003 11.8024 23.3741 10.2472 22.0673 9.05052C21.969 8.95802 21.9459 8.8077 22.0153 8.69208C22.7554 7.47223 22.8884 6.11364 22.3796 5.04989C21.9286 4.0902 21.015 3.47739 19.8181 3.30973Z" fill="#868788"/>
<path d="M18.8179 8.23532H17.0254C16.8693 8.23532 16.7421 8.10813 16.7421 7.95204V5.40251C16.7421 5.24641 16.8693 5.11922 17.0254 5.11922H18.8179C19.6794 5.11922 20.379 5.81876 20.379 6.68016C20.3733 7.53579 19.6736 8.23532 18.8179 8.23532ZM17.3087 7.66298H18.8179C19.3614 7.66298 19.8066 7.21782 19.8066 6.67438C19.8066 6.13094 19.3614 5.68579 18.8179 5.68579H17.3087V7.66298Z" fill="#868788"/>
<path d="M19.3497 14.1149H16.9559C16.7997 14.1149 16.6725 13.9877 16.6725 13.8316V10.4264C16.6725 10.2703 16.7997 10.1432 16.9559 10.1432H19.3497C20.4483 10.1432 21.3387 11.0335 21.3387 12.1319C21.3329 13.2246 20.4425 14.1149 19.3497 14.1149ZM17.2392 13.5483H19.3497C20.1303 13.5483 20.7663 12.9124 20.7663 12.1319C20.7663 11.3514 20.1303 10.7155 19.3497 10.7155H17.2392V13.5483Z" fill="#868788"/>
</svg>
