<svg width="38" height="28" viewBox="0 0 38 28" fill="none" xmlns="http://www.w3.org/2000/svg">
<path d="M5.69565 8.44118H32.3043V22.7353C32.3043 25.4353 30.2696 27.5 27.6087 27.5H10.3913C7.73043 27.5 5.69565 25.4353 5.69565 22.7353V8.44118Z" stroke="#868788" stroke-linecap="round" stroke-linejoin="round"/>
<path d="M11.9565 24.3235H11.1739C9.92174 24.3235 8.82609 23.2118 8.82609 21.9412V21.1471M32.3043 10.0294H36.2174C36.687 10.0294 37 10.3471 37 10.8235V11.4588C37 12.5706 36.5304 13.5235 35.5913 14.1588L32.3043 16.3824M5.69565 10.0294H1.78261C1.31304 10.0294 1 10.3471 1 10.8235V11.4588C1 12.5706 1.46957 13.5235 2.4087 14.1588L5.69565 16.3824M10.3913 3.67647H27.6087C30.2696 3.67647 32.3043 5.74118 32.3043 8.44118H5.69565C5.69565 5.74118 7.73043 3.67647 10.3913 3.67647Z" stroke="#868788" stroke-linecap="round" stroke-linejoin="round"/>
<path d="M19 3.67647C19.8644 3.67647 20.5652 2.96539 20.5652 2.08824C20.5652 1.21108 19.8644 0.5 19 0.5C18.1356 0.5 17.4348 1.21108 17.4348 2.08824C17.4348 2.96539 18.1356 3.67647 19 3.67647Z" stroke="#868788" stroke-linecap="round" stroke-linejoin="round"/>
</svg>
