<svg width="16" height="16" viewBox="0 0 16 16" fill="none" xmlns="http://www.w3.org/2000/svg">
<path d="M10.625 5C9.33505 4.99557 8.09629 5.50433 7.18181 6.41412C6.26733 7.32392 5.7522 8.56004 5.75 9.85V14.75C5.75 14.9489 5.82902 15.1397 5.96967 15.2803C6.11032 15.421 6.30109 15.5 6.5 15.5H8.25C8.66421 15.5 9 15.1642 9 14.75V9.85C8.99967 9.39056 9.19483 8.95269 9.53672 8.64578C9.87861 8.33888 10.3349 8.19193 10.7917 8.24167C11.63 8.34726 12.2566 9.06344 12.25 9.90833V14.75C12.25 15.1642 12.5858 15.5 13 15.5H14.75C15.1642 15.5 15.5 15.1642 15.5 14.75V9.85C15.4978 8.56004 14.9827 7.32392 14.0682 6.41412C13.1537 5.50433 11.915 4.99557 10.625 5Z" fill="#007EBB"/>
<path d="M0.5 6.5C0.5 6.08579 0.835786 5.75 1.25 5.75H3.5C3.91421 5.75 4.25 6.08579 4.25 6.5V14.75C4.25 15.1642 3.91421 15.5 3.5 15.5H1.25C0.835787 15.5 0.5 15.1642 0.5 14.75V6.5Z" fill="#007EBB"/>
<path d="M4.25 2.375C4.25 3.41053 3.41053 4.25 2.375 4.25C1.33947 4.25 0.5 3.41053 0.5 2.375C0.5 1.33947 1.33947 0.5 2.375 0.5C3.41053 0.5 4.25 1.33947 4.25 2.375Z" fill="#007EBB"/>
</svg>
