<svg width="25" height="24" viewBox="0 0 25 24" fill="none" xmlns="http://www.w3.org/2000/svg">
<path opacity="0.32" d="M15.7798 4.5H5.2202C4.27169 4.5 3.5 5.06057 3.5 5.75042C3.5 6.43943 4.27169 7 5.2202 7H15.7798C16.7283 7 17.5 6.43943 17.5 5.75042C17.5 5.06054 16.7283 4.5 15.7798 4.5Z" fill="#868788"/>
<path d="M19.7798 10.75H9.2202C8.27169 10.75 7.5 11.3106 7.5 12.0004C7.5 12.6894 8.27169 13.25 9.2202 13.25H19.7798C20.7283 13.25 21.5 12.6894 21.5 12.0004C21.5 11.3105 20.7283 10.75 19.7798 10.75Z" fill="#868788"/>
<path d="M15.7798 17H5.2202C4.27169 17 3.5 17.5606 3.5 18.2504C3.5 18.9394 4.27169 19.5 5.2202 19.5H15.7798C16.7283 19.5 17.5 18.9394 17.5 18.2504C17.5 17.5606 16.7283 17 15.7798 17Z" fill="#868788"/>
</svg>
