<svg width="28" height="28" viewBox="0 0 28 28" fill="none" xmlns="http://www.w3.org/2000/svg">
<path d="M17.232 10.418C17.3086 10.2976 17.3688 10.1609 17.3688 10.0078V9.90936C17.3688 9.73436 17.2977 9.58124 17.2047 9.44999C17.3031 9.31874 17.3688 9.16561 17.3688 8.99061V8.89218C17.3688 8.54765 17.1391 8.26874 16.8274 8.16483C18.6375 6.23983 20.311 3.93202 20.3274 3.90468C20.4149 3.78436 20.4039 3.6203 20.3055 3.51093C20.207 3.40155 20.043 3.37421 19.9172 3.45077C19.6383 3.60936 18.7961 3.99218 18.282 3.81718C18.1125 3.75702 17.9977 3.64764 17.9156 3.46171C17.5875 2.68514 17.1774 2.23671 16.6469 2.07811C16.0508 1.89764 15.3945 2.09452 14.886 2.59764C14.4594 3.02421 13.7594 2.92577 12.9774 2.33514C12.2938 1.82108 11.632 1.64061 11.0141 1.81014C9.96408 2.08905 9.46642 3.25389 9.45001 3.29764C9.06173 4.15077 8.7172 4.33124 8.54767 4.36405C8.33439 4.4078 8.16486 4.24921 8.16486 4.24921C8.05001 4.12889 7.85861 4.12343 7.73283 4.22733C7.60704 4.33671 7.58517 4.52264 7.68908 4.65389C7.74376 4.72499 8.96329 6.29452 11.0906 8.16483C10.7461 8.24139 10.4836 8.53671 10.4836 8.90311V9.00155C10.4836 9.17655 10.5547 9.32968 10.6477 9.46093C10.5492 9.59218 10.4836 9.7453 10.4836 9.9203V10.0187C10.4836 10.2101 10.5602 10.3742 10.675 10.5109C9.00704 11.7961 4.32033 15.9469 4.35314 21.3609C4.36954 23.6961 5.63283 25.2875 8.0172 25.9656C8.7172 26.1625 9.49376 26.2664 10.3305 26.2664H17.6695C18.5063 26.2664 19.2828 26.168 19.9828 25.9656C22.3672 25.293 23.6305 23.6961 23.6469 21.3609C23.6797 15.843 18.8235 11.6484 17.232 10.418ZM12.9555 10.15H11.3039C11.282 10.1445 11.2602 10.1445 11.2438 10.1445C11.1672 10.1391 11.107 10.0789 11.107 10.0078V9.90936C11.107 9.8328 11.1727 9.76718 11.2492 9.76718H16.5922C16.6688 9.76718 16.7344 9.8328 16.7344 9.90936V10.0078C16.7344 10.0844 16.6688 10.15 16.5922 10.15H12.9555ZM11.107 8.99061V8.89218C11.107 8.81561 11.1727 8.74999 11.2492 8.74999H16.5922C16.6688 8.74999 16.7344 8.81561 16.7344 8.89218V8.99061C16.7344 9.06718 16.6688 9.1328 16.5922 9.1328H11.2492C11.1727 9.1328 11.107 9.06718 11.107 8.99061ZM8.75001 4.94374C9.22579 4.80702 9.65236 4.33671 10.0133 3.53827C10.0188 3.52733 10.4234 2.60858 11.1672 2.40624C11.5883 2.29139 12.0695 2.43358 12.5891 2.82733C13.6336 3.61483 14.6563 3.69686 15.318 3.04061C15.657 2.70155 16.0891 2.56483 16.461 2.67968C16.8 2.77811 17.0844 3.11718 17.3305 3.7078C17.4781 4.0578 17.7352 4.30389 18.0742 4.41874C18.4188 4.53358 18.8016 4.50624 19.1516 4.42421C18.4352 5.35936 17.2211 6.87421 15.9961 8.12655H15.2742C15.8266 7.27343 15.8813 6.29999 15.8813 6.25077C15.8867 6.07577 15.75 5.93358 15.5805 5.92811C15.4164 5.93905 15.2633 6.05936 15.2524 6.22889C15.2524 6.23983 15.1922 7.39374 14.4758 8.12655H14.2024C13.8578 7.34999 13.7703 5.39764 13.7649 4.67577C13.7649 4.50077 13.6227 4.36405 13.4477 4.36405C13.2727 4.36405 13.136 4.50624 13.136 4.68124C13.136 4.93827 13.1578 6.98358 13.5242 8.13202H13.4039C12.3977 7.39921 12.0531 5.78593 12.0531 5.76952C12.0203 5.59999 11.8563 5.49061 11.6813 5.52343C11.5117 5.55624 11.4024 5.72577 11.4352 5.8953C11.4461 5.96093 11.7195 7.2078 12.5016 8.13202H11.9985C10.4945 6.85233 9.37892 5.66014 8.75001 4.94374ZM19.8133 25.3586C19.168 25.5391 18.4461 25.632 17.6695 25.632H10.3305C9.55392 25.632 8.83204 25.5391 8.18673 25.3586C6.07033 24.757 4.99298 23.4117 4.98204 21.3555C4.94923 15.8758 10.0899 11.7031 11.3367 10.7789H12.3156C11.4078 11.9273 10.757 13.218 10.4235 14.6508C10.3852 14.8203 10.4891 14.9898 10.6586 15.0281C10.6805 15.0336 10.7078 15.0336 10.7297 15.0336C10.8719 15.0336 11.0031 14.9351 11.036 14.793C11.3914 13.2726 12.0805 11.9601 13.1195 10.7789H13.3656C13.0867 11.9492 12.8625 13.5078 12.9828 14.793C12.9992 14.957 13.136 15.0773 13.2945 15.0773C13.3055 15.0773 13.3164 15.0773 13.3219 15.0773C13.4969 15.0609 13.6227 14.9078 13.6063 14.7328C13.4914 13.4695 13.743 11.8672 14.011 10.7734H14.268C14.6508 11.9273 15.3399 13.5023 16.1875 14.5906C16.2477 14.6726 16.3406 14.7109 16.4336 14.7109C16.4992 14.7109 16.5703 14.6891 16.625 14.6453C16.7617 14.5359 16.7836 14.3391 16.6797 14.2023C15.9305 13.2344 15.307 11.8508 14.9297 10.7734H16.5867C16.6086 10.7734 16.625 10.7625 16.6414 10.7625C17.9047 11.6976 23.0453 15.8594 23.0125 21.35C23.007 23.4117 21.9242 24.757 19.8133 25.3586Z" fill="white"/>
<path d="M14.0984 19.3047C13.475 19.1297 13.3383 19.0149 13.3383 18.7633C13.3383 18.5828 13.4422 18.3641 13.8195 18.3641C14.2625 18.3641 14.3391 18.6266 14.3828 18.7852H15.2031C15.1594 18.3313 14.9023 17.8883 14.1805 17.7789V17.407H13.4914V17.7899C12.9391 17.8938 12.507 18.2547 12.507 18.8453C12.507 19.3922 12.7914 19.7531 13.7758 20.0375C14.3117 20.1906 14.4648 20.3328 14.4648 20.6172C14.4648 20.8469 14.3281 21.0547 13.8961 21.0547C13.5516 21.0547 13.3164 20.8633 13.2508 20.568H12.425C12.4687 21.1313 12.857 21.536 13.5242 21.6399V22.1102H14.2187V21.6399C14.8531 21.5469 15.2797 21.1805 15.2797 20.5242C15.2906 19.8953 14.9625 19.5453 14.0984 19.3047Z" fill="white"/>
<path d="M14 15.1977C11.4844 15.1977 9.44452 17.243 9.44452 19.7531C9.44452 22.2688 11.4898 24.3086 14 24.3086C16.5101 24.3086 18.5555 22.2633 18.5555 19.7531C18.5555 17.243 16.5156 15.1977 14 15.1977ZM14 23.6797C11.8344 23.6797 10.0734 21.9188 10.0734 19.7531C10.0734 17.5875 11.8344 15.8266 14 15.8266C16.1656 15.8266 17.9265 17.5875 17.9265 19.7531C17.9265 21.9188 16.1656 23.6797 14 23.6797Z" fill="white"/>
</svg>
