<svg width="15" height="14" viewBox="0 0 15 14" fill="none" xmlns="http://www.w3.org/2000/svg">
<path d="M13.5 6.24255C13.3011 6.24255 13.1103 6.32157 12.9697 6.46222C12.829 6.60288 12.75 6.79364 12.75 6.99255V11.4926C12.75 11.6915 12.671 11.8822 12.5303 12.0229C12.3897 12.1635 12.1989 12.2426 12 12.2426H3C2.80109 12.2426 2.61032 12.1635 2.46967 12.0229C2.32902 11.8822 2.25 11.6915 2.25 11.4926V2.49255C2.25 2.29364 2.32902 2.10288 2.46967 1.96222C2.61032 1.82157 2.80109 1.74255 3 1.74255H7.5C7.69891 1.74255 7.88968 1.66354 8.03033 1.52288C8.17098 1.38223 8.25 1.19147 8.25 0.992554C8.25 0.793641 8.17098 0.602876 8.03033 0.462224C7.88968 0.321571 7.69891 0.242554 7.5 0.242554H3C2.40326 0.242554 1.83097 0.479607 1.40901 0.901564C0.987053 1.32352 0.75 1.89582 0.75 2.49255V11.4926C0.75 12.0893 0.987053 12.6616 1.40901 13.0835C1.83097 13.5055 2.40326 13.7426 3 13.7426H12C12.5967 13.7426 13.169 13.5055 13.591 13.0835C14.0129 12.6616 14.25 12.0893 14.25 11.4926V6.99255C14.25 6.79364 14.171 6.60288 14.0303 6.46222C13.8897 6.32157 13.6989 6.24255 13.5 6.24255Z" fill="white"/>
<path d="M10.5 1.74255H11.685L6.9675 6.45255C6.8972 6.52228 6.84141 6.60523 6.80333 6.69662C6.76525 6.78802 6.74565 6.88604 6.74565 6.98505C6.74565 7.08406 6.76525 7.18209 6.80333 7.27349C6.84141 7.36488 6.8972 7.44783 6.9675 7.51755C7.03722 7.58785 7.12017 7.64365 7.21157 7.68172C7.30296 7.7198 7.40099 7.7394 7.5 7.7394C7.59901 7.7394 7.69704 7.7198 7.78843 7.68172C7.87983 7.64365 7.96278 7.58785 8.0325 7.51755L12.75 2.80755V3.99255C12.75 4.19147 12.829 4.38223 12.9697 4.52288C13.1103 4.66354 13.3011 4.74255 13.5 4.74255C13.6989 4.74255 13.8897 4.66354 14.0303 4.52288C14.171 4.38223 14.25 4.19147 14.25 3.99255V0.992554C14.25 0.793641 14.171 0.602876 14.0303 0.462224C13.8897 0.321571 13.6989 0.242554 13.5 0.242554H10.5C10.3011 0.242554 10.1103 0.321571 9.96967 0.462224C9.82902 0.602876 9.75 0.793641 9.75 0.992554C9.75 1.19147 9.82902 1.38223 9.96967 1.52288C10.1103 1.66354 10.3011 1.74255 10.5 1.74255Z" fill="white"/>
</svg>
