<svg width="15" height="17" viewBox="0 0 15 17" fill="none" xmlns="http://www.w3.org/2000/svg">
<path d="M12.715 0.923366C12.8292 0.970674 12.9268 1.05079 12.9955 1.15359C13.0642 1.25638 13.1008 1.37724 13.1008 1.50087V5.0367C13.1008 5.20246 13.035 5.36143 12.9178 5.47864C12.8005 5.59585 12.6416 5.6617 12.4758 5.6617H8.93999C8.81645 5.66159 8.69572 5.62488 8.59304 5.55619C8.49036 5.48751 8.41034 5.38994 8.36308 5.2758C8.31582 5.16167 8.30344 5.03608 8.32751 4.91492C8.35158 4.79375 8.41102 4.68244 8.49832 4.59503L9.83332 3.25837C8.60703 2.74485 7.2456 2.65015 5.96002 2.98895C4.67445 3.32775 3.53652 4.08113 2.72259 5.13232C1.90867 6.18352 1.4642 7.47383 1.45807 8.80329C1.45194 10.1327 1.88449 11.4271 2.68869 12.4858C3.49289 13.5444 4.62382 14.3082 5.90622 14.6589C7.18862 15.0095 8.55086 14.9274 9.78184 14.4252C11.0128 13.923 12.0438 13.0288 12.7149 11.8812C13.3861 10.7336 13.66 9.39662 13.4942 8.07753C13.477 7.91483 13.5243 7.75187 13.6259 7.62366C13.7276 7.49545 13.8754 7.41221 14.0378 7.39181C14.2001 7.37141 14.364 7.41547 14.4942 7.51455C14.6244 7.61362 14.7105 7.7598 14.7342 7.9217C14.937 9.53517 14.5947 11.1701 13.7616 12.5667C12.9285 13.9633 11.6525 15.0413 10.1364 15.6294C8.62026 16.2175 6.95107 16.2819 5.39415 15.8124C3.83723 15.3428 2.48194 14.3664 1.54373 13.0381C0.605513 11.7099 0.138224 10.1062 0.216143 8.48185C0.294062 6.85754 0.912717 5.3059 1.97376 4.07357C3.03481 2.84125 4.47734 1.99897 6.07205 1.68064C7.66677 1.36231 9.32213 1.58619 10.775 2.3167L12.0333 1.05837C12.1208 0.971096 12.2321 0.911696 12.3533 0.887669C12.4745 0.863641 12.6009 0.876063 12.715 0.923366Z" fill="#363839"/>
</svg>
