<svg width="80" height="81" viewBox="0 0 80 81" fill="none" xmlns="http://www.w3.org/2000/svg">
<g filter="url(#filter0_d_55_214)">
<path d="M40 62.3478C55.2839 62.3478 67.6739 49.9578 67.6739 34.6739C67.6739 19.39 55.2839 7 40 7C24.7161 7 12.3261 19.39 12.3261 34.6739C12.3261 49.9578 24.7161 62.3478 40 62.3478Z" fill="white"/>
<path d="M33.1026 47.2763L23.3961 36.5705C23.0379 36.1754 22.8511 35.6544 22.8768 35.1218C22.9024 34.5891 23.1385 34.0885 23.533 33.7297L26.23 31.2791C26.625 30.9209 27.1461 30.7342 27.6787 30.7598C28.2113 30.7855 28.712 31.0215 29.0707 31.416L34.9165 37.8505L51.0164 22.8801C51.4071 22.5176 51.9255 22.3248 52.458 22.3441C52.9906 22.3633 53.4938 22.593 53.8572 22.9827L56.3351 25.6524C56.5155 25.8454 56.6559 26.0721 56.7483 26.3195C56.8408 26.5669 56.8835 26.8301 56.874 27.0941C56.8644 27.358 56.8028 27.6175 56.6928 27.8576C56.5827 28.0977 56.4263 28.3137 56.2325 28.4931L35.9296 47.3722C35.7382 47.5525 35.513 47.6932 35.267 47.786C35.0209 47.8789 34.759 47.9221 34.4961 47.9132C34.2333 47.9043 33.9748 47.8434 33.7357 47.7341C33.4965 47.6248 33.2813 47.4692 33.1026 47.2763Z" fill="url(#paint0_linear_55_214)"/>
</g>
<defs>
<filter id="filter0_d_55_214" x="0.301954" y="0.987914" width="79.3961" height="79.396" filterUnits="userSpaceOnUse" color-interpolation-filters="sRGB">
<feFlood flood-opacity="0" result="BackgroundImageFix"/>
<feColorMatrix in="SourceAlpha" type="matrix" values="0 0 0 0 0 0 0 0 0 0 0 0 0 0 0 0 0 0 127 0" result="hardAlpha"/>
<feOffset dy="6.01209"/>
<feGaussianBlur stdDeviation="6.01209"/>
<feComposite in2="hardAlpha" operator="out"/>
<feColorMatrix type="matrix" values="0 0 0 0 0.756863 0 0 0 0 0.878431 0 0 0 0 0.807843 0 0 0 0.24 0"/>
<feBlend mode="normal" in2="BackgroundImageFix" result="effect1_dropShadow_55_214"/>
<feBlend mode="normal" in="SourceGraphic" in2="effect1_dropShadow_55_214" result="shape"/>
</filter>
<linearGradient id="paint0_linear_55_214" x1="22.8744" y1="22.3428" x2="22.8744" y2="47.9143" gradientUnits="userSpaceOnUse">
<stop stop-color="#5BE39A"/>
<stop offset="1" stop-color="#007867"/>
</linearGradient>
</defs>
</svg>
