<svg width="28" height="28" viewBox="0 0 28 28" fill="none" xmlns="http://www.w3.org/2000/svg">
<path d="M27.4909 17.5636L26.0909 16.2061L25.7515 11.6667C25.7091 10.7333 24.903 9.9697 23.9697 9.9697H18.4121C18.2424 9.9697 18.0727 10.097 18.0727 10.3091V19.1333H16.8849C17.0121 18.9212 17.097 18.7091 17.097 18.4545V9.16364C18.6243 9.16364 18.3697 9.50304 18.3697 6.95758C18.3697 6.78788 18.2424 6.61819 18.0303 6.61819H13.4909C14.6364 5.89698 14.1697 4.15758 12.8546 4.07273C12.897 3.01213 11.7515 2.24849 10.8182 2.80001C10.2667 1.86667 8.95152 1.86667 8.40001 2.80001C7.42425 2.29092 6.2788 3.01213 6.36364 4.07273C4.96364 4.07273 4.45455 5.89698 5.64243 6.61819H1.14546C0.975766 6.61819 0.848493 6.78788 0.848493 6.95758V8.86667C0.848493 9.03637 0.975766 9.20607 1.18789 9.20607H2.29092V18.497C2.29092 18.7515 2.37577 18.9636 2.50304 19.1758H0.806069C0.636372 19.1758 0.466675 19.303 0.466675 19.5152V23.5879C0.466675 23.7576 0.593948 23.9273 0.806069 23.9273H2.29092C2.46061 25.1152 3.4788 26.0485 4.7091 26.0485C5.9394 26.0485 6.95758 25.1152 7.12728 23.9273H7.72122C7.89092 25.1152 8.9091 26.0485 10.1394 26.0485C11.3697 26.0485 12.3879 25.1152 12.5576 23.9273H21C21.1697 25.1152 22.1879 26.0485 23.4182 26.0485C24.6485 26.0485 25.6667 25.1152 25.8364 23.9273H27.4485C27.6182 23.9273 27.7879 23.8 27.7879 23.5879V17.8182C27.5758 17.7333 27.5333 17.6485 27.4909 17.5636ZM23.9697 10.6061C24.5636 10.6061 25.0727 11.0727 25.1152 11.7091L25.4121 16.0364H21.4667V10.6061H23.9697ZM16.4606 18.4545C16.4606 18.8364 16.1636 19.1333 15.7818 19.1333H12.3455V9.16364H16.4606V18.4545ZM11.7091 7.25455V19.0909H7.63637V7.25455H11.7091ZM17.7333 8.52728H12.3455V7.25455H17.7333V8.52728ZM13.4485 5.13334C13.6182 5.51516 13.4485 5.98182 13.1091 6.15152C12.8546 6.27879 11.7515 6.40607 10.6909 6.53334C11.4546 5.9394 12.4727 5.09091 12.6849 4.75152C12.6849 4.75152 12.6849 4.7091 12.7273 4.7091C12.9818 4.66667 13.2788 4.83637 13.4485 5.13334ZM12.1758 4.32728C12.1758 4.3697 12.1333 4.41213 12.1333 4.41213C12.0061 4.62425 11.2 5.30304 10.3091 6.02425C10.4788 5.51516 11.0303 3.94546 11.0303 3.43637C11.6243 2.92728 12.4727 3.60607 12.1758 4.32728ZM10.3515 3.47879C10.3515 3.77576 9.96971 5.00607 9.58789 6.02425C9.20607 5.00607 8.82425 3.77576 8.82425 3.47879C8.86667 2.46061 10.3515 2.46061 10.3515 3.47879ZM8.23031 3.43637C8.23031 3.94546 8.78183 5.51516 8.95152 6.02425C8.65455 5.7697 7.21213 4.66667 7.04243 4.28485C6.74546 3.60607 7.59395 2.92728 8.23031 3.43637ZM6.53334 4.75152C6.78789 5.17576 8.14546 6.23637 8.52728 6.57576C7.46667 6.44849 6.2788 6.32122 5.98183 6.19395C5.17577 5.72728 5.68486 4.49698 6.53334 4.75152ZM1.48486 7.25455H7.00001V8.52728H1.48486V7.25455ZM2.88486 18.4545V9.16364H7.00001V19.1333H3.56364C3.18183 19.1333 2.88486 18.8364 2.88486 18.4545ZM1.06061 19.7697H18.0727V21.1697H14.9333C14.7636 21.1697 14.5939 21.297 14.5939 21.5091C14.5939 21.6788 14.7212 21.8485 14.9333 21.8485H18.0727V23.2485H12.3879C12.2182 22.0606 11.2 21.1273 9.96971 21.1273C8.7394 21.1273 7.72122 22.0606 7.55152 23.2485H6.95758C6.78789 22.0606 5.76971 21.1273 4.5394 21.1273C3.3091 21.1273 2.29092 22.0606 2.12122 23.2485H1.06061V19.7697ZM4.62425 25.2849C3.64849 25.2849 2.84243 24.4788 2.84243 23.503C2.84243 22.5273 3.64849 21.7212 4.62425 21.7212C5.60001 21.7212 6.40607 22.5273 6.40607 23.503C6.40607 24.4788 5.60001 25.2849 4.62425 25.2849ZM9.96971 25.2849C8.99395 25.2849 8.18789 24.4788 8.18789 23.503C8.18789 22.5273 8.99395 21.7212 9.96971 21.7212C10.9455 21.7212 11.7515 22.5273 11.7515 23.503C11.7939 24.4788 10.9879 25.2849 9.96971 25.2849ZM23.2485 25.2849C22.2727 25.2849 21.4667 24.4788 21.4667 23.503C21.4667 22.5273 22.2727 21.7212 23.2485 21.7212C24.2243 21.7212 25.0303 22.5273 25.0303 23.503C25.0303 24.4788 24.2243 25.2849 23.2485 25.2849ZM25.6667 23.1636C25.497 21.9758 24.4788 21.0424 23.2485 21.0424C22.0182 21.0424 21 21.9758 20.8303 23.1636H18.7091V10.6061H20.7879V16.3758C20.7879 16.5455 20.9152 16.7152 21.1273 16.7152H25.6243L26.9394 17.9879V18.6667H25.3273C24.6485 18.6667 24.7758 19.3879 24.7758 20.1939C24.7758 20.4909 25.0303 20.7455 25.3273 20.7455H26.9394V23.2061H25.6667V23.1636ZM26.9394 19.303V20.1091H25.4121V19.303H26.9394Z" fill="black"/>
<path d="M4.62424 22.4424C4.0303 22.4424 3.56363 22.9091 3.56363 23.503C3.56363 24.097 4.0303 24.5636 4.62424 24.5636C5.21817 24.5636 5.68484 24.097 5.68484 23.503C5.68484 22.9091 5.21817 22.4424 4.62424 22.4424ZM4.62424 23.9273C4.36969 23.9273 4.19999 23.7152 4.19999 23.503C4.19999 23.2485 4.41211 23.0788 4.62424 23.0788C4.87878 23.0788 5.04848 23.2909 5.04848 23.503C5.04848 23.7576 4.83636 23.9273 4.62424 23.9273ZM9.96969 22.4424C9.37575 22.4424 8.90908 22.9091 8.90908 23.503C8.90908 24.097 9.37575 24.5636 9.96969 24.5636C10.5636 24.5636 11.0303 24.097 11.0303 23.503C11.0727 22.9091 10.5636 22.4424 9.96969 22.4424ZM9.96969 23.9273C9.71514 23.9273 9.54545 23.7152 9.54545 23.503C9.54545 23.2485 9.75757 23.0788 9.96969 23.0788C10.2242 23.0788 10.3939 23.2909 10.3939 23.503C10.4364 23.7576 10.2242 23.9273 9.96969 23.9273ZM23.2485 22.4424C22.6545 22.4424 22.1879 22.9091 22.1879 23.503C22.1879 24.097 22.6545 24.5636 23.2485 24.5636C23.8424 24.5636 24.3091 24.097 24.3091 23.503C24.3091 22.9091 23.8424 22.4424 23.2485 22.4424ZM23.2485 23.9273C22.9939 23.9273 22.8242 23.7152 22.8242 23.503C22.8242 23.2485 23.0364 23.0788 23.2485 23.0788C23.503 23.0788 23.6727 23.2909 23.6727 23.503C23.6727 23.7576 23.503 23.9273 23.2485 23.9273ZM12.6848 21.8061H13.9151C14.0848 21.8061 14.2545 21.6788 14.2545 21.4667C14.2545 21.297 14.1273 21.1273 13.9151 21.1273H12.6848C12.5151 21.1273 12.3454 21.2545 12.3454 21.4667C12.3454 21.6364 12.4727 21.8061 12.6848 21.8061ZM22.9091 15.2303L24.6061 11.6667C24.6909 11.497 24.6061 11.3273 24.4364 11.2424C24.2667 11.1576 24.097 11.2424 24.0121 11.4121L22.3151 14.9758C22.1454 15.3576 22.697 15.6121 22.9091 15.2303Z" fill="black"/>
</svg>
