<svg width="18" height="20" viewBox="0 0 18 20" fill="none" xmlns="http://www.w3.org/2000/svg">
<path fill-rule="evenodd" clip-rule="evenodd" d="M10.803 3.33301C10.803 1.49301 12.303 9.60172e-06 14.151 9.60172e-06C14.5897 -0.00104223 15.0244 0.0843342 15.4302 0.251264C15.8359 0.418194 16.2048 0.663408 16.5158 0.972906C16.8268 1.2824 17.0738 1.65012 17.2426 2.05507C17.4115 2.46002 17.499 2.89426 17.5 3.33301C17.5 5.17401 16 6.66701 14.151 6.66701C13.7076 6.66756 13.2685 6.57996 12.8592 6.40932C12.45 6.23868 12.0787 5.98839 11.767 5.67301L7.132 8.82901C7.26108 9.47201 7.19778 10.1388 6.95 10.746L12.032 14.086C12.6306 13.5978 13.3796 13.3318 14.152 13.333C14.5907 13.3321 15.0254 13.4176 15.4311 13.5846C15.8368 13.7517 16.2056 13.997 16.5165 14.3066C16.8274 14.6162 17.0743 14.984 17.243 15.389C17.4118 15.794 17.4991 16.2283 17.5 16.667C17.5 18.507 16 20 14.151 20C13.2651 20.0019 12.4147 19.6518 11.7869 19.0268C11.159 18.4017 10.8051 17.5529 10.803 16.667C10.8022 16.1996 10.9007 15.7374 11.092 15.311L6.05 12C5.43941 12.5309 4.65712 12.8226 3.848 12.821C3.40922 12.8221 2.97453 12.7366 2.56877 12.5696C2.16301 12.4026 1.79413 12.1573 1.48321 11.8477C1.17229 11.5381 0.925431 11.1702 0.756728 10.7652C0.588024 10.3601 0.500787 9.92579 0.5 9.48701C0.500918 9.04831 0.588253 8.61409 0.757015 8.20915C0.925777 7.80421 1.17266 7.43648 1.48356 7.12697C1.79447 6.81746 2.1633 6.57223 2.569 6.40528C2.97469 6.23834 3.4093 6.15296 3.848 6.15401C4.912 6.15401 5.858 6.64701 6.471 7.41501L10.964 4.35601C10.8571 4.02554 10.8028 3.68034 10.803 3.33301Z" fill="#363839"/>
</svg>
