<svg width="42" height="28" viewBox="0 0 42 28" fill="none" xmlns="http://www.w3.org/2000/svg">
<path d="M39.2903 11.3001V5.22527C39.2906 4.7496 39.1647 4.2823 38.9253 3.87075C38.6859 3.4592 38.3416 3.11802 37.9272 2.8818C37.5128 2.64558 37.0432 2.52271 36.5658 2.52565C36.0884 2.52859 35.6203 2.65723 35.2089 2.89853C35.1316 2.21287 34.7938 1.58272 34.2648 1.13746C33.7358 0.692195 33.0558 0.465614 32.3644 0.504237C31.6731 0.54286 31.0228 0.843756 30.5471 1.34514C30.0714 1.84653 29.8063 2.51036 29.8065 3.20033V11.3001H12.1935V3.20033C12.1927 2.51101 11.9273 1.84811 11.4517 1.34751C10.9761 0.846919 10.3263 0.546542 9.63557 0.507952C8.94483 0.469362 8.26545 0.695482 7.73666 1.13996C7.20787 1.58444 6.86973 2.21362 6.79155 2.89853C6.38014 2.65712 5.91197 2.5284 5.43452 2.5254C4.95708 2.52241 4.48732 2.64526 4.07289 2.88149C3.65846 3.11773 3.31408 3.45895 3.07468 3.87056C2.83527 4.28217 2.70935 4.74953 2.70968 5.22527V11.3001C1.99103 11.3001 1.30181 11.5845 0.793646 12.0909C0.285483 12.5972 0 13.2839 0 14C0 14.7161 0.285483 15.4028 0.793646 15.9091C1.30181 16.4155 1.99103 16.6999 2.70968 16.6999V22.7747C2.70935 23.2505 2.83527 23.7178 3.07468 24.1294C3.31408 24.541 3.65846 24.8823 4.07289 25.1185C4.48732 25.3547 4.95708 25.4776 5.43452 25.4746C5.91197 25.4716 6.38014 25.3429 6.79155 25.1015C6.86973 25.7864 7.20787 26.4156 7.73666 26.86C8.26545 27.3045 8.94483 27.5306 9.63557 27.492C10.3263 27.4535 10.9761 27.1531 11.4517 26.6525C11.9273 26.1519 12.1927 25.489 12.1935 24.7997V16.6999H29.8065V24.7997C29.8063 25.4896 30.0714 26.1535 30.5471 26.6549C31.0228 27.1562 31.6731 27.4571 32.3644 27.4958C33.0558 27.5344 33.7358 27.3078 34.2648 26.8625C34.7938 26.4173 35.1316 25.7871 35.2089 25.1015C35.6203 25.3428 36.0884 25.4714 36.5658 25.4743C37.0432 25.4773 37.5128 25.3544 37.9272 25.1182C38.3416 24.882 38.6859 24.5408 38.9253 24.1292C39.1647 23.7177 39.2906 23.2504 39.2903 22.7747V16.6999C40.009 16.6999 40.6982 16.4155 41.2064 15.9091C41.7145 15.4028 42 14.7161 42 14C42 13.2839 41.7145 12.5972 41.2064 12.0909C40.6982 11.5845 40.009 11.3001 39.2903 11.3001ZM2.70968 15.35C2.35035 15.35 2.00574 15.2077 1.75166 14.9546C1.49758 14.7014 1.35484 14.358 1.35484 14C1.35484 13.642 1.49758 13.2986 1.75166 13.0454C2.00574 12.7923 2.35035 12.65 2.70968 12.65V15.35ZM5.41935 24.1247C5.06016 24.1243 4.7158 23.9819 4.46181 23.7288C4.20782 23.4758 4.06494 23.1326 4.06452 22.7747V5.22527C4.06452 4.86724 4.20726 4.52387 4.46134 4.27071C4.71542 4.01754 5.06003 3.87531 5.41935 3.87531C5.77868 3.87531 6.12329 4.01754 6.37737 4.27071C6.63145 4.52387 6.77419 4.86724 6.77419 5.22527V22.7747C6.77377 23.1326 6.63089 23.4758 6.3769 23.7288C6.12291 23.9819 5.77855 24.1243 5.41935 24.1247ZM10.8387 24.7997C10.8387 25.1577 10.696 25.5011 10.4419 25.7542C10.1878 26.0074 9.8432 26.1496 9.48387 26.1496C9.12455 26.1496 8.77994 26.0074 8.52586 25.7542C8.27177 25.5011 8.12903 25.1577 8.12903 24.7997V3.20033C8.12903 2.8423 8.27177 2.49893 8.52586 2.24577C8.77994 1.9926 9.12455 1.85037 9.48387 1.85037C9.8432 1.85037 10.1878 1.9926 10.4419 2.24577C10.696 2.49893 10.8387 2.8423 10.8387 3.20033V24.7997ZM12.1935 15.35V12.65H29.8065V15.35H12.1935ZM33.871 24.7997C33.871 25.1577 33.7282 25.5011 33.4741 25.7542C33.2201 26.0074 32.8755 26.1496 32.5161 26.1496C32.1568 26.1496 31.8122 26.0074 31.5581 25.7542C31.304 25.5011 31.1613 25.1577 31.1613 24.7997V3.20033C31.1613 2.8423 31.304 2.49893 31.5581 2.24577C31.8122 1.9926 32.1568 1.85037 32.5161 1.85037C32.8755 1.85037 33.2201 1.9926 33.4741 2.24577C33.7282 2.49893 33.871 2.8423 33.871 3.20033V24.7997ZM37.9355 22.7747C37.9355 23.1328 37.7927 23.4761 37.5387 23.7293C37.2846 23.9825 36.94 24.1247 36.5806 24.1247C36.2213 24.1247 35.8767 23.9825 35.6226 23.7293C35.3685 23.4761 35.2258 23.1328 35.2258 22.7747V5.22527C35.2258 4.86724 35.3685 4.52387 35.6226 4.27071C35.8767 4.01754 36.2213 3.87531 36.5806 3.87531C36.94 3.87531 37.2846 4.01754 37.5387 4.27071C37.7927 4.52387 37.9355 4.86724 37.9355 5.22527V22.7747ZM39.2903 15.35V12.65C39.6497 12.65 39.9943 12.7923 40.2483 13.0454C40.5024 13.2986 40.6452 13.642 40.6452 14C40.6452 14.358 40.5024 14.7014 40.2483 14.9546C39.9943 15.2077 39.6497 15.35 39.2903 15.35Z" fill="#868788"/>
</svg>
