<svg width="44" height="44" viewBox="0 0 44 44" fill="none" xmlns="http://www.w3.org/2000/svg">
<rect x="1" y="1" width="42" height="42" rx="21" stroke="#BDBDBD" stroke-opacity="0.08" stroke-width="2"/>
<path d="M21.7504 21.7235C21.4301 21.3878 21.4316 20.8448 21.7536 20.5109C22.0757 20.1769 22.5964 20.1784 22.9167 20.5142C25.0501 22.7506 25.0473 26.3647 22.9104 28.5975L19.3446 32.3232C17.2175 34.5457 13.7685 34.5608 11.6236 32.3569C9.48061 30.1543 9.45593 26.5585 11.5679 24.3247L15.1594 20.5262C15.4783 20.1889 15.999 20.1851 16.3225 20.5175C16.646 20.85 16.6497 21.3929 16.3308 21.7302L12.7393 25.5287C11.2651 27.0879 11.2823 29.598 12.7778 31.135C14.2789 32.6774 16.692 32.6668 18.1803 31.1118L21.746 27.3861C23.243 25.822 23.245 23.2902 21.7504 21.7235ZM20.9888 22.248C21.3091 22.5838 21.3077 23.1267 20.9856 23.4607C20.6636 23.7946 20.1428 23.7931 19.8225 23.4574C17.6887 21.2205 17.6893 17.6065 19.8238 15.3703L23.2593 11.7711C25.4752 9.44973 29.0655 9.40455 31.3345 11.6695C31.4095 11.7444 31.4824 11.8215 31.5531 11.9007C33.5848 14.1769 33.4619 17.7393 31.2788 19.8575L27.5544 23.4711C27.2219 23.7937 26.7015 23.7742 26.392 23.4275C26.0826 23.0808 26.1013 22.5382 26.4338 22.2156L30.1582 18.6021C31.6763 17.1291 31.7617 14.6519 30.349 13.069C30.2998 13.0139 30.2491 12.9603 30.197 12.9083C28.5752 11.2894 26.009 11.3217 24.4252 12.9809L20.9897 16.5801C19.4937 18.1473 19.4933 20.6803 20.9888 22.248Z" fill="black"/>
</svg>
