<svg width="32" height="32" viewBox="0 0 32 32" fill="none" xmlns="http://www.w3.org/2000/svg">
<path opacity="0.32" d="M3.0414 26.2101C3.15963 27.3549 3.91022 28.2611 5.03591 28.5007C6.81275 28.879 10.1622 29.3334 16.0001 29.3334C21.8379 29.3334 25.1874 28.879 26.9643 28.5007C28.0899 28.2611 28.8405 27.3549 28.9587 26.2101C29.1341 24.5126 29.3334 21.396 29.3334 16.0001C29.3334 10.6041 29.1341 7.48755 28.9587 5.7901C28.8405 4.64526 28.09 3.73907 26.9642 3.49942C25.1874 3.12116 21.8379 2.66675 16.0001 2.66675C10.1622 2.66675 6.81275 3.12116 5.03591 3.49942C3.91022 3.73907 3.15963 4.64526 3.0414 5.7901C2.86611 7.48755 2.66675 10.6041 2.66675 16.0001C2.66675 21.396 2.86611 24.5126 3.0414 26.2101Z" fill="#868788"/>
<path d="M18.5843 18.4745C20.3507 17.5443 21.5551 15.6906 21.5551 13.5555C21.5551 10.4873 19.0678 8 15.9995 8C12.9313 8 10.444 10.4873 10.444 13.5555C10.444 15.6907 11.6484 17.5445 13.415 18.4746C11.0493 19.3759 9.24296 21.4789 8.68343 24.0705C8.60603 24.4292 8.80336 24.7974 9.16463 24.8628C10.4612 25.0974 12.6083 25.3333 16.0009 25.3333C19.3934 25.3333 21.5406 25.0974 22.8371 24.8628C23.197 24.7977 23.3939 24.4309 23.3168 24.0735C22.758 21.4804 20.9511 19.3761 18.5843 18.4745Z" fill="#868788"/>
</svg>
