<svg width="28" height="28" viewBox="0 0 28 28" fill="none" xmlns="http://www.w3.org/2000/svg">
<g clip-path="url(#clip0_3_2803)">
<path d="M6.33229 4.99692L5.90152 4.52308L5.42768 4.99692L5.90152 5.42769C6.03076 5.25538 6.15999 5.12615 6.33229 4.99692ZM7.45229 4.04923C11.1569 1.42154 16.0246 0.990769 20.1169 2.88615L18.4369 3.44615L18.6523 4.04923L21.3661 3.14462L20.4615 0.430769L19.8584 0.646154L20.4184 2.32615C16.1108 0.301539 10.9846 0.732308 7.0646 3.53231C6.93537 3.61846 6.76306 3.74769 6.54768 3.92L6.93537 4.43692C7.15076 4.26462 7.32306 4.13538 7.45229 4.04923ZM4.39383 7.19385L3.87691 6.80615C3.74768 6.97846 3.61845 7.15077 3.48922 7.36615L4.00614 7.71077L4.39383 7.19385ZM5.29845 6.03077L4.8246 5.6C4.69537 5.77231 4.52306 5.94462 4.39383 6.11692L4.91076 6.50462C5.03999 6.37538 5.16922 6.20308 5.29845 6.03077ZM26.8369 8.70154C26.7508 8.48615 26.6646 8.31385 26.5784 8.09846L25.9754 8.35692C26.0615 8.57231 26.1477 8.74462 26.2338 8.91692L26.8369 8.70154ZM26.7508 10.3385L27.3538 10.1231C27.3108 9.90769 27.2246 9.69231 27.1384 9.47692L26.5354 9.69231C26.6215 9.90769 26.7077 10.1231 26.7508 10.3385ZM27.1384 11.76L27.7846 11.6308C27.7415 11.4154 27.6984 11.2 27.6123 10.9846L27.0092 11.1569C27.0523 11.3292 27.0954 11.5446 27.1384 11.76ZM28 13.1385C28 12.9662 27.9569 12.7508 27.9138 12.4923L27.2677 12.5785C27.3108 12.8369 27.3108 13.0523 27.3538 13.1815C27.7415 17.7046 25.5877 22.1415 21.8831 24.6831L22.2708 22.96L21.6246 22.8308L21.0215 25.6308L23.8215 26.2338L23.9508 25.5877L22.2277 25.2C26.1477 22.5292 28.4308 17.8769 28 13.1385ZM11.9754 27.2246L12.6215 27.3538L12.7508 26.7077C12.5354 26.6646 12.32 26.6215 12.1477 26.5785L11.9754 27.2246ZM10.5108 26.8369C10.7261 26.88 10.8984 26.9662 11.1569 27.0092L11.3292 26.4062C11.1138 26.3631 10.8984 26.2769 10.7261 26.2338L10.5108 26.8369ZM13.4831 27.4831C13.6984 27.5262 13.9138 27.5262 14.1292 27.5692L14.1723 26.9231C13.9569 26.9231 13.7415 26.88 13.5261 26.8369L13.4831 27.4831ZM2.28306 15.0769L3.57537 16.2831L4.00614 15.8092L1.89537 13.8708L-0.0430908 15.9815L0.430755 16.4123L1.63691 15.12C1.93845 19.8585 4.78153 24.1662 9.08922 26.2338C9.21845 26.32 9.43383 26.4062 9.69229 26.4923L9.95076 25.8892C9.69229 25.8031 9.51999 25.7169 9.39076 25.6308C5.25537 23.6923 2.54152 19.6 2.28306 15.0769ZM15.8954 11.76C16.1538 12.0185 16.3261 12.32 16.3261 12.6215H16.9723C16.9723 12.1046 16.7569 11.6308 16.3261 11.2431C15.9815 10.9415 15.5938 10.7692 15.12 10.7262V9.34769H14.4738V10.7692C14.0431 10.8123 13.6123 10.9846 13.2677 11.2862C12.8369 11.6308 12.6215 12.1477 12.6215 12.6646C12.6215 13.1815 12.8369 13.6554 13.2677 14.0431C13.6554 14.3877 14.2154 14.6031 14.7754 14.6031C15.2061 14.6031 15.5938 14.7323 15.8523 14.9908C16.1108 15.2492 16.2831 15.5508 16.2831 15.8523C16.2831 16.1969 16.1108 16.4985 15.8523 16.7138C15.2923 17.2308 14.2584 17.2308 13.6554 16.7138C13.3969 16.4554 13.2246 16.1538 13.2246 15.8523H12.5784C12.5784 16.3692 12.7938 16.8431 13.2246 17.2308C13.5692 17.5323 13.9569 17.7046 14.4308 17.7477V19.1262H15.0769V17.7477C15.5077 17.7046 15.9384 17.5323 16.2831 17.2308C16.7138 16.8862 16.9292 16.3692 16.9292 15.8523C16.9292 15.3354 16.7138 14.8615 16.2831 14.4738C15.8954 14.1292 15.3354 13.9138 14.7754 13.9138C14.3446 13.9138 13.9569 13.7846 13.6984 13.5262C13.44 13.2677 13.2677 12.9662 13.2677 12.6646C13.2677 12.32 13.44 12.0185 13.6984 11.8031C14.3015 11.2862 15.3354 11.2862 15.8954 11.76ZM20.1169 7.40923L20.5046 6.89231C20.3323 6.76308 20.16 6.63385 19.9446 6.50462L19.6 7.02154L20.1169 7.40923ZM20.8923 8.09846C21.0215 8.22769 21.1938 8.4 21.3231 8.57231L21.7969 8.14154C21.6677 7.96923 21.4954 7.79692 21.3231 7.66769L20.8923 8.09846ZM18.0923 6.24615C18.2646 6.33231 18.48 6.41846 18.6523 6.50462L18.9538 5.94462C18.7384 5.85846 18.5661 5.77231 18.3508 5.68615L18.0923 6.24615ZM13.0954 5.77231C13.3108 5.72923 13.4831 5.68615 13.6984 5.68615L13.6123 5.04C13.3969 5.08308 13.1815 5.08308 12.9661 5.16923L13.0954 5.77231ZM17.1015 5.90154L17.2738 5.29846C17.0584 5.25538 16.8431 5.16923 16.6277 5.12615L16.4984 5.77231C16.6708 5.77231 16.8861 5.85846 17.1015 5.90154ZM14.8184 4.95385V5.6H15.4215L15.4646 4.95385H14.8184ZM23.9508 16.0246L23.3046 15.8954C23.2615 16.1108 23.2184 16.2831 23.1754 16.4985L23.7784 16.6708C23.8646 16.4554 23.9077 16.24 23.9508 16.0246ZM22.8738 9.60615C22.7446 9.43385 22.6584 9.21846 22.5292 9.04615L22.0123 9.39077C22.1415 9.56308 22.2277 9.73538 22.3569 9.90769L22.8738 9.60615ZM11.5015 6.24615C11.6738 6.16 11.8892 6.07385 12.0615 6.03077L11.8461 5.42769C11.6308 5.51385 11.4154 5.55692 11.2431 5.64308L11.5015 6.24615ZM23.0031 11.5015L23.6061 11.2862C23.52 11.0708 23.4769 10.8554 23.3908 10.6831L22.7877 10.9415C22.8738 11.1138 22.96 11.2862 23.0031 11.5015ZM21.6677 19.5138L22.1846 19.9015C22.3138 19.7292 22.4431 19.5569 22.5723 19.3415L22.0554 18.9969L21.6677 19.5138ZM23.3908 13.1385L24.0369 13.0523L23.9077 12.4062L23.2615 12.5354C23.3477 12.7077 23.3477 12.9231 23.3908 13.1385ZM22.5723 18.0923L23.1323 18.3938C23.2184 18.1785 23.3046 18.0062 23.3908 17.7908L22.8308 17.5323C22.7446 17.7046 22.6584 17.8769 22.5723 18.0923ZM24.1231 14.2154H23.4769V14.8185L24.1231 14.8615V14.2154ZM20.9354 20.3323C20.8061 20.4615 20.6338 20.6338 20.4615 20.7631L20.8923 21.2369C21.0646 21.1077 21.2369 20.9354 21.3661 20.7631L20.9354 20.3323ZM12.3631 23.1754C12.5784 23.2185 12.7938 23.3046 13.0092 23.3477L13.1384 22.7015C12.9231 22.6585 12.7508 22.6154 12.5354 22.5723L12.3631 23.1754ZM9.99383 7.06462C10.1661 6.93538 10.3384 6.84923 10.5108 6.72L10.2092 6.16C10.0369 6.28923 9.82152 6.37538 9.64922 6.50462L9.99383 7.06462ZM14.2154 22.8738L14.1723 23.52C14.3877 23.52 14.6031 23.5631 14.8615 23.5631L14.9046 23.3477L14.8615 22.9169C14.6031 22.8738 14.3877 22.8738 14.2154 22.8738ZM9.13229 21.5815C9.3046 21.7108 9.47691 21.84 9.69229 21.9692L10.0369 21.4523C9.8646 21.3231 9.69229 21.2369 9.51999 21.1077L9.13229 21.5815ZM17.5754 22.4431L17.7908 23.0462C18.0061 22.96 18.2215 22.9169 18.3938 22.8308L18.1354 22.2277C17.9631 22.2708 17.7908 22.3569 17.5754 22.4431ZM19.1261 21.7538L19.4708 22.3138C19.6431 22.1846 19.8584 22.0985 20.0308 21.9692L19.6861 21.4523C19.4708 21.5385 19.2984 21.6246 19.1261 21.7538ZM15.9384 22.8308L16.0246 23.4769L16.6708 23.3477L16.5415 22.7015C16.3261 22.7446 16.1538 22.7877 15.9384 22.8308ZM8.27076 19.9015L7.79691 20.3323C7.92614 20.5046 8.09845 20.6769 8.27076 20.8062L8.7446 20.3323C8.57229 20.2031 8.44306 20.0308 8.27076 19.9015ZM10.64 22.5292C10.8554 22.6154 11.0277 22.7015 11.2431 22.7877L11.5015 22.1846C11.3292 22.0985 11.1138 22.0123 10.9415 21.9262L10.64 22.5292ZM6.46152 11.9754L5.85845 11.8031C5.81537 12.0185 5.72922 12.2338 5.68614 12.4492L6.33229 12.5785C6.37537 12.3631 6.41845 12.1477 6.46152 11.9754ZM5.51383 14.2154H6.15999V13.6123L5.51383 13.5692C5.55691 13.7846 5.51383 14 5.51383 14.2154ZM8.70152 8.14154C8.83076 8.01231 9.00306 7.84 9.17537 7.71077L8.7446 7.23692C8.57229 7.36615 8.39999 7.53846 8.27076 7.71077L8.70152 8.14154ZM6.80614 10.9415C6.89229 10.7692 6.97845 10.5538 7.0646 10.3815L6.5046 10.08C6.41845 10.2954 6.33229 10.4677 6.24614 10.6831L6.80614 10.9415ZM6.33229 15.9385C6.28922 15.7231 6.24614 15.5508 6.24614 15.3354L5.59999 15.3785C5.64306 15.5938 5.64306 15.8092 5.68614 16.0246L6.33229 15.9385ZM7.96922 8.96L7.45229 8.57231C7.32306 8.74461 7.19383 8.91692 7.0646 9.13231L7.58152 9.47692C7.75383 9.26154 7.88306 9.08923 7.96922 8.96ZM6.84922 17.5323C6.76306 17.36 6.67691 17.1446 6.63383 16.9723L6.03076 17.1877C6.11691 17.4031 6.15999 17.6185 6.24614 17.7908L6.84922 17.5323ZM7.6246 19.04C7.49537 18.8677 7.40922 18.6954 7.27999 18.5231L6.71999 18.8246C6.84922 18.9969 6.93537 19.2123 7.0646 19.3846L7.6246 19.04Z" fill="black"/>
<path d="M14.8185 6.80615C10.7262 6.80615 7.40924 10.1231 7.40924 14.2154C7.40924 18.3077 10.7262 21.6246 14.8185 21.6246C18.9108 21.6246 22.2277 18.3077 22.2277 14.2154C22.2277 10.1231 18.9108 6.80615 14.8185 6.80615ZM14.8185 21.0215C11.0708 21.0215 8.05539 17.9631 8.05539 14.2585C8.05539 10.5538 11.1139 7.49538 14.8185 7.49538C18.5662 7.49538 21.5815 10.5538 21.5815 14.2585C21.5815 17.9631 18.5662 21.0215 14.8185 21.0215Z" fill="black"/>
</g>
<defs>
<clipPath id="clip0_3_2803">
<rect width="28" height="28" fill="white"/>
</clipPath>
</defs>
</svg>
