<svg width="40" height="26" viewBox="0 0 40 26" fill="none" xmlns="http://www.w3.org/2000/svg">
<path d="M37.9166 0.5C34.1493 0.5 7.84078 0.5 2.08336 0.5C0.934609 0.5 0 1.44578 0 2.60827V23.3917C0 24.5542 0.934609 25.5 2.08336 25.5C6.36281 25.5 32.2878 25.5 37.9166 25.5C39.0654 25.5 40 24.5542 40 23.3917V2.60819C40 1.44578 39.0654 0.5 37.9166 0.5ZM39.1666 2.60819V9.76597L13.6171 9.76858C14.8372 9.33478 16.1187 8.7967 16.5947 8.31515C17.6558 7.24137 17.6561 5.49946 16.5945 4.4256C15.5334 3.35174 13.8084 3.35087 12.7487 4.42315C12.2723 4.90518 11.7409 6.20404 11.3126 7.44021V1.34309H37.9167C38.6059 1.34324 39.1666 1.91065 39.1666 2.60819ZM11.508 9.57259C12.0168 7.84949 12.817 5.54658 13.3377 5.0195C14.0707 4.27776 15.2673 4.27531 16.0052 5.02194C16.7408 5.76637 16.7409 6.97431 16.0054 7.71905C15.4846 8.2459 13.2101 9.05673 11.508 9.57259ZM2.08336 1.34324H10.4791V7.42922C10.0515 6.19637 9.52164 4.90383 9.04688 4.42331C7.98688 3.35103 6.26187 3.3523 5.20109 4.42576C4.13977 5.49938 4.13953 7.24121 5.20086 8.31531C5.67711 8.7971 6.95945 9.33533 8.18008 9.76929L0.833438 9.77008V2.60827C0.833359 1.91065 1.39406 1.34324 2.08336 1.34324ZM10.2874 9.57283C8.58555 9.05689 6.31094 8.24613 5.79 7.71905C5.05453 6.97439 5.05445 5.76644 5.79023 5.02194C6.5243 4.27911 7.72109 4.27452 8.45766 5.0195C8.97828 5.54634 9.77844 7.84934 10.2874 9.57283ZM0.833359 23.3917V10.6134H9.89078L6.94336 13.5961C6.78062 13.7607 6.78062 14.0276 6.94336 14.1923C7.10609 14.357 7.36977 14.357 7.53258 14.1923L10.4791 11.2105V24.6568H2.08336C1.39406 24.6567 0.833359 24.0893 0.833359 23.3917ZM37.9166 24.6567H11.3125V11.2065L13.9683 13.894C14.1309 14.0586 14.3948 14.0586 14.5575 13.894C14.7202 13.7294 14.7202 13.4625 14.5575 13.2978L11.9045 10.6131L39.1666 10.6091V23.3916C39.1666 24.0903 38.607 24.6567 37.9166 24.6567Z" fill="#868788"/>
<path d="M21.1261 15.3669H29.3533C29.5833 15.3669 29.7699 15.1781 29.7699 14.9452C29.7699 14.7124 29.5833 14.5236 29.3533 14.5236H21.1261C20.896 14.5236 20.7094 14.7124 20.7094 14.9452C20.7094 15.1781 20.896 15.3669 21.1261 15.3669ZM33.5542 17.2123H16.9248C16.6947 17.2123 16.5082 17.4011 16.5082 17.634C16.5082 17.8668 16.6947 18.0556 16.9248 18.0556H33.5542C33.7843 18.0556 33.9708 17.8668 33.9708 17.634C33.9708 17.4011 33.7843 17.2123 33.5542 17.2123ZM33.5542 19.901H16.9248C16.6947 19.901 16.5082 20.0898 16.5082 20.3226C16.5082 20.5554 16.6947 20.7442 16.9248 20.7442H33.5542C33.7843 20.7442 33.9708 20.5554 33.9708 20.3226C33.9709 20.0898 33.7843 19.901 33.5542 19.901Z" fill="#868788"/>
</svg>
