<svg width="20" height="20" viewBox="0 0 20 20" fill="none" xmlns="http://www.w3.org/2000/svg">
<g clip-path="url(#clip0_13_1152)">
<path d="M17.0857 2.90641C15.2056 1.03328 12.7056 0.00114284 10.042 0C4.55329 0 0.0865903 4.44562 0.0843929 9.90993C0.0837533 11.6566 0.542156 13.3616 1.41346 14.8646L0.000793457 20L5.27943 18.622C6.73379 19.4116 8.37131 19.8277 10.0377 19.8284H10.0419H10.042C15.5298 19.8284 19.9972 15.382 19.9995 9.91796C20.0004 7.2697 18.9655 4.77968 17.0857 2.90641ZM10.042 18.1546H10.0388C8.55342 18.1538 7.09684 17.7568 5.82635 17.0062L5.524 16.8278L2.39154 17.6454L3.22786 14.6059L3.03087 14.2942C2.20234 12.9827 1.76494 11.4669 1.76556 9.91057C1.76738 5.36881 5.47993 1.67389 10.0451 1.67389C12.2558 1.6748 14.3336 2.53272 15.8963 4.08961C17.4589 5.64649 18.3188 7.71614 18.3182 9.91726C18.3162 14.4592 14.6036 18.1546 10.042 18.1546Z" fill="#E0E0E0"/>
<path d="M0.457764 19.4297L1.8059 14.5289C0.974184 13.0946 0.536804 11.4673 0.537329 9.80077C0.53951 4.58618 4.80221 0.34375 10.0397 0.34375C12.5818 0.344893 14.9676 1.32983 16.7614 3.11744C18.5557 4.90505 19.5432 7.28116 19.5421 9.80816C19.5399 15.0229 15.277 19.2657 10.0401 19.2657C10.0397 19.2657 10.0404 19.2657 10.0401 19.2657H10.0359C8.44561 19.2652 6.88301 18.8677 5.49518 18.1147L0.457764 19.4297Z" fill="url(#paint0_linear_13_1152)"/>
<path fill-rule="evenodd" clip-rule="evenodd" d="M7.58123 5.70227C7.39701 5.29449 7.20305 5.28632 7.02779 5.27919C6.88443 5.27307 6.72031 5.27344 6.55646 5.27344C6.39248 5.27344 6.126 5.3348 5.90065 5.57982C5.67517 5.82485 5.03973 6.41718 5.03973 7.62188C5.03973 8.82672 5.92115 9.99087 6.04401 10.1544C6.167 10.3176 7.74548 12.8689 10.2453 13.8504C12.323 14.6661 12.7457 14.5038 13.1967 14.463C13.6477 14.4222 14.6518 13.8708 14.8568 13.299C15.0618 12.7273 15.0618 12.2373 15.0003 12.1348C14.9388 12.0328 14.7748 11.9716 14.5288 11.8491C14.2828 11.7267 13.0737 11.1342 12.8482 11.0526C12.6227 10.9709 12.4588 10.9301 12.2948 11.1753C12.1308 11.4202 11.6597 11.9716 11.5162 12.1348C11.3727 12.2985 11.2293 12.3189 10.9833 12.1964C10.7373 12.0736 9.94517 11.8153 9.00547 10.9811C8.27433 10.3322 7.78071 9.53063 7.63722 9.28549C7.49373 9.04059 7.62184 8.90794 7.74522 8.78587C7.85565 8.67617 7.9912 8.50003 8.11419 8.35704C8.23691 8.21406 8.27791 8.11202 8.3599 7.94875C8.44189 7.78523 8.4009 7.64226 8.3394 7.51981C8.27791 7.39736 7.79992 6.18644 7.58123 5.70227Z" fill="white"/>
<path d="M17.0042 2.87501C15.1456 1.02338 12.6743 0.00311229 10.0414 0.00195312C4.61565 0.00195312 0.20023 4.39654 0.198049 9.79812C0.19741 11.5248 0.650549 13.2102 1.51185 14.6959L0.115417 19.7724L5.33346 18.4101C6.77115 19.1907 8.38986 19.6021 10.0371 19.6027H10.0413H10.0414C15.4662 19.6027 19.8822 15.2074 19.8845 9.80602C19.8854 7.18821 18.8625 4.72677 17.0042 2.87501ZM10.0414 17.9482H10.0382C8.56986 17.9474 7.12999 17.5549 5.8741 16.813L5.57521 16.6366L2.47872 17.4448L3.30543 14.4402L3.1107 14.1321C2.29168 12.8356 1.8593 11.3373 1.85994 9.79877C1.86172 5.30917 5.53165 1.65666 10.0444 1.65666C12.2298 1.65756 14.2837 2.50563 15.8285 4.04464C17.3732 5.58366 18.2232 7.62954 18.2225 9.80542C18.2206 14.2951 14.5505 17.9482 10.0414 17.9482Z" fill="white"/>
</g>
<defs>
<linearGradient id="paint0_linear_13_1152" x1="9.99995" y1="19.4297" x2="9.99995" y2="0.343782" gradientUnits="userSpaceOnUse">
<stop stop-color="#20B038"/>
<stop offset="1" stop-color="#60D66A"/>
</linearGradient>
<clipPath id="clip0_13_1152">
<rect width="20" height="20" fill="white"/>
</clipPath>
</defs>
</svg>
