<svg width="24" height="24" viewBox="0 0 24 24" fill="none" xmlns="http://www.w3.org/2000/svg">
<g clip-path="url(#clip0_55_301)">
<path d="M20.5027 3.48769C18.2465 1.23993 15.2465 0.00137141 12.0503 0C5.46382 0 0.10378 5.33475 0.101143 11.8919C0.100376 13.9879 0.650459 16.034 1.69602 17.8375L0.000823975 24L6.33519 22.3464C8.08042 23.294 10.0454 23.7933 12.0451 23.7941H12.0502H12.0503C18.6356 23.7941 23.9965 18.4584 23.9993 11.9016C24.0004 8.72364 22.7585 5.73561 20.5027 3.48769ZM12.0503 21.7855H12.0464C10.264 21.7846 8.51608 21.3081 6.99149 20.4075L6.62867 20.1933L2.86972 21.1745L3.87331 17.527L3.63692 17.1531C2.64268 15.5792 2.1178 13.7603 2.11855 11.8927C2.12073 6.44257 6.57579 2.00867 12.054 2.00867C14.7069 2.00976 17.2002 3.03926 19.0755 4.90753C20.9506 6.77579 21.9825 9.25937 21.9817 11.9007C21.9794 17.351 17.5242 21.7855 12.0503 21.7855Z" fill="#E0E0E0"/>
<path d="M0.549301 23.3162L2.16706 17.4352C1.16901 15.714 0.64415 13.7613 0.64478 11.7614C0.647397 5.50394 5.76264 0.413025 12.0477 0.413025C15.0981 0.414396 17.9611 1.59632 20.1137 3.74146C22.2668 5.88658 23.4518 8.73792 23.4505 11.7703C23.4479 18.028 18.3324 23.1194 12.0481 23.1194C12.0477 23.1194 12.0484 23.1194 12.0481 23.1194H12.043C10.1347 23.1187 8.2596 22.6418 6.5942 21.7381L0.549301 23.3162Z" fill="url(#paint0_linear_55_301)"/>
<path fill-rule="evenodd" clip-rule="evenodd" d="M9.09747 6.84323C8.8764 6.35389 8.64365 6.34409 8.43333 6.33553C8.2613 6.32818 8.06437 6.32863 7.86774 6.32863C7.67096 6.32863 7.35119 6.40226 7.08077 6.69629C6.8102 6.99032 6.04767 7.70112 6.04767 9.14676C6.04767 10.5926 7.10537 11.9895 7.2528 12.1858C7.40038 12.3817 9.29457 15.4432 12.2944 16.621C14.7875 17.5998 15.2949 17.4051 15.836 17.3561C16.3772 17.3071 17.5821 16.6454 17.8281 15.9593C18.0741 15.2732 18.0741 14.6852 18.0003 14.5623C17.9265 14.4398 17.7297 14.3664 17.4346 14.2194C17.1394 14.0725 15.6884 13.3615 15.4179 13.2636C15.1473 13.1656 14.9505 13.1166 14.7537 13.4108C14.5569 13.7047 13.9916 14.3664 13.8195 14.5623C13.6473 14.7587 13.4751 14.7831 13.1799 14.6362C12.8847 14.4888 11.9342 14.1789 10.8066 13.1778C9.92919 12.3991 9.33683 11.4373 9.16465 11.1431C8.99247 10.8492 9.14619 10.69 9.29425 10.5435C9.42676 10.4119 9.58942 10.2005 9.73701 10.029C9.88428 9.85737 9.93348 9.73492 10.0319 9.53901C10.1303 9.34278 10.0811 9.17122 10.0073 9.02428C9.93348 8.87734 9.3599 7.42423 9.09747 6.84323Z" fill="white"/>
<path d="M20.405 3.4499C18.1748 1.22794 15.2092 0.00361879 12.0497 0.00222778C5.5388 0.00222778 0.240295 5.27573 0.237678 11.7576C0.23691 13.8296 0.780677 15.8521 1.81423 17.635L0.138519 23.7267L6.40017 22.092C8.12539 23.0287 10.0678 23.5224 12.0446 23.5231H12.0496H12.0497C18.5594 23.5231 23.8587 18.2487 23.8615 11.7671C23.8626 8.62574 22.635 5.67201 20.405 3.4499ZM12.0497 21.5377H12.0458C10.2839 21.5367 8.55601 21.0658 7.04894 20.1754L6.69027 19.9638L2.97448 20.9337L3.96653 17.3281L3.73285 16.9584C2.75003 15.4026 2.23117 13.6046 2.23194 11.7584C2.23409 6.37088 6.638 1.98787 12.0534 1.98787C14.6758 1.98895 17.1405 3.00664 18.9942 4.85346C20.8478 6.70028 21.8678 9.15534 21.8671 11.7664C21.8647 17.154 17.4607 21.5377 12.0497 21.5377Z" fill="white"/>
</g>
<defs>
<linearGradient id="paint0_linear_55_301" x1="11.9999" y1="23.3162" x2="11.9999" y2="0.413063" gradientUnits="userSpaceOnUse">
<stop stop-color="#20B038"/>
<stop offset="1" stop-color="#60D66A"/>
</linearGradient>
<clipPath id="clip0_55_301">
<rect width="24" height="24" fill="white"/>
</clipPath>
</defs>
</svg>
